SplineFontDB: 3.2
FontName: Gontserrat-ThinItalic
FullName: Gontserrat Thin Italic
FamilyName: Gontserrat
Weight: Light
Copyright: Gontserrat is a derivative work of Montserrat under the Open Font License, version 1.1. Copyright 2020 Gabriel Classon (gabeclasson.com). Montserrat copyright 2011 The Montserrat Project Authors (https://github.com/JulietaUla/Montserrat). 
Version: 6.002
ItalicAngle: -11.3
UnderlinePosition: -100
UnderlineWidth: 50
Ascent: 800
Descent: 200
InvalidEm: 0
sfntRevision: 0x00010000
LayerCount: 2
Layer: 0 1 "Back" 1
Layer: 1 1 "Fore" 0
XUID: [1021 930 -1503615855 31148]
StyleMap: 0x0001
FSType: 0
OS2Version: 4
OS2_WeightWidthSlopeOnly: 0
OS2_UseTypoMetrics: 1
CreationTime: 1485852814
ModificationTime: 1642921004
PfmFamily: 81
TTFWeight: 250
TTFWidth: 5
LineGap: 0
VLineGap: 0
Panose: 0 0 3 0 0 0 0 0 0 0
OS2TypoAscent: 968
OS2TypoAOffset: 0
OS2TypoDescent: -251
OS2TypoDOffset: 0
OS2TypoLinegap: 0
OS2WinAscent: 1177
OS2WinAOffset: 0
OS2WinDescent: 496
OS2WinDOffset: 0
HheadAscent: 968
HheadAOffset: 0
HheadDescent: -251
HheadDOffset: 0
OS2SubXSize: 650
OS2SubYSize: 600
OS2SubXOff: -15
OS2SubYOff: 75
OS2SupXSize: 650
OS2SupYSize: 600
OS2SupXOff: 70
OS2SupYOff: 350
OS2StrikeYSize: 50
OS2StrikeYPos: 310
OS2CapHeight: 699
OS2XHeight: 517
OS2Vendor: 'ULA '
OS2CodePages: 20000193.00000000
OS2UnicodeRanges: 20000007.00000001.00000000.00000000
Lookup: 1 0 0 "'rtla' Right to Left Alternates lookup 0" { "'rtla' Right to Left Alternates lookup 0 subtable"  } ['rtla' ('DFLT' <'dflt' > ) ]
Lookup: 1 0 0 "<10,2> Inferiors lookup 1" { "<10,2> Inferiors lookup 1 subtable" ("inferior") } [<10,2> ('DFLT' <'dflt' > ) 'subs' ('DFLT' <'dflt' > ) ]
Lookup: 1 0 0 "<10,1> Superiors lookup 2" { "<10,1> Superiors lookup 2 subtable" ("superior") } [<10,1> ('DFLT' <'dflt' > ) 'sups' ('DFLT' <'dflt' > ) ]
Lookup: 1 0 0 "<11,2> Diagonal Fractions lookup 3" { "<11,2> Diagonal Fractions lookup 3 subtable"  } [<11,2> ('DFLT' <'dflt' > ) 'frac' ('DFLT' <'dflt' > ) ]

StartChar: .notdef
Encoding: 65536 -1 0
Width: 587
Flags: W
LayerCount: 2
Fore
SplineSet
40 0 m 1,0,-1
 40 700 l 1,1,-1
 547 700 l 1,2,-1
 547 0 l 1,3,-1
 40 0 l 1,0,-1
120 70 m 1,4,-1
 467 70 l 1,5,-1
 467 630 l 1,6,-1
 120 630 l 1,7,-1
 120 70 l 1,4,-1
EndSplineSet
EndChar

StartChar: exclam
Encoding: 33 33 5
Width: 193
Flags: W
LayerCount: 2
Fore
SplineSet
189 682 m 1,0,-1
 157 520 l 1,1,-1
 91 188 l 1,2,-1
 71 188 l 1,3,-1
 137 520 l 1,4,-1
 169 682 l 1,5,-1
 189 682 l 1,0,-1
68.5 38.5 m 128,-1,7
 75 32 75 32 75 21 c 256,8,9
 75 10 75 10 66.5 1.5 c 128,-1,10
 58 -7 58 -7 47 -7 c 0,11,12
 37 -7 37 -7 30 0 c 128,-1,13
 23 7 23 7 23 17 c 0,14,15
 23 28 23 28 31.5 36.5 c 128,-1,16
 40 45 40 45 51 45 c 256,17,6
 62 45 62 45 68.5 38.5 c 128,-1,7
EndSplineSet
Substitution2: "<3,3> Small Caps in Latin lookup 11 subtable" exclam.sc
EndChar

StartChar: numbersign
Encoding: 35 35 7
Width: 680
Flags: W
LayerCount: 2
Fore
SplineSet
674 468 m 1,0,-1
 523 468 l 1,1,-1
 472 228 l 1,2,-1
 620 228 l 1,3,-1
 620 208 l 1,4,-1
 468 208 l 1,5,-1
 424 0 l 1,6,-1
 404 0 l 1,7,-1
 448 208 l 1,8,-1
 208 208 l 1,9,-1
 164 0 l 1,10,-1
 144 0 l 1,11,-1
 188 208 l 1,12,-1
 40 208 l 1,13,-1
 40 228 l 1,14,-1
 192 228 l 1,15,-1
 243 468 l 1,16,-1
 94 468 l 1,17,-1
 95 488 l 1,18,-1
 247 488 l 1,19,-1
 292 699 l 1,20,-1
 312 699 l 1,21,-1
 267 488 l 1,22,-1
 507 488 l 1,23,-1
 552 699 l 1,24,-1
 572 699 l 1,25,-1
 527 488 l 1,26,-1
 675 488 l 1,27,-1
 674 468 l 1,0,-1
452 228 m 1,28,-1
 503 468 l 1,29,-1
 263 468 l 1,30,-1
 212 228 l 1,31,-1
 452 228 l 1,28,-1
EndSplineSet
EndChar

StartChar: dollar
Encoding: 36 36 8
Width: 591
Flags: W
LayerCount: 2
Fore
SplineSet
195.5 645 m 128,-1,1
 136 608 136 608 130 546 c 0,2,3
 129 539 129 539 129 527 c 0,4,5
 129 480 129 480 153 451 c 128,-1,6
 177 422 177 422 212 405.5 c 128,-1,7
 247 389 247 389 307 370 c 0,8,9
 370 349 370 349 407.5 331 c 128,-1,10
 445 313 445 313 471 280 c 128,-1,11
 497 247 497 247 497 193 c 0,12,13
 497 177 497 177 496 168 c 0,14,15
 489 90 489 90 419 43.5 c 128,-1,16
 349 -3 349 -3 240 -3 c 2,17,-1
 231 -3 l 1,18,-1
 209 -119 l 1,19,-1
 189 -119 l 1,20,-1
 211 -2 l 1,21,22
 151 4 151 4 97 29.5 c 128,-1,23
 43 55 43 55 8 95 c 1,24,-1
 24 110 l 1,25,26
 60 67 60 67 119 42 c 128,-1,27
 178 17 178 17 242 17 c 0,28,29
 342 17 342 17 405.5 58 c 128,-1,30
 469 99 469 99 476 168 c 0,31,32
 477 175 477 175 477 189 c 0,33,34
 477 237 477 237 452.5 267.5 c 128,-1,35
 428 298 428 298 393 314.5 c 128,-1,36
 358 331 358 331 297 351 c 0,37,38
 235 371 235 371 197.5 388.5 c 128,-1,39
 160 406 160 406 134 439 c 128,-1,40
 108 472 108 472 108 525 c 0,41,42
 108 539 108 539 109 546 c 0,43,44
 116 617 116 617 181.5 659.5 c 128,-1,45
 247 702 247 702 350 702 c 2,46,-1
 351 702 l 1,47,-1
 371 804 l 1,48,-1
 391 804 l 1,49,-1
 371 701 l 1,50,51
 415 699 415 699 458.5 685.5 c 128,-1,52
 502 672 502 672 533 651 c 1,53,-1
 521 635 l 1,54,55
 490 657 490 657 442.5 669.5 c 128,-1,56
 395 682 395 682 348 682 c 0,57,0
 255 682 255 682 195.5 645 c 128,-1,1
EndSplineSet
EndChar

StartChar: ampersand
Encoding: 38 38 10
Width: 638
Flags: W
LayerCount: 2
Fore
SplineSet
567 0 m 1,0,-1
 459 126 l 1,1,2
 345 0 345 0 227 0 c 0,3,4
 175 0 175 0 133.5 21 c 128,-1,5
 92 42 92 42 68.5 79.5 c 128,-1,6
 45 117 45 117 45 164 c 0,7,8
 45 217 45 217 72.5 257.5 c 128,-1,9
 100 298 100 298 142 327 c 128,-1,10
 184 356 184 356 248 389 c 1,11,12
 213 440 213 440 201.5 472 c 128,-1,13
 190 504 190 504 190 542 c 0,14,15
 190 585 190 585 213 621 c 128,-1,16
 236 657 236 657 275.5 678 c 128,-1,17
 315 699 315 699 362 699 c 0,18,19
 420 699 420 699 453 669 c 128,-1,20
 486 639 486 639 486 587 c 0,21,22
 486 539 486 539 458 502.5 c 128,-1,23
 430 466 430 466 389.5 441 c 128,-1,24
 349 416 349 416 279 381 c 1,25,26
 341 298 341 298 460 158 c 1,27,28
 512 221 512 221 563 312 c 1,29,-1
 580 298 l 1,30,31
 528 207 528 207 473 142 c 1,32,-1
 582 13 l 1,33,-1
 567 0 l 1,0,-1
220 476.5 m 128,-1,35
 230 448 230 448 266 398 c 1,36,37
 335 432 335 432 373.5 456 c 128,-1,38
 412 480 412 480 439 512.5 c 128,-1,39
 466 545 466 545 466 588 c 256,40,41
 466 631 466 631 438.5 655 c 128,-1,42
 411 679 411 679 362 679 c 0,43,44
 320 679 320 679 285 661 c 128,-1,45
 250 643 250 643 230 611 c 128,-1,46
 210 579 210 579 210 541 c 0,47,34
 210 505 210 505 220 476.5 c 128,-1,35
446 142 m 1,49,50
 311 302 311 302 260 371 c 1,51,52
 199 340 199 340 158 313 c 128,-1,53
 117 286 117 286 91 248.5 c 128,-1,54
 65 211 65 211 65 162 c 0,55,56
 65 100 65 100 110.5 60 c 128,-1,57
 156 20 156 20 227 20 c 0,58,48
 339 20 339 20 446 142 c 1,49,50
EndSplineSet
Substitution2: "<3,3> Small Caps in Latin lookup 11 subtable" ampersand.sc
EndChar

StartChar: quotesingle
Encoding: 39 39 11
Width: 140
Flags: W
LayerCount: 2
Fore
SplineSet
168 699 m 1,0,-1
 130 509 l 1,1,-1
 110 509 l 1,2,-1
 148 699 l 1,3,-1
 168 699 l 1,0,-1
EndSplineSet
Substitution2: "<3,3> Small Caps in Latin lookup 11 subtable" quotesingle.sc
EndChar

StartChar: parenleft
Encoding: 40 40 12
Width: 275
Flags: W
LayerCount: 2
Fore
SplineSet
209.5 548 m 128,-1,1
 158 436 158 436 132 307 c 0,2,3
 112 204 112 204 112 117 c 0,4,5
 112 -24 112 -24 159 -124 c 1,6,-1
 139 -124 l 1,7,8
 93 -26 93 -26 93 117 c 0,9,10
 93 214 93 214 113 311 c 0,11,12
 138 438 138 438 189.5 549.5 c 128,-1,13
 241 661 241 661 312 742 c 1,14,-1
 332 742 l 1,15,0
 261 660 261 660 209.5 548 c 128,-1,1
EndSplineSet
Substitution2: "'rtla' Right to Left Alternates lookup 0 subtable" parenright
EndChar

StartChar: parenright
Encoding: 41 41 13
Width: 276
Flags: W
LayerCount: 2
Fore
SplineSet
86.5 70 m 128,-1,1
 138 182 138 182 164 311 c 0,2,3
 184 414 184 414 184 501 c 0,4,5
 184 642 184 642 137 742 c 1,6,-1
 157 742 l 1,7,8
 203 644 203 644 203 501 c 0,9,10
 203 404 203 404 183 307 c 0,11,12
 158 180 158 180 106.5 68.5 c 128,-1,13
 55 -43 55 -43 -16 -124 c 1,14,-1
 -36 -124 l 1,15,0
 35 -42 35 -42 86.5 70 c 128,-1,1
EndSplineSet
Substitution2: "'rtla' Right to Left Alternates lookup 0 subtable" parenleft
EndChar

StartChar: asterisk
Encoding: 42 42 14
Width: 321
Flags: W
LayerCount: 2
Fore
SplineSet
337 515 m 1,0,-1
 236 574 l 1,1,-1
 236 457 l 1,2,-1
 218 457 l 1,3,-1
 218 574 l 1,4,-1
 117 515 l 1,5,-1
 108 532 l 1,6,-1
 208 590 l 1,7,-1
 108 648 l 1,8,-1
 117 665 l 1,9,-1
 218 606 l 1,10,-1
 218 723 l 1,11,-1
 236 723 l 1,12,-1
 236 606 l 1,13,-1
 337 665 l 1,14,-1
 346 648 l 1,15,-1
 245 590 l 1,16,-1
 346 532 l 1,17,-1
 337 515 l 1,0,-1
EndSplineSet
EndChar

StartChar: plus
Encoding: 43 43 15
Width: 480
Flags: W
LayerCount: 2
Fore
SplineSet
454 330 m 1,0,-1
 450 310 l 1,1,-1
 260 310 l 1,2,-1
 222 120 l 1,3,-1
 202 120 l 1,4,-1
 240 310 l 1,5,-1
 50 310 l 1,6,-1
 54 330 l 1,7,-1
 244 330 l 1,8,-1
 282 520 l 1,9,-1
 302 520 l 1,10,-1
 264 330 l 1,11,-1
 454 330 l 1,0,-1
EndSplineSet
EndChar

StartChar: comma
Encoding: 44 44 16
Width: 163
Flags: W
LayerCount: 2
Fore
SplineSet
54 38.5 m 128,-1,1
 61 32 61 32 61 22 c 0,2,3
 61 11 61 11 51 -7 c 2,4,-1
 -1 -110 l 1,5,-1
 -21 -110 l 1,6,-1
 26 -6 l 1,7,8
 19 -5 19 -5 14 2 c 128,-1,9
 9 9 9 9 9 17 c 0,10,11
 9 28 9 28 17.5 36.5 c 128,-1,12
 26 45 26 45 37 45 c 0,13,0
 47 45 47 45 54 38.5 c 128,-1,1
EndSplineSet
EndChar

StartChar: hyphen
Encoding: 45 45 17
Width: 357
Flags: W
LayerCount: 2
Fore
SplineSet
297 310 m 1,0,-1
 293 290 l 1,1,-1
 76 290 l 1,2,-1
 80 310 l 1,3,-1
 297 310 l 1,0,-1
EndSplineSet
EndChar

StartChar: period
Encoding: 46 46 18
Width: 171
Flags: W
LayerCount: 2
Fore
SplineSet
57.5 38.5 m 128,-1,1
 64 32 64 32 64 21 c 256,2,3
 64 10 64 10 55.5 1.5 c 128,-1,4
 47 -7 47 -7 36 -7 c 0,5,6
 26 -7 26 -7 19 0 c 128,-1,7
 12 7 12 7 12 17 c 0,8,9
 12 28 12 28 20.5 36.5 c 128,-1,10
 29 45 29 45 40 45 c 256,11,0
 51 45 51 45 57.5 38.5 c 128,-1,1
EndSplineSet
Substitution2: "<3,3> Small Caps in Latin lookup 11 subtable" period.sc
EndChar

StartChar: slash
Encoding: 47 47 19
Width: 348
Flags: W
LayerCount: 2
Fore
SplineSet
405 826 m 1,0,-1
 -1 -130 l 1,1,-1
 -22 -130 l 1,2,-1
 384 826 l 1,3,-1
 405 826 l 1,0,-1
EndSplineSet
Substitution2: "<11,2> Diagonal Fractions lookup 3 subtable" fraction
EndChar

StartChar: zero
Encoding: 48 48 20
Width: 845
Flags: W
LayerCount: 2
Fore
SplineSet
672.5 634.5 m 128,-1,1
 729 568 729 568 729 445 c 0,2,3
 729 313 729 313 686.5 211.5 c 128,-1,4
 644 110 644 110 563.5 54 c 128,-1,5
 483 -2 483 -2 372 -2 c 0,6,7
 265 -2 265 -2 208.5 64.5 c 128,-1,8
 152 131 152 131 152 254 c 0,9,10
 152 386 152 386 194.5 487 c 128,-1,11
 237 588 237 588 317.5 644.5 c 128,-1,12
 398 701 398 701 508 701 c 0,13,0
 616 701 616 701 672.5 634.5 c 128,-1,1
326 627.5 m 128,-1,15
 251 574 251 574 211.5 478.5 c 128,-1,16
 172 383 172 383 172 258 c 0,17,18
 172 143 172 143 224 80.5 c 128,-1,19
 276 18 276 18 375 18 c 0,20,21
 478 18 478 18 553.5 71.5 c 128,-1,22
 629 125 629 125 669 220.5 c 128,-1,23
 709 316 709 316 709 441 c 0,24,25
 709 556 709 556 656.5 618.5 c 128,-1,26
 604 681 604 681 504 681 c 0,27,14
 401 681 401 681 326 627.5 c 128,-1,15
EndSplineSet
Substitution2: "<21,0> Lower Case Numbers lookup 10 subtable" zero.osf
Substitution2: "<6,0> Monospaced Numbers lookup 9 subtable" zero.tf
Substitution2: "<11,2> Diagonal Fractions lookup 4 subtable" zero.numr
Substitution2: "<10,1> Superiors lookup 2 subtable" uni2070
Substitution2: "<10,2> Inferiors lookup 1 subtable" uni2080
EndChar

StartChar: one
Encoding: 49 49 21
Width: 447
Flags: W
LayerCount: 2
Fore
SplineSet
141 699 m 1,0,-1
 347 699 l 1,1,-1
 211 0 l 1,2,-1
 192 0 l 1,3,-1
 324 679 l 1,4,-1
 137 679 l 1,5,-1
 141 699 l 1,0,-1
EndSplineSet
Substitution2: "<21,0> Lower Case Numbers lookup 10 subtable" one.osf
Substitution2: "<6,0> Monospaced Numbers lookup 9 subtable" one.tf
Substitution2: "<11,2> Diagonal Fractions lookup 4 subtable" one.numr
Substitution2: "<10,1> Superiors lookup 2 subtable" uni00B9
Substitution2: "<10,2> Inferiors lookup 1 subtable" uni2081
EndChar

StartChar: two
Encoding: 50 50 22
Width: 653
Flags: W
LayerCount: 2
Fore
SplineSet
60 20 m 1,0,-1
 520 20 l 1,1,-1
 516 0 l 1,2,-1
 36 0 l 1,3,-1
 43 29 l 1,4,-1
 386 328 l 2,5,6
 548 468 548 468 548 562 c 0,7,8
 548 618 548 618 505.5 649.5 c 128,-1,9
 463 681 463 681 386 681 c 0,10,11
 332 681 332 681 274 658.5 c 128,-1,12
 216 636 216 636 168 596 c 1,13,-1
 157 610 l 1,14,15
 208 653 208 653 270 677 c 128,-1,16
 332 701 332 701 390 701 c 0,17,18
 474 701 474 701 521.5 664.5 c 128,-1,19
 569 628 569 628 569 565 c 0,20,21
 569 464 569 464 397 314 c 2,22,-1
 60 20 l 1,0,-1
EndSplineSet
Substitution2: "<21,0> Lower Case Numbers lookup 10 subtable" two.osf
Substitution2: "<6,0> Monospaced Numbers lookup 9 subtable" two.tf
Substitution2: "<11,2> Diagonal Fractions lookup 4 subtable" two.numr
Substitution2: "<10,1> Superiors lookup 2 subtable" uni00B2
Substitution2: "<10,2> Inferiors lookup 1 subtable" uni2082
EndChar

StartChar: three
Encoding: 51 51 23
Width: 668
Flags: W
LayerCount: 2
Fore
SplineSet
602 681 m 1,0,-1
 270 394 l 1,1,-1
 319 394 l 2,2,3
 427 394 427 394 489 352.5 c 128,-1,4
 551 311 551 311 551 238 c 0,5,6
 551 170 551 170 512.5 115.5 c 128,-1,7
 474 61 474 61 404 29.5 c 128,-1,8
 334 -2 334 -2 245 -2 c 0,9,10
 186 -2 186 -2 130.5 14 c 128,-1,11
 75 30 75 30 35 57 c 1,12,-1
 50 73 l 1,13,14
 87 48 87 48 140 33 c 128,-1,15
 193 18 193 18 249 18 c 0,16,17
 332 18 332 18 396 46.5 c 128,-1,18
 460 75 460 75 495 124 c 128,-1,19
 530 173 530 173 530 233 c 0,20,21
 530 302 530 302 474.5 338 c 128,-1,22
 419 374 419 374 316 374 c 2,23,-1
 238 374 l 1,24,-1
 241 392 l 1,25,-1
 575 679 l 1,26,-1
 187 679 l 1,27,-1
 191 699 l 1,28,-1
 606 699 l 1,29,-1
 602 681 l 1,0,-1
EndSplineSet
Substitution2: "<21,0> Lower Case Numbers lookup 10 subtable" three.osf
Substitution2: "<6,0> Monospaced Numbers lookup 9 subtable" three.tf
Substitution2: "<11,2> Diagonal Fractions lookup 4 subtable" three.numr
Substitution2: "<10,1> Superiors lookup 2 subtable" uni00B3
Substitution2: "<10,2> Inferiors lookup 1 subtable" uni2083
EndChar

StartChar: four
Encoding: 52 52 24
Width: 667
Flags: W
LayerCount: 2
Fore
SplineSet
583 228 m 1,0,-1
 579 208 l 1,1,-1
 458 208 l 1,2,-1
 418 0 l 1,3,-1
 398 0 l 1,4,-1
 438 208 l 1,5,-1
 72 208 l 1,6,-1
 77 233 l 1,7,-1
 459 699 l 1,8,-1
 482 699 l 1,9,-1
 97 228 l 1,10,-1
 442 228 l 1,11,-1
 486 452 l 1,12,-1
 506 452 l 1,13,-1
 462 228 l 1,14,-1
 583 228 l 1,0,-1
EndSplineSet
Substitution2: "<21,0> Lower Case Numbers lookup 10 subtable" four.osf
Substitution2: "<6,0> Monospaced Numbers lookup 9 subtable" four.tf
Substitution2: "<11,2> Diagonal Fractions lookup 4 subtable" four.numr
Substitution2: "<10,1> Superiors lookup 2 subtable" uni2074
Substitution2: "<10,2> Inferiors lookup 1 subtable" uni2084
EndChar

StartChar: five
Encoding: 53 53 25
Width: 717
Flags: W
LayerCount: 2
Fore
SplineSet
272 679 m 1,0,-1
 216 389 l 1,1,2
 259 402 259 402 305.5 409.5 c 128,-1,3
 352 417 352 417 388 417 c 0,4,5
 485 417 485 417 541 372.5 c 128,-1,6
 597 328 597 328 597 254 c 0,7,8
 597 181 597 181 559.5 122.5 c 128,-1,9
 522 64 522 64 455.5 31 c 128,-1,10
 389 -2 389 -2 305 -2 c 0,11,12
 249 -2 249 -2 190 16.5 c 128,-1,13
 131 35 131 35 86 66 c 1,14,-1
 99 82 l 1,15,16
 142 53 142 53 199 35.5 c 128,-1,17
 256 18 256 18 308 18 c 0,18,19
 386 18 386 18 447 48 c 128,-1,20
 508 78 508 78 542.5 131 c 128,-1,21
 577 184 577 184 577 250 c 0,22,23
 577 317 577 317 525 357 c 128,-1,24
 473 397 473 397 384 397 c 0,25,26
 343 397 343 397 290 387 c 128,-1,27
 237 377 237 377 190 361 c 1,28,-1
 256 699 l 1,29,-1
 659 699 l 1,30,-1
 655 679 l 1,31,-1
 272 679 l 1,0,-1
EndSplineSet
Substitution2: "<21,0> Lower Case Numbers lookup 10 subtable" five.osf
Substitution2: "<6,0> Monospaced Numbers lookup 9 subtable" five.tf
Substitution2: "<11,2> Diagonal Fractions lookup 4 subtable" five.numr
Substitution2: "<10,1> Superiors lookup 2 subtable" uni2075
Substitution2: "<10,2> Inferiors lookup 1 subtable" uni2085
EndChar

StartChar: six
Encoding: 54 54 26
Width: 758
Flags: W
LayerCount: 2
Fore
SplineSet
209 62 m 128,-1,1
 150 126 150 126 150 245 c 0,2,3
 150 371 150 371 193.5 475.5 c 128,-1,4
 237 580 237 580 312 640.5 c 128,-1,5
 387 701 387 701 477 701 c 0,6,7
 523 701 523 701 574.5 686.5 c 128,-1,8
 626 672 626 672 670 647 c 1,9,-1
 657 629 l 1,10,11
 619 653 619 653 571 667 c 128,-1,12
 523 681 523 681 479 681 c 0,13,14
 394 681 394 681 328 630.5 c 128,-1,15
 262 580 262 580 221 485 c 128,-1,16
 180 390 180 390 169 259 c 1,17,18
 199 343 199 343 266 390 c 128,-1,19
 333 437 333 437 423 437 c 0,20,21
 520 437 520 437 575 388.5 c 128,-1,22
 630 340 630 340 630 256 c 0,23,24
 630 181 630 181 598 122.5 c 128,-1,25
 566 64 566 64 509 31 c 128,-1,26
 452 -2 452 -2 379 -2 c 0,27,0
 268 -2 268 -2 209 62 c 128,-1,1
496 49 m 128,-1,29
 549 79 549 79 579 132.5 c 128,-1,30
 609 186 609 186 609 254 c 0,31,32
 609 329 609 329 559.5 373 c 128,-1,33
 510 417 510 417 425 417 c 0,34,35
 359 417 359 417 302 387 c 128,-1,36
 245 357 245 357 211.5 306 c 128,-1,37
 178 255 178 255 178 196 c 0,38,39
 178 145 178 145 203 104.5 c 128,-1,40
 228 64 228 64 273 41.5 c 128,-1,41
 318 19 318 19 375 19 c 0,42,28
 443 19 443 19 496 49 c 128,-1,29
EndSplineSet
Substitution2: "<21,0> Lower Case Numbers lookup 10 subtable" six.osf
Substitution2: "<6,0> Monospaced Numbers lookup 9 subtable" six.tf
Substitution2: "<11,2> Diagonal Fractions lookup 4 subtable" six.numr
Substitution2: "<10,1> Superiors lookup 2 subtable" uni2076
Substitution2: "<10,2> Inferiors lookup 1 subtable" uni2086
EndChar

StartChar: seven
Encoding: 55 55 27
Width: 642
Flags: W
LayerCount: 2
Fore
SplineSet
166 699 m 1,0,-1
 659 699 l 1,1,-1
 654 674 l 1,2,-1
 181 0 l 1,3,-1
 159 0 l 1,4,-1
 637 679 l 1,5,-1
 182 679 l 1,6,-1
 160 567 l 1,7,-1
 140 567 l 1,8,-1
 166 699 l 1,0,-1
EndSplineSet
Substitution2: "<21,0> Lower Case Numbers lookup 10 subtable" seven.osf
Substitution2: "<6,0> Monospaced Numbers lookup 9 subtable" seven.tf
Substitution2: "<11,2> Diagonal Fractions lookup 4 subtable" seven.numr
Substitution2: "<10,1> Superiors lookup 2 subtable" uni2077
Substitution2: "<10,2> Inferiors lookup 1 subtable" uni2087
EndChar

StartChar: eight
Encoding: 56 56 28
Width: 767
Flags: W
LayerCount: 2
Fore
SplineSet
605 665 m 128,-1,1
 653 629 653 629 653 564 c 0,2,3
 653 493 653 493 610 446 c 128,-1,4
 567 399 567 399 487 376 c 1,5,6
 550 360 550 360 585 321.5 c 128,-1,7
 620 283 620 283 620 226 c 0,8,9
 620 157 620 157 584.5 105.5 c 128,-1,10
 549 54 549 54 484 26 c 128,-1,11
 419 -2 419 -2 334 -2 c 0,12,13
 234 -2 234 -2 178.5 40.5 c 128,-1,14
 123 83 123 83 123 160 c 0,15,16
 123 244 123 244 177 299 c 128,-1,17
 231 354 231 354 326 376 c 1,18,19
 276 392 276 392 249 425 c 128,-1,20
 222 458 222 458 222 506 c 0,21,22
 222 565 222 565 253 609 c 128,-1,23
 284 653 284 653 340 677 c 128,-1,24
 396 701 396 701 470 701 c 0,25,0
 557 701 557 701 605 665 c 128,-1,1
304 634 m 128,-1,27
 243 587 243 587 243 508 c 0,28,29
 243 450 243 450 286.5 416.5 c 128,-1,30
 330 383 330 383 408 383 c 0,31,32
 510 383 510 383 571 430.5 c 128,-1,33
 632 478 632 478 632 558 c 0,34,35
 632 615 632 615 588.5 648 c 128,-1,36
 545 681 545 681 466 681 c 0,37,26
 365 681 365 681 304 634 c 128,-1,27
268 338.5 m 128,-1,39
 209 314 209 314 176 269.5 c 128,-1,40
 143 225 143 225 143 166 c 0,41,42
 143 97 143 97 194 57.5 c 128,-1,43
 245 18 245 18 337 18 c 0,44,45
 415 18 415 18 474.5 43.5 c 128,-1,46
 534 69 534 69 566.5 115 c 128,-1,47
 599 161 599 161 599 222 c 0,48,49
 599 287 599 287 547.5 325 c 128,-1,50
 496 363 496 363 404 363 c 0,51,38
 327 363 327 363 268 338.5 c 128,-1,39
EndSplineSet
Substitution2: "<21,0> Lower Case Numbers lookup 10 subtable" eight.osf
Substitution2: "<6,0> Monospaced Numbers lookup 9 subtable" eight.tf
Substitution2: "<11,2> Diagonal Fractions lookup 4 subtable" eight.numr
Substitution2: "<10,1> Superiors lookup 2 subtable" uni2078
Substitution2: "<10,2> Inferiors lookup 1 subtable" uni2088
EndChar

StartChar: nine
Encoding: 57 57 29
Width: 757
Flags: W
LayerCount: 2
Fore
SplineSet
222 32 m 128,-1,1
 270 18 270 18 314 18 c 0,2,3
 399 18 399 18 465 68.5 c 128,-1,4
 531 119 531 119 572 214 c 128,-1,5
 613 309 613 309 624 440 c 1,6,7
 594 356 594 356 527 309 c 128,-1,8
 460 262 460 262 370 262 c 0,9,10
 273 262 273 262 218 310.5 c 128,-1,11
 163 359 163 359 163 443 c 0,12,13
 163 518 163 518 195 576.5 c 128,-1,14
 227 635 227 635 284 668 c 128,-1,15
 341 701 341 701 414 701 c 0,16,17
 525 701 525 701 584 637 c 128,-1,18
 643 573 643 573 643 454 c 0,19,20
 643 328 643 328 599.5 223.5 c 128,-1,21
 556 119 556 119 481 58.5 c 128,-1,22
 406 -2 406 -2 316 -2 c 0,23,24
 270 -2 270 -2 218.5 12.5 c 128,-1,25
 167 27 167 27 123 52 c 1,26,-1
 136 70 l 1,27,0
 174 46 174 46 222 32 c 128,-1,1
297 650 m 128,-1,29
 244 620 244 620 214 566.5 c 128,-1,30
 184 513 184 513 184 445 c 0,31,32
 184 370 184 370 233.5 326 c 128,-1,33
 283 282 283 282 368 282 c 0,34,35
 434 282 434 282 491 312 c 128,-1,36
 548 342 548 342 581.5 393 c 128,-1,37
 615 444 615 444 615 503 c 0,38,39
 615 554 615 554 590 594.5 c 128,-1,40
 565 635 565 635 520 657.5 c 128,-1,41
 475 680 475 680 418 680 c 0,42,28
 350 680 350 680 297 650 c 128,-1,29
EndSplineSet
Substitution2: "<21,0> Lower Case Numbers lookup 10 subtable" nine.osf
Substitution2: "<6,0> Monospaced Numbers lookup 9 subtable" nine.tf
Substitution2: "<11,2> Diagonal Fractions lookup 4 subtable" nine.numr
Substitution2: "<10,1> Superiors lookup 2 subtable" uni2079
Substitution2: "<10,2> Inferiors lookup 1 subtable" uni2089
EndChar

StartChar: less
Encoding: 60 60 32
Width: 480
Flags: W
LayerCount: 2
Fore
SplineSet
493 527 m 1,0,-1
 489 504 l 1,1,-1
 73 327 l 1,2,-1
 418 150 l 1,3,-1
 414 129 l 1,4,-1
 51 315 l 1,5,-1
 56 341 l 1,6,-1
 493 527 l 1,0,-1
EndSplineSet
Substitution2: "'rtla' Right to Left Alternates lookup 0 subtable" greater
EndChar

StartChar: equal
Encoding: 61 61 33
Width: 480
Flags: W
LayerCount: 2
Fore
SplineSet
474 430 m 1,0,-1
 470 410 l 1,1,-1
 70 410 l 1,2,-1
 74 430 l 1,3,-1
 474 430 l 1,0,-1
434 230 m 1,4,-1
 430 210 l 1,5,-1
 30 210 l 1,6,-1
 34 230 l 1,7,-1
 434 230 l 1,4,-1
EndSplineSet
EndChar

StartChar: greater
Encoding: 62 62 34
Width: 481
Flags: W
LayerCount: 2
Fore
SplineSet
15 129 m 1,0,-1
 19 152 l 1,1,-1
 435 329 l 1,2,-1
 90 506 l 1,3,-1
 94 527 l 1,4,-1
 457 341 l 1,5,-1
 452 315 l 1,6,-1
 15 129 l 1,0,-1
EndSplineSet
Substitution2: "'rtla' Right to Left Alternates lookup 0 subtable" less
EndChar

StartChar: question
Encoding: 63 63 35
Width: 398
Flags: W
LayerCount: 2
Fore
SplineSet
123.5 641 m 128,-1,1
 173 679 173 679 249 679 c 0,2,3
 324 679 324 679 367.5 642 c 128,-1,4
 411 605 411 605 411 539 c 0,5,6
 411 502 411 502 397.5 471.5 c 128,-1,7
 384 441 384 441 364 417.5 c 128,-1,8
 344 394 344 394 311 361 c 0,9,10
 265 315 265 315 242 282 c 128,-1,11
 219 249 219 249 218 206 c 1,12,-1
 198 206 l 1,13,14
 199 253 199 253 223 288 c 128,-1,15
 247 323 247 323 294 370 c 0,16,17
 343 419 343 419 367 455 c 128,-1,18
 391 491 391 491 391 540 c 0,19,20
 391 597 391 597 353.5 628 c 128,-1,21
 316 659 316 659 249 659 c 0,22,23
 180 659 180 659 137 626.5 c 128,-1,24
 94 594 94 594 84 534 c 1,25,-1
 64 536 l 1,26,0
 74 603 74 603 123.5 641 c 128,-1,1
199.5 38.5 m 128,-1,28
 206 32 206 32 206 21 c 256,29,30
 206 10 206 10 197.5 1.5 c 128,-1,31
 189 -7 189 -7 178 -7 c 0,32,33
 168 -7 168 -7 161 0 c 128,-1,34
 154 7 154 7 154 17 c 0,35,36
 154 28 154 28 162.5 36.5 c 128,-1,37
 171 45 171 45 182 45 c 256,38,27
 193 45 193 45 199.5 38.5 c 128,-1,28
EndSplineSet
Substitution2: "<3,3> Small Caps in Latin lookup 11 subtable" question.sc
EndChar

StartChar: at
Encoding: 64 64 36
Width: 1010
Flags: W
LayerCount: 2
Fore
SplineSet
776.5 672.5 m 128,-1,1
 865 624 865 624 914 536 c 128,-1,2
 963 448 963 448 963 334 c 0,3,4
 963 240 963 240 937 159.5 c 128,-1,5
 911 79 911 79 866.5 31.5 c 128,-1,6
 822 -16 822 -16 770 -16 c 0,7,8
 733 -16 733 -16 712 8 c 128,-1,9
 691 32 691 32 691 73 c 0,10,11
 691 86 691 86 692 93 c 2,12,-1
 700 159 l 1,13,14
 662 88 662 88 594.5 47 c 128,-1,15
 527 6 527 6 447 6 c 0,16,17
 382 6 382 6 332 33.5 c 128,-1,18
 282 61 282 61 254.5 110.5 c 128,-1,19
 227 160 227 160 227 224 c 0,20,21
 227 307 227 307 266 376.5 c 128,-1,22
 305 446 305 446 371.5 486.5 c 128,-1,23
 438 527 438 527 518 527 c 256,24,25
 598 527 598 527 654.5 485.5 c 128,-1,26
 711 444 711 444 730 372 c 1,27,-1
 752 525 l 1,28,-1
 772 525 l 1,29,-1
 712 95 l 2,30,31
 710 81 710 81 710 74 c 0,32,33
 710 41 710 41 726.5 22.5 c 128,-1,34
 743 4 743 4 773 4 c 0,35,36
 817 4 817 4 856.5 50 c 128,-1,37
 896 96 896 96 920 171.5 c 128,-1,38
 944 247 944 247 944 332 c 0,39,40
 944 441 944 441 897.5 524.5 c 128,-1,41
 851 608 851 608 767 654.5 c 128,-1,42
 683 701 683 701 573 701 c 0,43,44
 436 701 436 701 320 632.5 c 128,-1,45
 204 564 204 564 136 448 c 128,-1,46
 68 332 68 332 68 195 c 0,47,48
 68 91 68 91 114.5 11 c 128,-1,49
 161 -69 161 -69 244.5 -113.5 c 128,-1,50
 328 -158 328 -158 437 -158 c 0,51,52
 479 -158 479 -158 531.5 -145.5 c 128,-1,53
 584 -133 584 -133 622 -114 c 1,54,-1
 628 -132 l 1,55,56
 591 -152 591 -152 536.5 -165 c 128,-1,57
 482 -178 482 -178 436 -178 c 0,58,59
 322 -178 322 -178 234 -131 c 128,-1,60
 146 -84 146 -84 97 0.5 c 128,-1,61
 48 85 48 85 48 194 c 0,62,63
 48 338 48 338 118.5 459 c 128,-1,64
 189 580 189 580 309.5 650.5 c 128,-1,65
 430 721 430 721 573 721 c 0,66,0
 688 721 688 721 776.5 672.5 c 128,-1,1
382 469 m 128,-1,68
 320 431 320 431 283 366.5 c 128,-1,69
 246 302 246 302 246 226 c 0,70,71
 246 167 246 167 271.5 121.5 c 128,-1,72
 297 76 297 76 342.5 51 c 128,-1,73
 388 26 388 26 448 26 c 0,74,75
 521 26 521 26 583.5 64 c 128,-1,76
 646 102 646 102 682.5 166 c 128,-1,77
 719 230 719 230 719 306 c 0,78,79
 719 365 719 365 693.5 411 c 128,-1,80
 668 457 668 457 622 482 c 128,-1,81
 576 507 576 507 517 507 c 0,82,67
 444 507 444 507 382 469 c 128,-1,68
EndSplineSet
EndChar

StartChar: A
Encoding: 65 65 37
Width: 686
Flags: W
LayerCount: 2
Fore
SplineSet
601 0 m 1,0,-1
 538 213 l 1,1,-1
 114 213 l 1,2,-1
 -18 0 l 1,3,-1
 -42 0 l 1,4,-1
 394 699 l 1,5,-1
 416 699 l 1,6,-1
 624 0 l 1,7,-1
 601 0 l 1,0,-1
126 233 m 1,8,-1
 532 233 l 1,9,-1
 401 676 l 1,10,-1
 126 233 l 1,8,-1
EndSplineSet
Substitution2: "<11,2> Diagonal Fractions lookup 7 nested-substitutions 0 subtable" ordfeminine
Substitution2: "<11,2> Diagonal Fractions lookup 5 nested-substitutions 0 subtable" ordfeminine
EndChar

StartChar: B
Encoding: 66 66 38
Width: 733
Flags: W
LayerCount: 2
Fore
SplineSet
611.5 318 m 128,-1,1
 649 280 649 280 649 220 c 0,2,3
 649 118 649 118 571 59 c 128,-1,4
 493 0 493 0 357 0 c 2,5,-1
 76 0 l 1,6,-1
 216 699 l 1,7,-1
 497 699 l 2,8,9
 584 699 584 699 631.5 662 c 128,-1,10
 679 625 679 625 679 559 c 0,11,12
 679 482 679 482 632.5 429.5 c 128,-1,13
 586 377 586 377 505 364 c 1,14,0
 574 356 574 356 611.5 318 c 128,-1,1
171 372 m 1,15,-1
 431 372 l 2,16,17
 537 372 537 372 598 421 c 128,-1,18
 659 470 659 470 659 554 c 0,19,20
 659 614 659 614 616 646.5 c 128,-1,21
 573 679 573 679 493 679 c 2,22,-1
 232 679 l 1,23,-1
 171 372 l 1,15,-1
558 72.5 m 128,-1,25
 629 125 629 125 629 216 c 0,26,27
 629 282 629 282 577 317.5 c 128,-1,28
 525 353 525 353 428 353 c 2,29,-1
 167 353 l 1,30,-1
 100 20 l 1,31,-1
 361 20 l 2,32,24
 487 20 487 20 558 72.5 c 128,-1,25
EndSplineSet
EndChar

StartChar: C
Encoding: 67 67 39
Width: 732
Flags: W
LayerCount: 2
Fore
SplineSet
591.5 679 m 128,-1,1
 651 655 651 655 695 612 c 1,2,-1
 681 599 l 1,3,4
 639 640 639 640 583 662 c 128,-1,5
 527 684 527 684 463 684 c 0,6,7
 370 684 370 684 287.5 639 c 128,-1,8
 205 594 205 594 152 517.5 c 128,-1,9
 99 441 99 441 90 350 c 0,10,11
 88 328 88 328 88 318 c 0,12,13
 88 235 88 235 128.5 165.5 c 128,-1,14
 169 96 169 96 239 56 c 128,-1,15
 309 16 309 16 395 16 c 0,16,17
 460 16 460 16 521 38.5 c 128,-1,18
 582 61 582 61 631 102 c 1,19,-1
 644 89 l 1,20,21
 590 45 590 45 526 21 c 128,-1,22
 462 -3 462 -3 395 -3 c 0,23,24
 304 -3 304 -3 229 39.5 c 128,-1,25
 154 82 154 82 111.5 156 c 128,-1,26
 69 230 69 230 69 318 c 0,27,28
 69 328 69 328 71 352 c 0,29,30
 80 447 80 447 136.5 527.5 c 128,-1,31
 193 608 193 608 280 655.5 c 128,-1,32
 367 703 367 703 463 703 c 0,33,0
 532 703 532 703 591.5 679 c 128,-1,1
EndSplineSet
EndChar

StartChar: D
Encoding: 68 68 40
Width: 812
Flags: W
LayerCount: 2
Fore
SplineSet
632.5 660 m 128,-1,1
 703 621 703 621 743 553 c 128,-1,2
 783 485 783 485 783 401 c 0,3,4
 783 372 783 372 779 348 c 0,5,6
 765 254 765 254 704.5 174 c 128,-1,7
 644 94 644 94 555 47 c 128,-1,8
 466 0 466 0 369 0 c 2,9,-1
 77 0 l 1,10,-1
 216 699 l 1,11,-1
 474 699 l 2,12,0
 562 699 562 699 632.5 660 c 128,-1,1
764 397 m 0,14,15
 764 476 764 476 726 540.5 c 128,-1,16
 688 605 688 605 621.5 642 c 128,-1,17
 555 679 555 679 471 679 c 2,18,-1
 232 679 l 1,19,-1
 101 20 l 1,20,-1
 372 20 l 2,21,22
 463 20 463 20 547.5 64.5 c 128,-1,23
 632 109 632 109 689 184.5 c 128,-1,24
 746 260 746 260 760 350 c 0,25,13
 764 382 764 382 764 397 c 0,14,15
EndSplineSet
EndChar

StartChar: E
Encoding: 69 69 41
Width: 644
Flags: W
LayerCount: 2
Fore
SplineSet
649 679 m 1,0,-1
 232 679 l 1,1,-1
 170 370 l 1,2,-1
 541 370 l 1,3,-1
 537 350 l 1,4,-1
 166 350 l 1,5,-1
 100 20 l 1,6,-1
 531 20 l 1,7,-1
 527 0 l 1,8,-1
 76 0 l 1,9,-1
 216 699 l 1,10,-1
 653 699 l 1,11,-1
 649 679 l 1,0,-1
EndSplineSet
EndChar

StartChar: F
Encoding: 70 70 42
Width: 545
Flags: W
LayerCount: 2
Fore
SplineSet
619 679 m 1,0,-1
 232 679 l 1,1,-1
 165 343 l 1,2,-1
 506 343 l 1,3,-1
 502 323 l 1,4,-1
 161 323 l 1,5,-1
 96 0 l 1,6,-1
 76 0 l 1,7,-1
 216 699 l 1,8,-1
 623 699 l 1,9,-1
 619 679 l 1,0,-1
EndSplineSet
EndChar

StartChar: G
Encoding: 71 71 43
Width: 775
Flags: W
LayerCount: 2
Fore
SplineSet
445 358 m 1,0,-1
 686 358 l 1,1,-1
 632 89 l 1,2,3
 577 44 577 44 519 20.5 c 128,-1,4
 461 -3 461 -3 395 -3 c 0,5,6
 304 -3 304 -3 229 39.5 c 128,-1,7
 154 82 154 82 111.5 156 c 128,-1,8
 69 230 69 230 69 318 c 0,9,10
 69 328 69 328 71 352 c 0,11,12
 80 447 80 447 136.5 527.5 c 128,-1,13
 193 608 193 608 280 655.5 c 128,-1,14
 367 703 367 703 463 703 c 0,15,16
 532 703 532 703 591.5 679 c 128,-1,17
 651 655 651 655 695 612 c 1,18,-1
 681 599 l 1,19,20
 639 640 639 640 583 662 c 128,-1,21
 527 684 527 684 463 684 c 0,22,23
 370 684 370 684 287.5 639 c 128,-1,24
 205 594 205 594 152 517.5 c 128,-1,25
 99 441 99 441 90 350 c 0,26,27
 88 328 88 328 88 318 c 0,28,29
 88 235 88 235 128.5 165.5 c 128,-1,30
 169 96 169 96 239 56 c 128,-1,31
 309 16 309 16 395 16 c 0,32,33
 512 16 512 16 614 97 c 1,34,-1
 662 338 l 1,35,-1
 441 338 l 1,36,-1
 445 358 l 1,0,-1
EndSplineSet
EndChar

StartChar: H
Encoding: 72 72 44
Width: 931
Flags: W
LayerCount: 2
Fore
SplineSet
805 699 m 1,0,-1
 825 699 l 1,1,-1
 685 0 l 1,2,-1
 665 0 l 1,3,-1
 734 343 l 1,4,-1
 231 343 l 1,5,-1
 162 0 l 1,6,-1
 142 0 l 1,7,-1
 282 699 l 1,8,-1
 302 699 l 1,9,-1
 235 363 l 1,10,-1
 738 363 l 1,11,-1
 805 699 l 1,0,-1
EndSplineSet
EndChar

StartChar: I
Encoding: 73 73 45
Width: 276
Flags: W
LayerCount: 2
Fore
SplineSet
235 699 m 1,0,-1
 95 0 l 1,1,-1
 75 0 l 1,2,-1
 215 699 l 1,3,-1
 235 699 l 1,0,-1
EndSplineSet
EndChar

StartChar: J
Encoding: 74 74 46
Width: 459
Flags: W
LayerCount: 2
Fore
SplineSet
437 699 m 1,0,-1
 337 197 l 2,1,2
 317 102 317 102 262.5 51 c 128,-1,3
 208 0 208 0 125 0 c 0,4,5
 74 0 74 0 34 25.5 c 128,-1,6
 -6 51 -6 51 -29 98 c 1,7,-1
 -12 112 l 1,8,9
 10 67 10 67 46 43.5 c 128,-1,10
 82 20 82 20 129 20 c 0,11,12
 203 20 203 20 251.5 65.5 c 128,-1,13
 300 111 300 111 317 197 c 2,14,-1
 413 679 l 1,15,-1
 151 679 l 1,16,-1
 155 699 l 1,17,-1
 437 699 l 1,0,-1
EndSplineSet
EndChar

StartChar: K
Encoding: 75 75 47
Width: 670
Flags: W
LayerCount: 2
Fore
SplineSet
706 699 m 1,0,-1
 353 384 l 1,1,-1
 588 0 l 1,2,-1
 564 0 l 1,3,-1
 337 370 l 1,4,-1
 134 189 l 1,5,-1
 96 0 l 1,6,-1
 76 0 l 1,7,-1
 216 699 l 1,8,-1
 236 699 l 1,9,-1
 140 222 l 1,10,-1
 676 699 l 1,11,-1
 706 699 l 1,0,-1
EndSplineSet
EndChar

StartChar: L
Encoding: 76 76 48
Width: 491
Flags: W
LayerCount: 2
Fore
SplineSet
100 20 m 1,0,-1
 413 20 l 1,1,-1
 409 0 l 1,2,-1
 76 0 l 1,3,-1
 216 699 l 1,4,-1
 236 699 l 1,5,-1
 100 20 l 1,0,-1
EndSplineSet
EndChar

StartChar: M
Encoding: 77 77 49
Width: 938
Flags: W
LayerCount: 2
Fore
SplineSet
858 699 m 1,0,-1
 893 699 l 1,1,-1
 757 0 l 1,2,-1
 737 0 l 1,3,-1
 868 681 l 1,4,-1
 434 77 l 1,5,-1
 432 77 l 1,6,-1
 231 680 l 1,7,-1
 99 0 l 1,8,-1
 79 0 l 1,9,-1
 215 699 l 1,10,-1
 250 699 l 1,11,-1
 442 120 l 1,12,-1
 858 699 l 1,0,-1
EndSplineSet
EndChar

StartChar: N
Encoding: 78 78 50
Width: 799
Flags: W
LayerCount: 2
Fore
SplineSet
739 699 m 1,0,-1
 759 699 l 1,1,-1
 619 0 l 1,2,-1
 589 0 l 1,3,-1
 232 679 l 1,4,-1
 96 0 l 1,5,-1
 76 0 l 1,6,-1
 216 699 l 1,7,-1
 246 699 l 1,8,-1
 603 20 l 1,9,-1
 739 699 l 1,0,-1
EndSplineSet
EndChar

StartChar: O
Encoding: 79 79 51
Width: 822
Flags: W
LayerCount: 2
Fore
SplineSet
629.5 660.5 m 128,-1,1
 705 618 705 618 748 544.5 c 128,-1,2
 791 471 791 471 791 383 c 0,3,4
 791 371 791 371 789 349 c 0,5,6
 780 255 780 255 723 174 c 128,-1,7
 666 93 666 93 578.5 45 c 128,-1,8
 491 -3 491 -3 395 -3 c 0,9,10
 304 -3 304 -3 229 39.5 c 128,-1,11
 154 82 154 82 111.5 156 c 128,-1,12
 69 230 69 230 69 318 c 0,13,14
 69 328 69 328 71 352 c 0,15,16
 80 447 80 447 136.5 527.5 c 128,-1,17
 193 608 193 608 280 655.5 c 128,-1,18
 367 703 367 703 463 703 c 0,19,0
 554 703 554 703 629.5 660.5 c 128,-1,1
288.5 638 m 128,-1,21
 206 593 206 593 153 516.5 c 128,-1,22
 100 440 100 440 91 350 c 0,23,24
 89 328 89 328 89 318 c 0,25,26
 89 235 89 235 129 166 c 128,-1,27
 169 97 169 97 239.5 57 c 128,-1,28
 310 17 310 17 395 17 c 0,29,30
 487 17 487 17 570 62 c 128,-1,31
 653 107 653 107 706.5 184 c 128,-1,32
 760 261 760 261 769 351 c 0,33,34
 771 373 771 373 771 383 c 0,35,36
 771 465 771 465 730.5 534 c 128,-1,37
 690 603 690 603 619.5 643 c 128,-1,38
 549 683 549 683 463 683 c 0,39,20
 371 683 371 683 288.5 638 c 128,-1,21
EndSplineSet
Substitution2: "<11,2> Diagonal Fractions lookup 7 nested-substitutions 0 subtable" ordmasculine
Substitution2: "<11,2> Diagonal Fractions lookup 5 nested-substitutions 0 subtable" ordmasculine
EndChar

StartChar: P
Encoding: 80 80 52
Width: 675
Flags: W
LayerCount: 2
Fore
SplineSet
621.5 651.5 m 128,-1,1
 680 604 680 604 680 517 c 0,2,3
 680 433 680 433 641.5 370.5 c 128,-1,4
 603 308 603 308 531 274 c 128,-1,5
 459 240 459 240 361 240 c 2,6,-1
 144 240 l 1,7,-1
 96 0 l 1,8,-1
 76 0 l 1,9,-1
 216 699 l 1,10,-1
 453 699 l 2,11,0
 563 699 563 699 621.5 651.5 c 128,-1,1
522.5 291 m 128,-1,13
 589 322 589 322 624.5 378.5 c 128,-1,14
 660 435 660 435 660 512 c 0,15,16
 660 592 660 592 605.5 635.5 c 128,-1,17
 551 679 551 679 449 679 c 2,18,-1
 232 679 l 1,19,-1
 148 260 l 1,20,-1
 365 260 l 2,21,12
 456 260 456 260 522.5 291 c 128,-1,13
EndSplineSet
EndChar

StartChar: Q
Encoding: 81 81 53
Width: 826
Flags: W
LayerCount: 2
Fore
SplineSet
808 -48 m 1,0,1
 728 -124 728 -124 648 -124 c 0,2,3
 549 -124 549 -124 433 -1 c 1,4,5
 407 -3 407 -3 395 -3 c 0,6,7
 304 -3 304 -3 229 39.5 c 128,-1,8
 154 82 154 82 111.5 156 c 128,-1,9
 69 230 69 230 69 318 c 0,10,11
 69 328 69 328 71 352 c 0,12,13
 80 447 80 447 136.5 527.5 c 128,-1,14
 193 608 193 608 280 655.5 c 128,-1,15
 367 703 367 703 463 703 c 0,16,17
 554 703 554 703 629.5 660.5 c 128,-1,18
 705 618 705 618 748 544.5 c 128,-1,19
 791 471 791 471 791 383 c 0,20,21
 791 371 791 371 789 349 c 0,22,23
 781 265 781 265 734 191 c 128,-1,24
 687 117 687 117 614 67 c 128,-1,25
 541 17 541 17 457 2 c 1,26,27
 511 -52 511 -52 557.5 -78.5 c 128,-1,28
 604 -105 604 -105 648 -105 c 0,29,30
 718 -105 718 -105 794 -34 c 1,31,-1
 808 -48 l 1,0,1
89 318 m 0,33,34
 89 235 89 235 129 166 c 128,-1,35
 169 97 169 97 239.5 57 c 128,-1,36
 310 17 310 17 395 17 c 0,37,38
 487 17 487 17 570 62 c 128,-1,39
 653 107 653 107 706.5 184 c 128,-1,40
 760 261 760 261 769 351 c 0,41,42
 771 373 771 373 771 383 c 0,43,44
 771 465 771 465 730.5 534 c 128,-1,45
 690 603 690 603 619.5 643 c 128,-1,46
 549 683 549 683 463 683 c 0,47,48
 371 683 371 683 288.5 638 c 128,-1,49
 206 593 206 593 153 516.5 c 128,-1,50
 100 440 100 440 91 350 c 0,51,32
 89 328 89 328 89 318 c 0,33,34
EndSplineSet
EndChar

StartChar: R
Encoding: 82 82 54
Width: 725
Flags: W
LayerCount: 2
Fore
SplineSet
619 340 m 128,-1,1
 558 269 558 269 449 248 c 1,2,-1
 580 0 l 1,3,-1
 555 0 l 1,4,-1
 426 244 l 1,5,6
 399 240 399 240 361 240 c 2,7,-1
 144 240 l 1,8,-1
 96 0 l 1,9,-1
 76 0 l 1,10,-1
 216 699 l 1,11,-1
 453 699 l 2,12,13
 563 699 563 699 621.5 651.5 c 128,-1,14
 680 604 680 604 680 517 c 0,15,0
 680 411 680 411 619 340 c 128,-1,1
522.5 291 m 128,-1,17
 589 322 589 322 624.5 378.5 c 128,-1,18
 660 435 660 435 660 512 c 0,19,20
 660 592 660 592 605.5 635.5 c 128,-1,21
 551 679 551 679 449 679 c 2,22,-1
 232 679 l 1,23,-1
 148 260 l 1,24,-1
 365 260 l 2,25,16
 456 260 456 260 522.5 291 c 128,-1,17
EndSplineSet
EndChar

StartChar: S
Encoding: 83 83 55
Width: 591
Flags: W
LayerCount: 2
Fore
SplineSet
450 692 m 128,-1,1
 500 678 500 678 534 655 c 1,2,-1
 522 639 l 1,3,4
 491 661 491 661 443.5 673.5 c 128,-1,5
 396 686 396 686 349 686 c 0,6,7
 256 686 256 686 196.5 648.5 c 128,-1,8
 137 611 137 611 131 549 c 0,9,10
 130 542 130 542 130 529 c 0,11,12
 130 482 130 482 154 452.5 c 128,-1,13
 178 423 178 423 213.5 406.5 c 128,-1,14
 249 390 249 390 308 371 c 0,15,16
 372 349 372 349 409 331 c 128,-1,17
 446 313 446 313 472 280 c 128,-1,18
 498 247 498 247 498 193 c 0,19,20
 498 185 498 185 496 167 c 0,21,22
 489 88 489 88 419 41 c 128,-1,23
 349 -6 349 -6 240 -6 c 0,24,25
 174 -6 174 -6 111 21 c 128,-1,26
 48 48 48 48 8 93 c 1,27,-1
 24 108 l 1,28,29
 60 65 60 65 119 39.5 c 128,-1,30
 178 14 178 14 242 14 c 0,31,32
 342 14 342 14 405.5 55.5 c 128,-1,33
 469 97 469 97 476 167 c 0,34,35
 477 175 477 175 477 189 c 0,36,37
 477 237 477 237 453 267.5 c 128,-1,38
 429 298 429 298 393.5 314.5 c 128,-1,39
 358 331 358 331 298 351 c 0,40,41
 235 372 235 372 197.5 389.5 c 128,-1,42
 160 407 160 407 134.5 440.5 c 128,-1,43
 109 474 109 474 109 527 c 0,44,45
 109 541 109 541 110 549 c 0,46,47
 117 620 117 620 182.5 663 c 128,-1,48
 248 706 248 706 351 706 c 0,49,0
 400 706 400 706 450 692 c 128,-1,1
EndSplineSet
EndChar

StartChar: T
Encoding: 84 84 56
Width: 526
Flags: W
LayerCount: 2
Fore
SplineSet
601 699 m 1,0,-1
 597 679 l 1,1,-1
 357 679 l 1,2,-1
 221 0 l 1,3,-1
 201 0 l 1,4,-1
 337 679 l 1,5,-1
 97 679 l 1,6,-1
 101 699 l 1,7,-1
 601 699 l 1,0,-1
EndSplineSet
EndChar

StartChar: U
Encoding: 85 85 57
Width: 774
Flags: W
LayerCount: 2
Fore
SplineSet
669 284 m 2,0,1
 642 147 642 147 559 73.5 c 128,-1,2
 476 0 476 0 345 0 c 0,3,4
 232 0 232 0 169.5 54.5 c 128,-1,5
 107 109 107 109 107 210 c 0,6,7
 107 242 107 242 115 284 c 2,8,-1
 198 699 l 1,9,-1
 218 699 l 1,10,-1
 135 284 l 2,11,12
 128 249 128 249 128 215 c 0,13,14
 128 122 128 122 186 71 c 128,-1,15
 244 20 244 20 349 20 c 0,16,17
 470 20 470 20 546.5 88.5 c 128,-1,18
 623 157 623 157 649 284 c 2,19,-1
 732 699 l 1,20,-1
 752 699 l 1,21,-1
 669 284 l 2,0,1
EndSplineSet
EndChar

StartChar: V
Encoding: 86 86 58
Width: 626
Flags: W
LayerCount: 2
Fore
SplineSet
680 699 m 1,0,-1
 704 699 l 1,1,-1
 296 0 l 1,2,-1
 274 0 l 1,3,-1
 98 699 l 1,4,-1
 121 699 l 1,5,-1
 289 23 l 1,6,-1
 680 699 l 1,0,-1
EndSplineSet
EndChar

StartChar: W
Encoding: 87 87 59
Width: 987
Flags: W
LayerCount: 2
Fore
SplineSet
1042 699 m 1,0,-1
 1065 699 l 1,1,-1
 712 0 l 1,2,-1
 691 0 l 1,3,-1
 577 670 l 1,4,-1
 240 0 l 1,5,-1
 219 0 l 1,6,-1
 98 699 l 1,7,-1
 120 699 l 1,8,-1
 234 22 l 1,9,-1
 570 699 l 1,10,-1
 592 699 l 1,11,-1
 706 24 l 1,12,-1
 1042 699 l 1,0,-1
EndSplineSet
EndChar

StartChar: X
Encoding: 88 88 60
Width: 628
Flags: W
LayerCount: 2
Fore
SplineSet
630 699 m 1,0,-1
 331 362 l 1,1,-1
 533 0 l 1,2,-1
 509 0 l 1,3,-1
 316 346 l 1,4,-1
 10 0 l 1,5,-1
 -14 0 l 1,6,-1
 307 362 l 1,7,-1
 121 699 l 1,8,-1
 145 699 l 1,9,-1
 322 379 l 1,10,-1
 606 699 l 1,11,-1
 630 699 l 1,0,-1
EndSplineSet
EndChar

StartChar: Y
Encoding: 89 89 61
Width: 606
Flags: W
LayerCount: 2
Fore
SplineSet
684 699 m 1,0,-1
 333 270 l 1,1,-1
 287 0 l 1,2,-1
 267 0 l 1,3,-1
 312 267 l 1,4,-1
 98 699 l 1,5,-1
 122 699 l 1,6,-1
 325 289 l 1,7,-1
 660 699 l 1,8,-1
 684 699 l 1,0,-1
EndSplineSet
EndChar

StartChar: Z
Encoding: 90 90 62
Width: 660
Flags: W
LayerCount: 2
Fore
SplineSet
669 699 m 1,0,-1
 665 674 l 1,1,-1
 34 20 l 1,2,-1
 560 20 l 1,3,-1
 556 0 l 1,4,-1
 10 0 l 1,5,-1
 14 25 l 1,6,-1
 645 679 l 1,7,-1
 136 679 l 1,8,-1
 140 699 l 1,9,-1
 669 699 l 1,0,-1
EndSplineSet
EndChar

StartChar: bracketleft
Encoding: 91 91 63
Width: 284
Flags: W
LayerCount: 2
Fore
SplineSet
353 742 m 1,0,-1
 349 722 l 1,1,-1
 220 722 l 1,2,-1
 54 -104 l 1,3,-1
 183 -104 l 1,4,-1
 179 -124 l 1,5,-1
 30 -124 l 1,6,-1
 204 742 l 1,7,-1
 353 742 l 1,0,-1
EndSplineSet
Substitution2: "'rtla' Right to Left Alternates lookup 0 subtable" bracketright
EndChar

StartChar: backslash
Encoding: 92 92 64
Width: 658
Flags: W
LayerCount: 2
Fore
SplineSet
87 826 m 1,0,-1
 108 826 l 1,1,-1
 514 -130 l 1,2,-1
 493 -130 l 1,3,-1
 87 826 l 1,0,-1
EndSplineSet
EndChar

StartChar: bracketright
Encoding: 93 93 65
Width: 285
Flags: W
LayerCount: 2
Fore
SplineSet
-48 -124 m 1,0,-1
 -44 -104 l 1,1,-1
 85 -104 l 1,2,-1
 251 722 l 1,3,-1
 122 722 l 1,4,-1
 126 742 l 1,5,-1
 275 742 l 1,6,-1
 101 -124 l 1,7,-1
 -48 -124 l 1,0,-1
EndSplineSet
Substitution2: "'rtla' Right to Left Alternates lookup 0 subtable" bracketleft
EndChar

StartChar: asciicircum
Encoding: 94 94 66
Width: 478
Flags: W
LayerCount: 2
Fore
SplineSet
412 128 m 1,0,-1
 390 128 l 1,1,-1
 290 509 l 1,2,-1
 36 128 l 1,3,-1
 14 128 l 1,4,-1
 280 528 l 1,5,-1
 306 528 l 1,6,-1
 412 128 l 1,0,-1
EndSplineSet
EndChar

StartChar: underscore
Encoding: 95 95 67
Width: 537
Flags: W
LayerCount: 2
Fore
SplineSet
449 -184 m 1,0,-1
 445 -204 l 1,1,-1
 -92 -204 l 1,2,-1
 -88 -184 l 1,3,-1
 449 -184 l 1,0,-1
EndSplineSet
EndChar

StartChar: a
Encoding: 97 97 69
Width: 671
Flags: W
LayerCount: 2
Fore
SplineSet
162.5 26.5 m 128,-1,1
 110 55 110 55 80.5 106.5 c 128,-1,2
 51 158 51 158 51 224 c 0,3,4
 51 305 51 305 88.5 372.5 c 128,-1,5
 126 440 126 440 190 479.5 c 128,-1,6
 254 519 254 519 330 519 c 0,7,8
 418 519 418 519 480 470 c 128,-1,9
 542 421 542 421 557 340 c 1,10,-1
 592 517 l 1,11,-1
 612 517 l 1,12,-1
 509 0 l 1,13,-1
 489 0 l 1,14,-1
 515 128 l 1,15,16
 476 66 476 66 414.5 32 c 128,-1,17
 353 -2 353 -2 282 -2 c 0,18,0
 215 -2 215 -2 162.5 26.5 c 128,-1,1
413 54.5 m 128,-1,20
 472 91 472 91 506.5 153.5 c 128,-1,21
 541 216 541 216 541 290 c 0,22,23
 541 351 541 351 514 398.5 c 128,-1,24
 487 446 487 446 438.5 472.5 c 128,-1,25
 390 499 390 499 328 499 c 0,26,27
 258 499 258 499 199 462.5 c 128,-1,28
 140 426 140 426 105.5 363.5 c 128,-1,29
 71 301 71 301 71 227 c 0,30,31
 71 166 71 166 98 118.5 c 128,-1,32
 125 71 125 71 173.5 44.5 c 128,-1,33
 222 18 222 18 284 18 c 0,34,19
 354 18 354 18 413 54.5 c 128,-1,20
EndSplineSet
Substitution2: "<3,3> Small Caps in Latin lookup 11 subtable" a.sc
Substitution2: "<11,2> Diagonal Fractions lookup 7 nested-substitutions 0 subtable" ordfeminine
Substitution2: "<11,2> Diagonal Fractions lookup 5 nested-substitutions 0 subtable" ordfeminine
EndChar

StartChar: b
Encoding: 98 98 70
Width: 676
Flags: W
LayerCount: 2
Fore
SplineSet
513.5 490.5 m 128,-1,1
 566 462 566 462 595.5 410.5 c 128,-1,2
 625 359 625 359 625 293 c 0,3,4
 625 212 625 212 587.5 144.5 c 128,-1,5
 550 77 550 77 486 37.5 c 128,-1,6
 422 -2 422 -2 346 -2 c 0,7,8
 258 -2 258 -2 196 47 c 128,-1,9
 134 96 134 96 119 177 c 1,10,-1
 84 0 l 1,11,-1
 64 0 l 1,12,-1
 212 742 l 1,13,-1
 232 742 l 1,14,-1
 161 389 l 1,15,16
 200 451 200 451 261.5 485 c 128,-1,17
 323 519 323 519 394 519 c 0,18,0
 461 519 461 519 513.5 490.5 c 128,-1,1
263 462.5 m 128,-1,20
 204 426 204 426 169.5 363.5 c 128,-1,21
 135 301 135 301 135 227 c 0,22,23
 135 166 135 166 162 118.5 c 128,-1,24
 189 71 189 71 237.5 44.5 c 128,-1,25
 286 18 286 18 348 18 c 0,26,27
 418 18 418 18 477 54.5 c 128,-1,28
 536 91 536 91 570.5 153.5 c 128,-1,29
 605 216 605 216 605 290 c 0,30,31
 605 351 605 351 578 398.5 c 128,-1,32
 551 446 551 446 502.5 472.5 c 128,-1,33
 454 499 454 499 392 499 c 0,34,19
 322 499 322 499 263 462.5 c 128,-1,20
EndSplineSet
Substitution2: "<3,3> Small Caps in Latin lookup 11 subtable" b.sc
EndChar

StartChar: c
Encoding: 99 99 71
Width: 577
Flags: W
LayerCount: 2
Fore
SplineSet
162.5 30 m 128,-1,1
 111 60 111 60 82 113 c 128,-1,2
 53 166 53 166 53 234 c 0,3,4
 53 314 53 314 90 378.5 c 128,-1,5
 127 443 127 443 191 480 c 128,-1,6
 255 517 255 517 331 517 c 0,7,8
 382 517 382 517 425.5 499 c 128,-1,9
 469 481 469 481 500 448 c 1,10,-1
 486 434 l 1,11,12
 423 497 423 497 329 497 c 0,13,14
 258 497 258 497 199 463.5 c 128,-1,15
 140 430 140 430 106 370 c 128,-1,16
 72 310 72 310 72 235 c 0,17,18
 72 172 72 172 98.5 123 c 128,-1,19
 125 74 125 74 172.5 47 c 128,-1,20
 220 20 220 20 282 20 c 0,21,22
 335 20 335 20 381.5 39.5 c 128,-1,23
 428 59 428 59 463 95 c 1,24,-1
 475 81 l 1,25,26
 437 42 437 42 386.5 21 c 128,-1,27
 336 0 336 0 280 0 c 0,28,0
 214 0 214 0 162.5 30 c 128,-1,1
EndSplineSet
Substitution2: "<3,3> Small Caps in Latin lookup 11 subtable" c.sc
EndChar

StartChar: d
Encoding: 100 100 72
Width: 676
Flags: W
LayerCount: 2
Fore
SplineSet
162.5 26.5 m 128,-1,1
 110 55 110 55 80.5 106.5 c 128,-1,2
 51 158 51 158 51 224 c 0,3,4
 51 305 51 305 88.5 372.5 c 128,-1,5
 126 440 126 440 190 479.5 c 128,-1,6
 254 519 254 519 330 519 c 0,7,8
 418 519 418 519 480 470 c 128,-1,9
 542 421 542 421 557 340 c 1,10,-1
 637 742 l 1,11,-1
 657 742 l 1,12,-1
 509 0 l 1,13,-1
 489 0 l 1,14,-1
 515 128 l 1,15,16
 476 66 476 66 414.5 32 c 128,-1,17
 353 -2 353 -2 282 -2 c 0,18,0
 215 -2 215 -2 162.5 26.5 c 128,-1,1
413 54.5 m 128,-1,20
 472 91 472 91 506.5 153.5 c 128,-1,21
 541 216 541 216 541 290 c 0,22,23
 541 351 541 351 514 398.5 c 128,-1,24
 487 446 487 446 438.5 472.5 c 128,-1,25
 390 499 390 499 328 499 c 0,26,27
 258 499 258 499 199 462.5 c 128,-1,28
 140 426 140 426 105.5 363.5 c 128,-1,29
 71 301 71 301 71 227 c 0,30,31
 71 166 71 166 98 118.5 c 128,-1,32
 125 71 125 71 173.5 44.5 c 128,-1,33
 222 18 222 18 284 18 c 0,34,19
 354 18 354 18 413 54.5 c 128,-1,20
EndSplineSet
Substitution2: "<3,3> Small Caps in Latin lookup 11 subtable" d.sc
EndChar

StartChar: e
Encoding: 101 101 73
Width: 592
Flags: W
LayerCount: 2
Fore
SplineSet
74 259 m 1,0,1
 73 251 73 251 73 235 c 0,2,3
 73 172 73 172 99 123 c 128,-1,4
 125 74 125 74 172 47 c 128,-1,5
 219 20 219 20 280 20 c 0,6,7
 336 20 336 20 385.5 39.5 c 128,-1,8
 435 59 435 59 470 95 c 1,9,-1
 483 81 l 1,10,11
 444 42 444 42 390.5 21 c 128,-1,12
 337 0 337 0 278 0 c 0,13,14
 212 0 212 0 161 30 c 128,-1,15
 110 60 110 60 81.5 113 c 128,-1,16
 53 166 53 166 53 234 c 0,17,18
 53 314 53 314 90 378.5 c 128,-1,19
 127 443 127 443 190 480 c 128,-1,20
 253 517 253 517 329 517 c 0,21,22
 395 517 395 517 444 488.5 c 128,-1,23
 493 460 493 460 519 408.5 c 128,-1,24
 545 357 545 357 545 291 c 0,25,26
 545 270 545 270 544 259 c 1,27,-1
 74 259 l 1,0,1
209.5 469.5 m 128,-1,29
 156 442 156 442 120.5 392.5 c 128,-1,30
 85 343 85 343 76 279 c 1,31,-1
 526 279 l 1,32,33
 528 377 528 377 475 437 c 128,-1,34
 422 497 422 497 327 497 c 0,35,28
 263 497 263 497 209.5 469.5 c 128,-1,29
EndSplineSet
Substitution2: "<3,3> Small Caps in Latin lookup 11 subtable" e.sc
EndChar

StartChar: f
Encoding: 102 102 74
Width: 296
Flags: W
LayerCount: 2
Fore
SplineSet
439 728 m 1,1,-1
 427 712 l 1,2,3
 394 732 394 732 360 732 c 0,4,5
 306 732 306 732 261 691 c 128,-1,6
 216 650 216 650 204 589 c 2,7,-1
 188 507 l 1,8,-1
 355 507 l 1,9,-1
 351 487 l 1,10,-1
 184 487 l 1,11,-1
 86 0 l 1,12,-1
 66 0 l 1,13,-1
 163 487 l 1,14,-1
 98 487 l 1,15,-1
 102 507 l 1,16,-1
 167 507 l 1,17,-1
 184 591 l 2,18,19
 193 635 193 635 218.5 672 c 128,-1,20
 244 709 244 709 280.5 730.5 c 128,-1,21
 317 752 317 752 355 752 c 0,22,0
 402 752 402 752 439 728 c 1,1,-1
EndSplineSet
Substitution2: "<3,3> Small Caps in Latin lookup 11 subtable" f.sc
EndChar

StartChar: g
Encoding: 103 103 75
Width: 629
Flags: W
LayerCount: 2
Fore
SplineSet
103 -169 m 128,-1,1
 52 -147 52 -147 9 -102 c 1,2,-1
 24 -90 l 1,3,4
 62 -131 62 -131 110 -151 c 128,-1,5
 158 -171 158 -171 222 -173 c 0,6,7
 319 -174 319 -174 384 -122 c 128,-1,8
 449 -70 449 -70 468 24 c 2,9,-1
 493 151 l 1,10,11
 456 93 456 93 398 61 c 128,-1,12
 340 29 340 29 273 29 c 0,13,14
 210 29 210 29 160.5 56 c 128,-1,15
 111 83 111 83 83 131.5 c 128,-1,16
 55 180 55 180 55 242 c 0,17,18
 55 318 55 318 90.5 381.5 c 128,-1,19
 126 445 126 445 186.5 482 c 128,-1,20
 247 519 247 519 319 519 c 0,21,22
 402 519 402 519 460.5 473.5 c 128,-1,23
 519 428 519 428 533 352 c 1,24,-1
 566 517 l 1,25,-1
 586 517 l 1,26,-1
 488 22 l 2,27,28
 468 -80 468 -80 398 -137 c 128,-1,29
 328 -194 328 -194 222 -193 c 0,30,0
 154 -191 154 -191 103 -169 c 128,-1,1
397.5 83 m 128,-1,32
 453 117 453 117 485.5 175.5 c 128,-1,33
 518 234 518 234 518 303 c 0,34,35
 518 361 518 361 492.5 405.5 c 128,-1,36
 467 450 467 450 421.5 474.5 c 128,-1,37
 376 499 376 499 317 499 c 0,38,39
 251 499 251 499 195.5 465 c 128,-1,40
 140 431 140 431 107.5 372.5 c 128,-1,41
 75 314 75 314 75 245 c 0,42,43
 75 188 75 188 100.5 143.5 c 128,-1,44
 126 99 126 99 171.5 74 c 128,-1,45
 217 49 217 49 276 49 c 0,46,31
 342 49 342 49 397.5 83 c 128,-1,32
EndSplineSet
Substitution2: "<3,3> Small Caps in Latin lookup 11 subtable" g.sc
EndChar

StartChar: h
Encoding: 104 104 76
Width: 652
Flags: W
LayerCount: 2
Fore
SplineSet
530.5 477.5 m 128,-1,1
 575 438 575 438 575 366 c 0,2,3
 575 342 575 342 569 313 c 2,4,-1
 507 0 l 1,5,-1
 487 0 l 1,6,-1
 549 313 l 2,7,8
 554 341 554 341 554 362 c 0,9,10
 554 427 554 427 515 462 c 128,-1,11
 476 497 476 497 403 497 c 0,12,13
 302 495 302 495 230.5 434 c 128,-1,14
 159 373 159 373 138 266 c 2,15,-1
 86 0 l 1,16,-1
 66 0 l 1,17,-1
 212 742 l 1,18,-1
 232 742 l 1,19,-1
 159 368 l 1,20,21
 197 438 197 438 260 476.5 c 128,-1,22
 323 515 323 515 403 517 c 0,23,0
 486 517 486 517 530.5 477.5 c 128,-1,1
EndSplineSet
Substitution2: "<3,3> Small Caps in Latin lookup 11 subtable" h.sc
EndChar

StartChar: k
Encoding: 107 107 79
Width: 539
Flags: W
LayerCount: 2
Fore
SplineSet
544 517 m 1,0,-1
 307 317 l 1,1,-1
 471 0 l 1,2,-1
 447 0 l 1,3,-1
 290 302 l 1,4,-1
 115 154 l 1,5,-1
 84 0 l 1,6,-1
 64 0 l 1,7,-1
 212 742 l 1,8,-1
 232 742 l 1,9,-1
 121 185 l 1,10,-1
 516 517 l 1,11,-1
 544 517 l 1,0,-1
EndSplineSet
Substitution2: "<3,3> Small Caps in Latin lookup 11 subtable" k.sc
EndChar

StartChar: l
Encoding: 108 108 80
Width: 251
Flags: W
LayerCount: 2
Fore
SplineSet
232 742 m 1,0,-1
 84 0 l 1,1,-1
 64 0 l 1,2,-1
 212 742 l 1,3,-1
 232 742 l 1,0,-1
EndSplineSet
Substitution2: "<3,3> Small Caps in Latin lookup 11 subtable" l.sc
EndChar

StartChar: m
Encoding: 109 109 81
Width: 1067
Flags: W
LayerCount: 2
Fore
SplineSet
945.5 477.5 m 128,-1,1
 990 438 990 438 990 366 c 0,2,3
 990 342 990 342 984 313 c 2,4,-1
 922 0 l 1,5,-1
 902 0 l 1,6,-1
 964 313 l 2,7,8
 969 341 969 341 969 362 c 0,9,10
 969 426 969 426 930 461.5 c 128,-1,11
 891 497 891 497 818 497 c 0,12,13
 721 495 721 495 652.5 439.5 c 128,-1,14
 584 384 584 384 558 289 c 1,15,-1
 501 0 l 1,16,-1
 481 0 l 1,17,-1
 543 313 l 2,18,19
 548 341 548 341 548 362 c 0,20,21
 548 426 548 426 509 461.5 c 128,-1,22
 470 497 470 497 397 497 c 0,23,24
 294 495 294 495 223 433 c 128,-1,25
 152 371 152 371 132 266 c 2,26,-1
 80 0 l 1,27,-1
 60 0 l 1,28,-1
 162 517 l 1,29,-1
 182 517 l 1,30,-1
 153 368 l 1,31,32
 191 438 191 438 254 476.5 c 128,-1,33
 317 515 317 515 397 517 c 0,34,35
 481 517 481 517 525.5 475.5 c 128,-1,36
 570 434 570 434 568 359 c 1,37,38
 606 434 606 434 670 474.5 c 128,-1,39
 734 515 734 515 818 517 c 0,40,0
 901 517 901 517 945.5 477.5 c 128,-1,1
EndSplineSet
Substitution2: "<3,3> Small Caps in Latin lookup 11 subtable" m.sc
EndChar

StartChar: n
Encoding: 110 110 82
Width: 646
Flags: W
LayerCount: 2
Fore
SplineSet
524.5 477.5 m 128,-1,1
 569 438 569 438 569 366 c 0,2,3
 569 342 569 342 563 313 c 2,4,-1
 501 0 l 1,5,-1
 481 0 l 1,6,-1
 543 313 l 2,7,8
 548 341 548 341 548 362 c 0,9,10
 548 427 548 427 509 462 c 128,-1,11
 470 497 470 497 397 497 c 0,12,13
 296 495 296 495 224.5 434 c 128,-1,14
 153 373 153 373 132 266 c 2,15,-1
 80 0 l 1,16,-1
 60 0 l 1,17,-1
 162 517 l 1,18,-1
 182 517 l 1,19,-1
 153 368 l 1,20,21
 191 438 191 438 254 476.5 c 128,-1,22
 317 515 317 515 397 517 c 0,23,0
 480 517 480 517 524.5 477.5 c 128,-1,1
EndSplineSet
Substitution2: "<3,3> Small Caps in Latin lookup 11 subtable" n.sc
EndChar

StartChar: o
Encoding: 111 111 83
Width: 611
Flags: W
LayerCount: 2
Fore
SplineSet
448.5 487 m 128,-1,1
 500 457 500 457 529 404 c 128,-1,2
 558 351 558 351 558 284 c 0,3,4
 558 204 558 204 521 139 c 128,-1,5
 484 74 484 74 420 37 c 128,-1,6
 356 0 356 0 280 0 c 0,7,8
 214 0 214 0 162.5 30 c 128,-1,9
 111 60 111 60 82 113 c 128,-1,10
 53 166 53 166 53 234 c 0,11,12
 53 314 53 314 90 378.5 c 128,-1,13
 127 443 127 443 191 480 c 128,-1,14
 255 517 255 517 331 517 c 0,15,0
 397 517 397 517 448.5 487 c 128,-1,1
199.5 463.5 m 128,-1,17
 141 430 141 430 107 370 c 128,-1,18
 73 310 73 310 73 235 c 0,19,20
 73 172 73 172 99 123 c 128,-1,21
 125 74 125 74 172.5 47 c 128,-1,22
 220 20 220 20 282 20 c 0,23,24
 353 20 353 20 411.5 53.5 c 128,-1,25
 470 87 470 87 504 147 c 128,-1,26
 538 207 538 207 538 283 c 0,27,28
 538 345 538 345 512 394 c 128,-1,29
 486 443 486 443 438.5 470 c 128,-1,30
 391 497 391 497 329 497 c 0,31,16
 258 497 258 497 199.5 463.5 c 128,-1,17
EndSplineSet
Substitution2: "<3,3> Small Caps in Latin lookup 11 subtable" o.sc
Substitution2: "<11,2> Diagonal Fractions lookup 7 nested-substitutions 0 subtable" ordmasculine
Substitution2: "<11,2> Diagonal Fractions lookup 5 nested-substitutions 0 subtable" ordmasculine
EndChar

StartChar: p
Encoding: 112 112 84
Width: 676
Flags: W
LayerCount: 2
Fore
SplineSet
513.5 490.5 m 128,-1,1
 566 462 566 462 595.5 410.5 c 128,-1,2
 625 359 625 359 625 293 c 0,3,4
 625 212 625 212 587.5 144.5 c 128,-1,5
 550 77 550 77 486 37.5 c 128,-1,6
 422 -2 422 -2 346 -2 c 0,7,8
 258 -2 258 -2 196 47 c 128,-1,9
 134 96 134 96 119 177 c 1,10,-1
 45 -194 l 1,11,-1
 25 -194 l 1,12,-1
 167 517 l 1,13,-1
 187 517 l 1,14,-1
 161 389 l 1,15,16
 200 451 200 451 261.5 485 c 128,-1,17
 323 519 323 519 394 519 c 0,18,0
 461 519 461 519 513.5 490.5 c 128,-1,1
263 462.5 m 128,-1,20
 204 426 204 426 169.5 363.5 c 128,-1,21
 135 301 135 301 135 227 c 0,22,23
 135 166 135 166 162 118.5 c 128,-1,24
 189 71 189 71 237.5 44.5 c 128,-1,25
 286 18 286 18 348 18 c 0,26,27
 418 18 418 18 477 54.5 c 128,-1,28
 536 91 536 91 570.5 153.5 c 128,-1,29
 605 216 605 216 605 290 c 0,30,31
 605 351 605 351 578 398.5 c 128,-1,32
 551 446 551 446 502.5 472.5 c 128,-1,33
 454 499 454 499 392 499 c 0,34,19
 322 499 322 499 263 462.5 c 128,-1,20
EndSplineSet
Substitution2: "<3,3> Small Caps in Latin lookup 11 subtable" p.sc
EndChar

StartChar: q
Encoding: 113 113 85
Width: 675
Flags: W
LayerCount: 2
Fore
SplineSet
162.5 26.5 m 128,-1,1
 110 55 110 55 80.5 106.5 c 128,-1,2
 51 158 51 158 51 224 c 0,3,4
 51 305 51 305 88.5 372.5 c 128,-1,5
 126 440 126 440 190 479.5 c 128,-1,6
 254 519 254 519 330 519 c 0,7,8
 418 519 418 519 480 470 c 128,-1,9
 542 421 542 421 557 340 c 1,10,-1
 592 517 l 1,11,-1
 612 517 l 1,12,-1
 470 -194 l 1,13,-1
 450 -194 l 1,14,-1
 515 128 l 1,15,16
 476 66 476 66 414.5 32 c 128,-1,17
 353 -2 353 -2 282 -2 c 0,18,0
 215 -2 215 -2 162.5 26.5 c 128,-1,1
413 54.5 m 128,-1,20
 472 91 472 91 506.5 153.5 c 128,-1,21
 541 216 541 216 541 290 c 0,22,23
 541 351 541 351 514 398.5 c 128,-1,24
 487 446 487 446 438.5 472.5 c 128,-1,25
 390 499 390 499 328 499 c 0,26,27
 258 499 258 499 199 462.5 c 128,-1,28
 140 426 140 426 105.5 363.5 c 128,-1,29
 71 301 71 301 71 227 c 0,30,31
 71 166 71 166 98 118.5 c 128,-1,32
 125 71 125 71 173.5 44.5 c 128,-1,33
 222 18 222 18 284 18 c 0,34,19
 354 18 354 18 413 54.5 c 128,-1,20
EndSplineSet
Substitution2: "<3,3> Small Caps in Latin lookup 11 subtable" q.sc
EndChar

StartChar: r
Encoding: 114 114 86
Width: 339
Flags: W
LayerCount: 2
Fore
SplineSet
248.5 479.5 m 128,-1,1
 306 516 306 516 379 517 c 1,2,-1
 377 497 l 1,3,4
 290 495 290 495 226.5 439 c 128,-1,5
 163 383 163 383 136 284 c 1,6,-1
 79 0 l 1,7,-1
 59 0 l 1,8,-1
 162 517 l 1,9,-1
 182 517 l 1,10,-1
 154 377 l 1,11,0
 191 443 191 443 248.5 479.5 c 128,-1,1
EndSplineSet
Substitution2: "<3,3> Small Caps in Latin lookup 11 subtable" r.sc
EndChar

StartChar: s
Encoding: 115 115 87
Width: 447
Flags: W
LayerCount: 2
Fore
SplineSet
81 15.5 m 128,-1,1
 26 41 26 41 -5 85 c 1,2,-1
 11 99 l 1,3,4
 42 58 42 58 92 35.5 c 128,-1,5
 142 13 142 13 204 13 c 0,6,7
 272 13 272 13 316 46 c 128,-1,8
 360 79 360 79 360 135 c 0,9,10
 360 176 360 176 327.5 200 c 128,-1,11
 295 224 295 224 230 252 c 0,12,13
 182 273 182 273 154 288.5 c 128,-1,14
 126 304 126 304 106.5 328.5 c 128,-1,15
 87 353 87 353 87 387 c 0,16,17
 87 451 87 451 134.5 487.5 c 128,-1,18
 182 524 182 524 255 524 c 0,19,20
 346 524 346 524 419 470 c 1,21,-1
 406 454 l 1,22,23
 379 477 379 477 339.5 489.5 c 128,-1,24
 300 502 300 502 252 502 c 0,25,26
 188 502 188 502 148 472.5 c 128,-1,27
 108 443 108 443 108 390 c 0,28,29
 108 349 108 349 140.5 325.5 c 128,-1,30
 173 302 173 302 238 275 c 0,31,32
 286 255 286 255 314.5 239.5 c 128,-1,33
 343 224 343 224 362.5 199 c 128,-1,34
 382 174 382 174 382 139 c 0,35,36
 382 71 382 71 331 31 c 128,-1,37
 280 -9 280 -9 202 -10 c 0,38,0
 136 -10 136 -10 81 15.5 c 128,-1,1
EndSplineSet
Substitution2: "<3,3> Small Caps in Latin lookup 11 subtable" s.sc
EndChar

StartChar: t
Encoding: 116 116 88
Width: 363
Flags: W
LayerCount: 2
Fore
SplineSet
123 141 m 2,0,1
 118 113 118 113 118 95 c 0,2,3
 118 20 118 20 184 20 c 0,4,5
 237 20 237 20 285 53 c 1,6,-1
 295 37 l 1,7,8
 239 0 239 0 185 0 c 0,9,10
 142 0 142 0 120 23.5 c 128,-1,11
 98 47 98 47 98 92 c 0,12,13
 98 115 98 115 104 143 c 2,14,-1
 173 487 l 1,15,-1
 96 487 l 1,16,-1
 100 507 l 1,17,-1
 177 507 l 1,18,-1
 201 630 l 1,19,-1
 221 630 l 1,20,-1
 196 507 l 1,21,-1
 378 507 l 1,22,-1
 374 487 l 1,23,-1
 192 487 l 1,24,-1
 123 141 l 2,0,1
EndSplineSet
Substitution2: "<3,3> Small Caps in Latin lookup 11 subtable" t.sc
EndChar

StartChar: u
Encoding: 117 117 89
Width: 646
Flags: W
LayerCount: 2
Fore
SplineSet
121.5 39.5 m 128,-1,1
 77 79 77 79 77 151 c 0,2,3
 77 176 77 176 83 204 c 2,4,-1
 145 517 l 1,5,-1
 165 517 l 1,6,-1
 103 204 l 2,7,8
 98 176 98 176 98 155 c 0,9,10
 98 90 98 90 137 55 c 128,-1,11
 176 20 176 20 249 20 c 0,12,13
 350 22 350 22 421.5 83 c 128,-1,14
 493 144 493 144 514 251 c 2,15,-1
 566 517 l 1,16,-1
 586 517 l 1,17,-1
 484 0 l 1,18,-1
 464 0 l 1,19,-1
 493 149 l 1,20,21
 455 79 455 79 392 40.5 c 128,-1,22
 329 2 329 2 249 0 c 0,23,0
 166 0 166 0 121.5 39.5 c 128,-1,1
EndSplineSet
Substitution2: "<3,3> Small Caps in Latin lookup 11 subtable" u.sc
EndChar

StartChar: v
Encoding: 118 118 90
Width: 456
Flags: W
LayerCount: 2
Fore
SplineSet
508 517 m 1,0,-1
 193 0 l 1,1,-1
 171 0 l 1,2,-1
 62 517 l 1,3,-1
 85 517 l 1,4,-1
 186 23 l 1,5,-1
 484 517 l 1,6,-1
 508 517 l 1,0,-1
EndSplineSet
Substitution2: "<3,3> Small Caps in Latin lookup 11 subtable" v.sc
EndChar

StartChar: w
Encoding: 119 119 91
Width: 818
Flags: W
LayerCount: 2
Fore
SplineSet
870 517 m 1,0,-1
 570 0 l 1,1,-1
 548 0 l 1,2,-1
 462 489 l 1,3,-1
 178 0 l 1,4,-1
 156 0 l 1,5,-1
 62 517 l 1,6,-1
 86 517 l 1,7,-1
 173 23 l 1,8,-1
 454 517 l 1,9,-1
 478 517 l 1,10,-1
 565 23 l 1,11,-1
 847 517 l 1,12,-1
 870 517 l 1,0,-1
EndSplineSet
Substitution2: "<3,3> Small Caps in Latin lookup 11 subtable" w.sc
EndChar

StartChar: x
Encoding: 120 120 92
Width: 489
Flags: W
LayerCount: 2
Fore
SplineSet
121 517 m 1,0,-1
 247 284 l 1,1,-1
 467 517 l 1,2,-1
 491 517 l 1,3,-1
 257 268 l 1,4,-1
 402 0 l 1,5,-1
 377 0 l 1,6,-1
 241 251 l 1,7,-1
 4 0 l 1,8,-1
 -21 0 l 1,9,-1
 232 268 l 1,10,-1
 97 517 l 1,11,-1
 121 517 l 1,0,-1
EndSplineSet
Substitution2: "<3,3> Small Caps in Latin lookup 11 subtable" x.sc
EndChar

StartChar: y
Encoding: 121 121 93
Width: 456
Flags: W
LayerCount: 2
Fore
SplineSet
508 517 m 1,0,-1
 148 -76 l 2,1,2
 113 -133 113 -133 72.5 -163.5 c 128,-1,3
 32 -194 32 -194 -9 -194 c 0,4,5
 -64 -194 -64 -194 -98 -168 c 1,6,-1
 -86 -151 l 1,7,8
 -57 -174 -57 -174 -11 -174 c 0,9,10
 27 -174 27 -174 64.5 -146 c 128,-1,11
 102 -118 102 -118 133 -67 c 2,12,-1
 173 -2 l 1,13,-1
 62 517 l 1,14,-1
 85 517 l 1,15,-1
 188 23 l 1,16,-1
 484 517 l 1,17,-1
 508 517 l 1,0,-1
EndSplineSet
Substitution2: "<3,3> Small Caps in Latin lookup 11 subtable" y.sc
EndChar

StartChar: z
Encoding: 122 122 94
Width: 510
Flags: W
LayerCount: 2
Fore
SplineSet
503 516 m 1,0,-1
 498 491 l 1,1,-1
 34 20 l 1,2,-1
 411 19 l 1,3,-1
 407 -1 l 1,4,-1
 10 0 l 1,5,-1
 15 25 l 1,6,-1
 479 496 l 1,7,-1
 118 497 l 1,8,-1
 122 517 l 1,9,-1
 503 516 l 1,0,-1
EndSplineSet
Substitution2: "<3,3> Small Caps in Latin lookup 11 subtable" z.sc
EndChar

StartChar: braceleft
Encoding: 123 123 95
Width: 318
Flags: W
LayerCount: 2
Fore
SplineSet
175.5 333 m 128,-1,1
 162 313 162 313 140 307 c 1,2,3
 154 301 154 301 161 289.5 c 128,-1,4
 168 278 168 278 168 259 c 0,5,6
 168 252 168 252 164 226 c 2,7,-1
 114 -24 l 2,8,9
 112 -32 112 -32 112 -46 c 0,10,11
 112 -77 112 -77 134.5 -91.5 c 128,-1,12
 157 -106 157 -106 205 -106 c 1,13,-1
 201 -126 l 1,14,-1
 196 -126 l 2,15,16
 143 -126 143 -126 117 -108 c 128,-1,17
 91 -90 91 -90 91 -53 c 0,18,19
 91 -41 91 -41 94 -24 c 2,20,-1
 144 226 l 2,21,22
 147 241 147 241 147 253 c 0,23,24
 147 298 147 298 103 298 c 2,25,-1
 84 298 l 1,26,-1
 88 318 l 1,27,-1
 107 318 l 2,28,29
 161 318 161 318 176 390 c 2,30,-1
 226 640 l 2,31,32
 236 692 236 692 271.5 717 c 128,-1,33
 307 742 307 742 370 742 c 2,34,-1
 375 742 l 1,35,-1
 371 722 l 1,36,37
 315 722 315 722 284.5 702 c 128,-1,38
 254 682 254 682 246 640 c 2,39,-1
 196 390 l 2,40,0
 189 353 189 353 175.5 333 c 128,-1,1
EndSplineSet
Substitution2: "'rtla' Right to Left Alternates lookup 0 subtable" braceright
EndChar

StartChar: bar
Encoding: 124 124 96
Width: 221
Flags: W
LayerCount: 2
Fore
SplineSet
234 824 m 1,0,-1
 43 -129 l 1,1,-1
 23 -129 l 1,2,-1
 214 824 l 1,3,-1
 234 824 l 1,0,-1
EndSplineSet
EndChar

StartChar: braceright
Encoding: 125 125 97
Width: 318
Flags: W
LayerCount: 2
Fore
SplineSet
163.5 285 m 128,-1,1
 177 305 177 305 199 311 c 1,2,3
 185 317 185 317 178 328.5 c 128,-1,4
 171 340 171 340 171 359 c 0,5,6
 171 366 171 366 175 392 c 2,7,-1
 225 642 l 2,8,9
 227 650 227 650 227 664 c 0,10,11
 227 695 227 695 204.5 709.5 c 128,-1,12
 182 724 182 724 134 724 c 1,13,-1
 138 744 l 1,14,-1
 143 744 l 2,15,16
 196 744 196 744 222 726 c 128,-1,17
 248 708 248 708 248 671 c 0,18,19
 248 659 248 659 245 642 c 2,20,-1
 195 392 l 2,21,22
 192 377 192 377 192 365 c 0,23,24
 192 320 192 320 236 320 c 2,25,-1
 255 320 l 1,26,-1
 251 300 l 1,27,-1
 232 300 l 2,28,29
 178 300 178 300 163 228 c 2,30,-1
 113 -22 l 2,31,32
 103 -74 103 -74 67.5 -99 c 128,-1,33
 32 -124 32 -124 -31 -124 c 2,34,-1
 -36 -124 l 1,35,-1
 -32 -104 l 1,36,37
 24 -104 24 -104 54.5 -84 c 128,-1,38
 85 -64 85 -64 93 -22 c 2,39,-1
 143 228 l 2,40,0
 150 265 150 265 163.5 285 c 128,-1,1
EndSplineSet
Substitution2: "'rtla' Right to Left Alternates lookup 0 subtable" braceleft
EndChar

StartChar: asciitilde
Encoding: 126 126 98
Width: 480
Flags: W
LayerCount: 2
Fore
SplineSet
208.5 351 m 128,-1,1
 228 342 228 342 254 324 c 0,2,3
 279 307 279 307 296 298.5 c 128,-1,4
 313 290 313 290 330 290 c 0,5,6
 355 290 355 290 373 306 c 128,-1,7
 391 322 391 322 396 350 c 1,8,-1
 416 350 l 1,9,10
 408 312 408 312 385.5 291 c 128,-1,11
 363 270 363 270 330 270 c 0,12,13
 307 270 307 270 286.5 280 c 128,-1,14
 266 290 266 290 241 308 c 0,15,16
 215 325 215 325 200.5 332.5 c 128,-1,17
 186 340 186 340 169 340 c 0,18,19
 145 340 145 340 129 324.5 c 128,-1,20
 113 309 113 309 107 280 c 1,21,-1
 87 280 l 1,22,23
 95 318 95 318 116 339 c 128,-1,24
 137 360 137 360 169 360 c 0,25,0
 189 360 189 360 208.5 351 c 128,-1,1
EndSplineSet
EndChar

StartChar: exclamdown
Encoding: 161 161 100
Width: 193
Flags: W
LayerCount: 2
Fore
SplineSet
126 478 m 128,-1,1
 119 485 119 485 119 495 c 0,2,3
 119 506 119 506 127.5 514.5 c 128,-1,4
 136 523 136 523 147 523 c 256,5,6
 158 523 158 523 164.5 516.5 c 128,-1,7
 171 510 171 510 171 499 c 256,8,9
 171 488 171 488 162.5 479.5 c 128,-1,10
 154 471 154 471 143 471 c 0,11,0
 133 471 133 471 126 478 c 128,-1,1
5 -166 m 1,12,-1
 37 -4 l 1,13,-1
 103 328 l 1,14,-1
 123 328 l 1,15,-1
 57 -4 l 1,16,-1
 25 -166 l 1,17,-1
 5 -166 l 1,12,-1
EndSplineSet
Substitution2: "<3,3> Small Caps in Latin lookup 11 subtable" exclamdown.sc
EndChar

StartChar: cent
Encoding: 162 162 101
Width: 577
Flags: W
LayerCount: 2
Fore
SplineSet
199 463.5 m 128,-1,1
 140 430 140 430 106 370 c 128,-1,2
 72 310 72 310 72 235 c 0,3,4
 72 172 72 172 98.5 123 c 128,-1,5
 125 74 125 74 172.5 47 c 128,-1,6
 220 20 220 20 282 20 c 0,7,8
 335 20 335 20 381.5 39.5 c 128,-1,9
 428 59 428 59 463 95 c 1,10,-1
 475 81 l 1,11,12
 437 42 437 42 386.5 21 c 128,-1,13
 336 0 336 0 280 0 c 0,14,15
 262 0 262 0 253 1 c 1,16,-1
 224 -139 l 1,17,-1
 204 -139 l 1,18,-1
 234 4 l 1,19,20
 152 19 152 19 102.5 81.5 c 128,-1,21
 53 144 53 144 53 234 c 0,22,23
 53 314 53 314 90 378.5 c 128,-1,24
 127 443 127 443 191 480 c 128,-1,25
 255 517 255 517 331 517 c 2,26,-1
 333 517 l 1,27,-1
 360 654 l 1,28,-1
 380 654 l 1,29,-1
 353 516 l 1,30,31
 441 509 441 509 500 448 c 1,32,-1
 486 434 l 1,33,34
 423 497 423 497 329 497 c 0,35,0
 258 497 258 497 199 463.5 c 128,-1,1
EndSplineSet
EndChar

StartChar: sterling
Encoding: 163 163 102
Width: 532
Flags: W
LayerCount: 2
Fore
SplineSet
495.5 673.5 m 128,-1,1
 536 648 536 648 560 600 c 1,2,-1
 543 588 l 1,3,4
 521 633 521 633 486 656 c 128,-1,5
 451 679 451 679 404 679 c 0,6,7
 330 679 330 679 280.5 633 c 128,-1,8
 231 587 231 587 214 501 c 2,9,-1
 184 350 l 1,10,-1
 375 350 l 1,11,-1
 371 330 l 1,12,-1
 180 330 l 1,13,-1
 118 20 l 1,14,-1
 434 20 l 1,15,-1
 430 0 l 1,16,-1
 0 0 l 1,17,-1
 4 20 l 1,18,-1
 98 20 l 1,19,-1
 160 330 l 1,20,-1
 66 330 l 1,21,-1
 70 350 l 1,22,-1
 164 350 l 1,23,-1
 195 503 l 2,24,25
 214 598 214 598 267.5 648.5 c 128,-1,26
 321 699 321 699 404 699 c 0,27,0
 455 699 455 699 495.5 673.5 c 128,-1,1
EndSplineSet
EndChar

StartChar: currency
Encoding: 164 164 103
Width: 845
Flags: W
LayerCount: 2
Fore
SplineSet
696 214 m 128,-1,1
 675 165 675 165 637 129 c 1,2,-1
 745 20 l 1,3,-1
 731 6 l 1,4,-1
 622 115 l 1,5,6
 584 82 584 82 535.5 64 c 128,-1,7
 487 46 487 46 434 46 c 256,8,9
 381 46 381 46 333.5 64.5 c 128,-1,10
 286 83 286 83 247 116 c 1,11,-1
 137 6 l 1,12,-1
 123 20 l 1,13,-1
 232 130 l 1,14,15
 195 167 195 167 174.5 215 c 128,-1,16
 154 263 154 263 154 316 c 0,17,18
 154 370 154 370 174.5 418.5 c 128,-1,19
 195 467 195 467 232 505 c 1,20,-1
 123 615 l 1,21,-1
 137 629 l 1,22,-1
 247 519 l 1,23,24
 286 552 286 552 333.5 570.5 c 128,-1,25
 381 589 381 589 434 589 c 256,26,27
 487 589 487 589 535.5 571 c 128,-1,28
 584 553 584 553 622 520 c 1,29,-1
 731 629 l 1,30,-1
 745 615 l 1,31,-1
 637 506 l 1,32,33
 675 468 675 468 696 419 c 128,-1,34
 717 370 717 370 717 316 c 0,35,0
 717 263 717 263 696 214 c 128,-1,1
209 191.5 m 128,-1,37
 244 134 244 134 304 100 c 128,-1,38
 364 66 364 66 434 66 c 0,39,40
 505 66 505 66 565.5 100 c 128,-1,41
 626 134 626 134 661.5 191.5 c 128,-1,42
 697 249 697 249 697 316 c 0,43,44
 697 384 697 384 661.5 442.5 c 128,-1,45
 626 501 626 501 565.5 535 c 128,-1,46
 505 569 505 569 434 569 c 0,47,48
 364 569 364 569 304 535 c 128,-1,49
 244 501 244 501 209 442.5 c 128,-1,50
 174 384 174 384 174 316 c 0,51,36
 174 249 174 249 209 191.5 c 128,-1,37
EndSplineSet
EndChar

StartChar: yen
Encoding: 165 165 104
Width: 606
Flags: W
LayerCount: 2
Fore
SplineSet
684 699 m 1,0,-1
 340 278 l 1,1,-1
 543 278 l 1,2,-1
 539 258 l 1,3,-1
 331 258 l 1,4,-1
 316 168 l 1,5,-1
 526 168 l 1,6,-1
 522 148 l 1,7,-1
 313 148 l 1,8,-1
 288 0 l 1,9,-1
 268 0 l 1,10,-1
 293 148 l 1,11,-1
 80 148 l 1,12,-1
 84 168 l 1,13,-1
 296 168 l 1,14,-1
 311 258 l 1,15,-1
 97 258 l 1,16,-1
 101 278 l 1,17,-1
 309 278 l 1,18,-1
 99 699 l 1,19,-1
 123 699 l 1,20,-1
 325 290 l 1,21,-1
 660 699 l 1,22,-1
 684 699 l 1,0,-1
EndSplineSet
EndChar

StartChar: brokenbar
Encoding: 166 166 105
Width: 221
Flags: W
LayerCount: 2
Fore
SplineSet
234 824 m 1,0,-1
 163 471 l 1,1,-1
 143 471 l 1,2,-1
 214 824 l 1,3,-1
 234 824 l 1,0,-1
114 224 m 1,4,-1
 43 -129 l 1,5,-1
 23 -129 l 1,6,-1
 94 224 l 1,7,-1
 114 224 l 1,4,-1
EndSplineSet
EndChar

StartChar: section
Encoding: 167 167 106
Width: 437
Flags: W
LayerCount: 2
Fore
SplineSet
65.5 -53 m 128,-1,1
 13 -29 13 -29 -19 14 c 1,2,-1
 -2 27 l 1,3,4
 27 -13 27 -13 74 -35 c 128,-1,5
 121 -57 121 -57 178 -57 c 0,6,7
 248 -57 248 -57 292 -24 c 128,-1,8
 336 9 336 9 336 61 c 0,9,10
 336 99 336 99 304.5 122.5 c 128,-1,11
 273 146 273 146 211 172 c 0,12,13
 164 192 164 192 136.5 207.5 c 128,-1,14
 109 223 109 223 90 246.5 c 128,-1,15
 71 270 71 270 71 304 c 0,16,17
 71 367 71 367 120 401 c 128,-1,18
 169 435 169 435 255 432 c 1,19,20
 187 459 187 459 155.5 489.5 c 128,-1,21
 124 520 124 520 124 559 c 0,22,23
 124 617 124 617 168 652 c 128,-1,24
 212 687 212 687 285 687 c 0,25,26
 381 687 381 687 445 634 c 1,27,-1
 430 620 l 1,28,29
 406 643 406 643 367 655.5 c 128,-1,30
 328 668 328 668 282 668 c 0,31,32
 219 668 219 668 181 638.5 c 128,-1,33
 143 609 143 609 143 560 c 0,34,35
 143 532 143 532 160 512.5 c 128,-1,36
 177 493 177 493 201.5 479.5 c 128,-1,37
 226 466 226 466 270 447 c 0,38,39
 315 428 315 428 342.5 412.5 c 128,-1,40
 370 397 370 397 389 374 c 128,-1,41
 408 351 408 351 408 318 c 0,42,43
 408 279 408 279 387.5 246 c 128,-1,44
 367 213 367 213 331.5 194 c 128,-1,45
 296 175 296 175 254 175 c 1,46,47
 306 152 306 152 330.5 124.5 c 128,-1,48
 355 97 355 97 355 62 c 0,49,50
 355 22 355 22 333 -9.5 c 128,-1,51
 311 -41 311 -41 271 -59 c 128,-1,52
 231 -77 231 -77 181 -77 c 0,53,0
 118 -77 118 -77 65.5 -53 c 128,-1,1
347.5 228.5 m 128,-1,55
 388 263 388 263 388 313 c 0,56,57
 388 359 388 359 345.5 386.5 c 128,-1,58
 303 414 303 414 232 414 c 0,59,60
 169 414 169 414 130.5 387 c 128,-1,61
 92 360 92 360 92 316 c 0,62,63
 92 285 92 285 114 256.5 c 128,-1,64
 136 228 136 228 172 211 c 128,-1,65
 208 194 208 194 248 194 c 0,66,54
 307 194 307 194 347.5 228.5 c 128,-1,55
EndSplineSet
EndChar

StartChar: copyright
Encoding: 169 169 108
Width: 790
Flags: W
LayerCount: 2
Fore
SplineSet
584.5 643.5 m 128,-1,1
 662 598 662 598 707 520 c 128,-1,2
 752 442 752 442 752 350 c 0,3,4
 752 259 752 259 707 180.5 c 128,-1,5
 662 102 662 102 584 55.5 c 128,-1,6
 506 9 506 9 412 9 c 0,7,8
 319 9 319 9 241.5 55 c 128,-1,9
 164 101 164 101 119.5 179 c 128,-1,10
 75 257 75 257 75 348 c 256,11,12
 75 439 75 439 120 517.5 c 128,-1,13
 165 596 165 596 242.5 642.5 c 128,-1,14
 320 689 320 689 414 689 c 0,15,0
 507 689 507 689 584.5 643.5 c 128,-1,1
252 625.5 m 128,-1,17
 179 582 179 582 137 508.5 c 128,-1,18
 95 435 95 435 95 348 c 256,19,20
 95 261 95 261 137 188 c 128,-1,21
 179 115 179 115 251.5 72 c 128,-1,22
 324 29 324 29 412 29 c 0,23,24
 501 29 501 29 574 72.5 c 128,-1,25
 647 116 647 116 689.5 189.5 c 128,-1,26
 732 263 732 263 732 350 c 256,27,28
 732 437 732 437 690 510 c 128,-1,29
 648 583 648 583 575 626 c 128,-1,30
 502 669 502 669 414 669 c 0,31,16
 325 669 325 669 252 625.5 c 128,-1,17
486.5 518 m 128,-1,33
 520 505 520 505 546 482 c 1,34,-1
 533 468 l 1,35,36
 484 511 484 511 418 511 c 0,37,38
 372 511 372 511 333.5 489 c 128,-1,39
 295 467 295 467 272.5 430 c 128,-1,40
 250 393 250 393 250 349 c 256,41,42
 250 305 250 305 272.5 267.5 c 128,-1,43
 295 230 295 230 333.5 208 c 128,-1,44
 372 186 372 186 418 186 c 0,45,46
 450 186 450 186 479.5 197.5 c 128,-1,47
 509 209 509 209 533 229 c 1,48,-1
 546 216 l 1,49,50
 520 192 520 192 486.5 179 c 128,-1,51
 453 166 453 166 417 166 c 0,52,53
 366 166 366 166 323 190.5 c 128,-1,54
 280 215 280 215 255 257 c 128,-1,55
 230 299 230 299 230 349 c 0,56,57
 230 398 230 398 255.5 440 c 128,-1,58
 281 482 281 482 324 506.5 c 128,-1,59
 367 531 367 531 418 531 c 0,60,32
 453 531 453 531 486.5 518 c 128,-1,33
EndSplineSet
EndChar

StartChar: ordfeminine
Encoding: 170 170 109
Width: 373
Flags: W
LayerCount: 2
Fore
SplineSet
359 739.5 m 128,-1,1
 385 719 385 719 385 682 c 0,2,3
 385 671 385 671 382 657 c 2,4,-1
 344 458 l 1,5,-1
 324 458 l 1,6,-1
 336 523 l 1,7,8
 284 458 284 458 200 458 c 0,9,10
 158 458 158 458 132.5 478.5 c 128,-1,11
 107 499 107 499 107 531 c 0,12,13
 107 535 107 535 109 547 c 0,14,15
 117 584 117 584 147.5 604 c 128,-1,16
 178 624 178 624 231 624 c 2,17,-1
 356 624 l 1,18,-1
 362 658 l 2,19,20
 364 672 364 672 364 679 c 0,21,22
 364 709 364 709 343.5 725 c 128,-1,23
 323 741 323 741 284 741 c 0,24,25
 230 741 230 741 166 701 c 1,26,-1
 158 717 l 1,27,28
 228 760 228 760 287 760 c 0,29,0
 333 760 333 760 359 739.5 c 128,-1,1
353 608 m 1,30,-1
 231 608 l 2,31,32
 141 608 141 608 129 544 c 0,33,34
 128 539 128 539 128 530 c 0,35,36
 128 504 128 504 147 489.5 c 128,-1,37
 166 475 166 475 199 475 c 0,38,39
 294 475 294 475 342 555 c 1,40,-1
 353 608 l 1,30,-1
EndSplineSet
EndChar

StartChar: logicalnot
Encoding: 172 172 111
Width: 545
Flags: W
LayerCount: 2
Fore
SplineSet
460 360 m 1,0,-1
 420 160 l 1,1,-1
 400 160 l 1,2,-1
 436 340 l 1,3,-1
 56 340 l 1,4,-1
 60 360 l 1,5,-1
 460 360 l 1,0,-1
EndSplineSet
EndChar

StartChar: registered
Encoding: 174 174 113
Width: 790
Flags: W
LayerCount: 2
Fore
SplineSet
584.5 643.5 m 128,-1,1
 662 598 662 598 707 520 c 128,-1,2
 752 442 752 442 752 350 c 0,3,4
 752 259 752 259 707 180.5 c 128,-1,5
 662 102 662 102 584 55.5 c 128,-1,6
 506 9 506 9 412 9 c 0,7,8
 319 9 319 9 241.5 55 c 128,-1,9
 164 101 164 101 119.5 179 c 128,-1,10
 75 257 75 257 75 348 c 256,11,12
 75 439 75 439 120 517.5 c 128,-1,13
 165 596 165 596 242.5 642.5 c 128,-1,14
 320 689 320 689 414 689 c 0,15,0
 507 689 507 689 584.5 643.5 c 128,-1,1
574 72.5 m 128,-1,17
 647 116 647 116 689.5 189.5 c 128,-1,18
 732 263 732 263 732 350 c 256,19,20
 732 437 732 437 690 510 c 128,-1,21
 648 583 648 583 575 626 c 128,-1,22
 502 669 502 669 414 669 c 0,23,24
 325 669 325 669 252 625.5 c 128,-1,25
 179 582 179 582 137 508.5 c 128,-1,26
 95 435 95 435 95 348 c 256,27,28
 95 261 95 261 137 188 c 128,-1,29
 179 115 179 115 251.5 72 c 128,-1,30
 324 29 324 29 412 29 c 0,31,16
 501 29 501 29 574 72.5 c 128,-1,17
538 342 m 128,-1,33
 514 311 514 311 469 300 c 1,34,-1
 564 168 l 1,35,-1
 539 168 l 1,36,-1
 448 296 l 1,37,38
 428 294 428 294 417 294 c 2,39,-1
 306 294 l 1,40,-1
 306 168 l 1,41,-1
 286 168 l 1,42,-1
 286 543 l 1,43,-1
 417 543 l 2,44,45
 487 543 487 543 524.5 511.5 c 128,-1,46
 562 480 562 480 562 421 c 0,47,32
 562 373 562 373 538 342 c 128,-1,33
417 314 m 2,48,49
 476 314 476 314 509 342 c 128,-1,50
 542 370 542 370 542 421 c 0,51,52
 542 471 542 471 509.5 497 c 128,-1,53
 477 523 477 523 417 523 c 2,54,-1
 306 523 l 1,55,-1
 306 314 l 1,56,-1
 417 314 l 2,48,49
EndSplineSet
EndChar

StartChar: degree
Encoding: 176 176 115
Width: 304
Flags: W
LayerCount: 2
Fore
SplineSet
332 781 m 128,-1,1
 358 766 358 766 373.5 741 c 128,-1,2
 389 716 389 716 389 687 c 0,3,4
 389 643 389 643 355.5 611 c 128,-1,5
 322 579 322 579 276 579 c 0,6,7
 231 579 231 579 197.5 611.5 c 128,-1,8
 164 644 164 644 164 687 c 0,9,10
 164 715 164 715 179.5 740.5 c 128,-1,11
 195 766 195 766 221 781 c 128,-1,12
 247 796 247 796 276 796 c 0,13,0
 306 796 306 796 332 781 c 128,-1,1
211.5 749.5 m 128,-1,15
 184 723 184 723 184 687 c 256,16,17
 184 651 184 651 211 625 c 128,-1,18
 238 599 238 599 276 599 c 256,19,20
 314 599 314 599 341.5 625 c 128,-1,21
 369 651 369 651 369 687 c 256,22,23
 369 723 369 723 341.5 749.5 c 128,-1,24
 314 776 314 776 276 776 c 0,25,14
 239 776 239 776 211.5 749.5 c 128,-1,15
EndSplineSet
EndChar

StartChar: uni00B5
Encoding: 181 181 120
Width: 668
Flags: W
LayerCount: 2
Fore
SplineSet
608 517 m 1,0,-1
 506 0 l 1,1,-1
 486 0 l 1,2,-1
 515 149 l 1,3,4
 477 79 477 79 414 40.5 c 128,-1,5
 351 2 351 2 271 0 c 0,6,7
 203 0 203 0 161 26.5 c 128,-1,8
 119 53 119 53 105 103 c 1,9,-1
 46 -194 l 1,10,-1
 26 -194 l 1,11,-1
 102 188 l 1,12,-1
 105 204 l 1,13,-1
 167 517 l 1,14,-1
 188 517 l 1,15,-1
 122 188 l 2,16,17
 120 177 120 177 120 155 c 0,18,19
 120 90 120 90 159 55 c 128,-1,20
 198 20 198 20 271 20 c 0,21,22
 372 22 372 22 443.5 83 c 128,-1,23
 515 144 515 144 536 251 c 2,24,-1
 588 517 l 1,25,-1
 608 517 l 1,0,-1
EndSplineSet
EndChar

StartChar: paragraph
Encoding: 182 182 121
Width: 557
Flags: W
LayerCount: 2
Fore
SplineSet
355 -112 m 1,0,-1
 335 -112 l 1,1,-1
 501 722 l 1,2,-1
 319 722 l 1,3,-1
 153 -112 l 1,4,-1
 133 -112 l 1,5,-1
 239 419 l 1,6,7
 211 417 211 417 200 417 c 0,8,9
 128 417 128 417 97 452.5 c 128,-1,10
 66 488 66 488 66 540 c 0,11,12
 66 554 66 554 70 576 c 0,13,14
 84 646 84 646 142 694 c 128,-1,15
 200 742 200 742 299 742 c 2,16,-1
 525 742 l 1,17,-1
 355 -112 l 1,0,-1
EndSplineSet
EndChar

StartChar: ordmasculine
Encoding: 186 186 125
Width: 398
Flags: W
LayerCount: 2
Fore
SplineSet
384 722.5 m 128,-1,1
 423 685 423 685 423 626 c 0,2,3
 423 578 423 578 400.5 540 c 128,-1,4
 378 502 378 502 339.5 480 c 128,-1,5
 301 458 301 458 255 458 c 0,6,7
 192 458 192 458 153.5 495 c 128,-1,8
 115 532 115 532 115 592 c 0,9,10
 115 639 115 639 137.5 677.5 c 128,-1,11
 160 716 160 716 198.5 738 c 128,-1,12
 237 760 237 760 283 760 c 0,13,0
 345 760 345 760 384 722.5 c 128,-1,1
208 722 m 128,-1,15
 174 703 174 703 154.5 669 c 128,-1,16
 135 635 135 635 135 592 c 0,17,18
 135 540 135 540 168.5 508 c 128,-1,19
 202 476 202 476 255 476 c 0,20,21
 318 476 318 476 360 518 c 128,-1,22
 402 560 402 560 402 626 c 0,23,24
 402 677 402 677 369 709 c 128,-1,25
 336 741 336 741 283 741 c 0,26,14
 242 741 242 741 208 722 c 128,-1,15
EndSplineSet
EndChar

StartChar: questiondown
Encoding: 191 191 130
Width: 398
Flags: W
LayerCount: 2
Fore
SplineSet
199 478 m 128,-1,1
 192 485 192 485 192 495 c 0,2,3
 192 506 192 506 200.5 514.5 c 128,-1,4
 209 523 209 523 220 523 c 256,5,6
 231 523 231 523 237.5 516.5 c 128,-1,7
 244 510 244 510 244 499 c 256,8,9
 244 488 244 488 235.5 479.5 c 128,-1,10
 227 471 227 471 216 471 c 0,11,0
 206 471 206 471 199 478 c 128,-1,1
274.5 -125 m 128,-1,13
 225 -163 225 -163 149 -163 c 0,14,15
 74 -163 74 -163 30.5 -126 c 128,-1,16
 -13 -89 -13 -89 -13 -23 c 0,17,18
 -13 14 -13 14 0.5 44.5 c 128,-1,19
 14 75 14 75 34 98.5 c 128,-1,20
 54 122 54 122 87 155 c 0,21,22
 133 201 133 201 156 234 c 128,-1,23
 179 267 179 267 180 310 c 1,24,-1
 200 310 l 1,25,26
 199 263 199 263 175 228 c 128,-1,27
 151 193 151 193 104 146 c 0,28,29
 55 97 55 97 31 61 c 128,-1,30
 7 25 7 25 7 -24 c 0,31,32
 7 -81 7 -81 44.5 -112 c 128,-1,33
 82 -143 82 -143 149 -143 c 0,34,35
 218 -143 218 -143 261 -110.5 c 128,-1,36
 304 -78 304 -78 314 -18 c 1,37,-1
 334 -20 l 1,38,12
 324 -87 324 -87 274.5 -125 c 128,-1,13
EndSplineSet
Substitution2: "<3,3> Small Caps in Latin lookup 11 subtable" questiondown.sc
EndChar

StartChar: AE
Encoding: 198 198 137
Width: 987
Flags: W
LayerCount: 2
Fore
SplineSet
575 679 m 1,0,-1
 513 370 l 1,1,-1
 884 370 l 1,2,-1
 880 350 l 1,3,-1
 509 350 l 1,4,-1
 443 20 l 1,5,-1
 874 20 l 1,6,-1
 870 0 l 1,7,-1
 419 0 l 1,8,-1
 464 223 l 1,9,-1
 161 223 l 1,10,-1
 -18 0 l 1,11,-1
 -42 0 l 1,12,-1
 519 699 l 1,13,-1
 996 699 l 1,14,-1
 992 679 l 1,15,-1
 575 679 l 1,0,-1
468 243 m 1,16,-1
 555 679 l 1,17,-1
 526 679 l 1,18,-1
 177 243 l 1,19,-1
 468 243 l 1,16,-1
EndSplineSet
EndChar

StartChar: Ccedilla
Encoding: 199 199 138
Width: 732
Flags: W
LayerCount: 2
Fore
SplineSet
287.5 639 m 128,-1,1
 205 594 205 594 152 517.5 c 128,-1,2
 99 441 99 441 90 350 c 0,3,4
 88 328 88 328 88 318 c 0,5,6
 88 235 88 235 128.5 165.5 c 128,-1,7
 169 96 169 96 239 56 c 128,-1,8
 309 16 309 16 395 16 c 0,9,10
 460 16 460 16 521 38.5 c 128,-1,11
 582 61 582 61 631 102 c 1,12,-1
 644 89 l 1,13,14
 590 45 590 45 526 21 c 128,-1,15
 462 -3 462 -3 395 -3 c 0,16,17
 382 -3 382 -3 376 -2 c 1,18,-1
 351 -54 l 1,19,20
 384 -55 384 -55 401.5 -73 c 128,-1,21
 419 -91 419 -91 419 -117 c 0,22,23
 419 -140 419 -140 405.5 -162.5 c 128,-1,24
 392 -185 392 -185 367.5 -199 c 128,-1,25
 343 -213 343 -213 312 -213 c 0,26,27
 293 -213 293 -213 273 -207 c 128,-1,28
 253 -201 253 -201 243 -191 c 1,29,-1
 256 -171 l 1,30,31
 266 -180 266 -180 283 -186 c 128,-1,32
 300 -192 300 -192 316 -192 c 0,33,34
 352 -192 352 -192 374.5 -170 c 128,-1,35
 397 -148 397 -148 397 -121 c 0,36,37
 397 -100 397 -100 384.5 -86.5 c 128,-1,38
 372 -73 372 -73 350 -73 c 2,39,-1
 321 -73 l 1,40,-1
 355 -1 l 1,41,42
 273 8 273 8 208 52.5 c 128,-1,43
 143 97 143 97 106 166 c 128,-1,44
 69 235 69 235 69 317 c 0,45,46
 69 328 69 328 71 352 c 0,47,48
 80 447 80 447 136.5 527.5 c 128,-1,49
 193 608 193 608 280 655.5 c 128,-1,50
 367 703 367 703 463 703 c 0,51,52
 532 703 532 703 591.5 679 c 128,-1,53
 651 655 651 655 695 612 c 1,54,-1
 681 599 l 1,55,56
 639 640 639 640 583 662 c 128,-1,57
 527 684 527 684 463 684 c 0,58,0
 370 684 370 684 287.5 639 c 128,-1,1
EndSplineSet
EndChar

StartChar: multiply
Encoding: 215 215 154
Width: 533
Flags: W
LayerCount: 2
Fore
SplineSet
427 454 m 1,0,-1
 293 320 l 1,1,-1
 427 186 l 1,2,-1
 413 172 l 1,3,-1
 279 306 l 1,4,-1
 145 172 l 1,5,-1
 131 186 l 1,6,-1
 265 320 l 1,7,-1
 131 454 l 1,8,-1
 145 468 l 1,9,-1
 279 334 l 1,10,-1
 413 468 l 1,11,-1
 427 454 l 1,0,-1
EndSplineSet
EndChar

StartChar: Oslash
Encoding: 216 216 155
Width: 822
Flags: W
LayerCount: 2
Fore
SplineSet
756 530.5 m 128,-1,1
 791 463 791 463 791 383 c 0,2,3
 791 373 791 373 789 349 c 0,4,5
 780 255 780 255 723 174 c 128,-1,6
 666 93 666 93 578.5 45 c 128,-1,7
 491 -3 491 -3 395 -3 c 0,8,9
 301 -3 301 -3 223 43 c 1,10,-1
 152 -55 l 1,11,-1
 129 -55 l 1,12,-1
 208 53 l 1,13,14
 143 96 143 96 106 166 c 128,-1,15
 69 236 69 236 69 318 c 0,16,17
 69 330 69 330 71 352 c 0,18,19
 80 447 80 447 136.5 527.5 c 128,-1,20
 193 608 193 608 280 655.5 c 128,-1,21
 367 703 367 703 463 703 c 0,22,23
 562 703 562 703 643 652 c 1,24,-1
 718 755 l 1,25,-1
 741 755 l 1,26,-1
 659 642 l 1,27,0
 721 598 721 598 756 530.5 c 128,-1,1
89 317 m 0,29,30
 89 241 89 241 124 175.5 c 128,-1,31
 159 110 159 110 219 69 c 1,32,-1
 631 636 l 1,33,34
 556 683 556 683 463 683 c 0,35,36
 371 683 371 683 288.5 638 c 128,-1,37
 206 593 206 593 153 516.5 c 128,-1,38
 100 440 100 440 91 350 c 0,39,28
 89 328 89 328 89 317 c 0,29,30
771 382 m 0,41,42
 771 457 771 457 738 520.5 c 128,-1,43
 705 584 705 584 647 625 c 1,44,-1
 235 59 l 1,45,46
 307 17 307 17 395 17 c 0,47,48
 487 17 487 17 570 62 c 128,-1,49
 653 107 653 107 706.5 184 c 128,-1,50
 760 261 760 261 769 351 c 0,51,40
 771 373 771 373 771 382 c 0,41,42
EndSplineSet
EndChar

StartChar: Thorn
Encoding: 222 222 161
Width: 675
Flags: W
LayerCount: 2
Fore
SplineSet
659 411 m 0,1,2
 659 280 659 280 572.5 211 c 128,-1,3
 486 142 486 142 311 142 c 2,4,-1
 124 142 l 1,5,-1
 96 0 l 1,6,-1
 76 0 l 1,7,-1
 216 699 l 1,8,-1
 236 699 l 1,9,-1
 214 587 l 1,10,-1
 400 587 l 2,11,0
 659 587 659 587 659 411 c 0,1,2
558 224.5 m 128,-1,13
 638 287 638 287 638 406 c 0,14,15
 638 567 638 567 396 567 c 2,16,-1
 210 567 l 1,17,-1
 128 162 l 1,18,-1
 315 162 l 2,19,12
 478 162 478 162 558 224.5 c 128,-1,13
EndSplineSet
EndChar

StartChar: germandbls
Encoding: 223 223 162
Width: 641
Flags: W
LayerCount: 2
Fore
SplineSet
551.5 704 m 128,-1,1
 597 666 597 666 597 600 c 0,2,3
 597 583 597 583 592 558 c 0,4,5
 578 488 578 488 528 439 c 128,-1,6
 478 390 478 390 407 377 c 1,7,8
 478 369 478 369 519 329 c 128,-1,9
 560 289 560 289 560 230 c 0,10,11
 560 219 560 219 556 195 c 0,12,13
 538 106 538 106 463.5 53 c 128,-1,14
 389 0 389 0 280 0 c 2,15,-1
 224 0 l 1,16,-1
 228 20 l 1,17,-1
 282 20 l 2,18,19
 381 20 381 20 450.5 69 c 128,-1,20
 520 118 520 118 537 199 c 0,21,22
 540 216 540 216 540 230 c 0,23,24
 540 293 540 293 488 329 c 128,-1,25
 436 365 436 365 344 365 c 2,26,-1
 338 365 l 1,27,-1
 341 385 l 1,28,29
 430 385 430 385 493.5 433.5 c 128,-1,30
 557 482 557 482 573 562 c 0,31,32
 577 579 577 579 577 598 c 0,33,34
 577 655 577 655 537 688.5 c 128,-1,35
 497 722 497 722 426 722 c 0,36,37
 334 722 334 722 266 660 c 128,-1,38
 198 598 198 598 178 495 c 2,39,-1
 79 0 l 1,40,-1
 59 0 l 1,41,-1
 158 497 l 2,42,43
 181 609 181 609 253.5 675.5 c 128,-1,44
 326 742 326 742 426 742 c 0,45,0
 506 742 506 742 551.5 704 c 128,-1,1
EndSplineSet
Substitution2: "<3,3> Small Caps in Latin lookup 11 subtable" germandbls.sc
EndChar

StartChar: ae
Encoding: 230 230 169
Width: 971
Flags: W
LayerCount: 2
Fore
SplineSet
78.5 37.5 m 128,-1,1
 35 75 35 75 35 136 c 0,2,3
 35 204 35 204 90.5 243 c 128,-1,4
 146 282 146 282 241 282 c 2,5,-1
 434 282 l 1,6,-1
 438 345 l 2,7,8
 439 351 439 351 439 364 c 0,9,10
 439 428 439 428 400 462.5 c 128,-1,11
 361 497 361 497 287 497 c 0,12,13
 240 497 240 497 195.5 480 c 128,-1,14
 151 463 151 463 98 425 c 1,15,-1
 88 441 l 1,16,17
 141 480 141 480 189.5 498.5 c 128,-1,18
 238 517 238 517 287 517 c 0,19,20
 370 517 370 517 415 475.5 c 128,-1,21
 460 434 460 434 458 359 c 1,22,23
 492 432 492 432 558 474.5 c 128,-1,24
 624 517 624 517 704 517 c 0,25,26
 770 517 770 517 819.5 488 c 128,-1,27
 869 459 869 459 896.5 407 c 128,-1,28
 924 355 924 355 924 288 c 0,29,30
 924 269 924 269 923 259 c 1,31,-1
 453 259 l 1,32,-1
 450 232 l 1,33,-1
 449 217 l 2,34,35
 449 165 449 165 478 119.5 c 128,-1,36
 507 74 507 74 556 47 c 128,-1,37
 605 20 605 20 661 20 c 256,38,39
 717 20 717 20 765.5 39 c 128,-1,40
 814 58 814 58 851 95 c 1,41,-1
 864 81 l 1,42,43
 824 42 824 42 771.5 21 c 128,-1,44
 719 0 719 0 661 0 c 0,45,46
 580 0 580 0 518.5 44.5 c 128,-1,47
 457 89 457 89 436 160 c 1,48,49
 356 0 356 0 193 0 c 0,50,0
 122 0 122 0 78.5 37.5 c 128,-1,1
904 279 m 1,51,52
 905 344 905 344 881 393.5 c 128,-1,53
 857 443 857 443 811 470 c 128,-1,54
 765 497 765 497 704 497 c 0,55,56
 641 497 641 497 587.5 469.5 c 128,-1,57
 534 442 534 442 499.5 392.5 c 128,-1,58
 465 343 465 343 455 279 c 1,59,-1
 904 279 l 1,51,52
330.5 58.5 m 128,-1,61
 385 97 385 97 426 184 c 1,62,-1
 433 262 l 1,63,-1
 239 262 l 2,64,65
 152 262 152 262 103.5 229 c 128,-1,66
 55 196 55 196 55 135 c 0,67,68
 55 83 55 83 93 51.5 c 128,-1,69
 131 20 131 20 193 20 c 0,70,60
 276 20 276 20 330.5 58.5 c 128,-1,61
EndSplineSet
Substitution2: "<3,3> Small Caps in Latin lookup 11 subtable" ae.sc
EndChar

StartChar: ccedilla
Encoding: 231 231 170
Width: 577
Flags: W
LayerCount: 2
Fore
SplineSet
199 463.5 m 128,-1,1
 140 430 140 430 106 370 c 128,-1,2
 72 310 72 310 72 235 c 0,3,4
 72 172 72 172 98.5 123 c 128,-1,5
 125 74 125 74 172.5 47 c 128,-1,6
 220 20 220 20 282 20 c 0,7,8
 335 20 335 20 381.5 39.5 c 128,-1,9
 428 59 428 59 463 95 c 1,10,-1
 475 81 l 1,11,12
 437 42 437 42 386.5 21 c 128,-1,13
 336 0 336 0 280 0 c 2,14,-1
 277 0 l 1,15,-1
 277 0 l 1,16,-1
 251 -54 l 1,17,18
 284 -55 284 -55 301.5 -73 c 128,-1,19
 319 -91 319 -91 319 -117 c 0,20,21
 319 -140 319 -140 305.5 -162.5 c 128,-1,22
 292 -185 292 -185 267.5 -199 c 128,-1,23
 243 -213 243 -213 212 -213 c 0,24,25
 193 -213 193 -213 173 -207 c 128,-1,26
 153 -201 153 -201 143 -191 c 1,27,-1
 156 -171 l 1,28,29
 166 -180 166 -180 183 -186 c 128,-1,30
 200 -192 200 -192 216 -192 c 0,31,32
 252 -192 252 -192 274.5 -170 c 128,-1,33
 297 -148 297 -148 297 -121 c 0,34,35
 297 -100 297 -100 284.5 -86.5 c 128,-1,36
 272 -73 272 -73 250 -73 c 2,37,-1
 221 -73 l 1,38,-1
 256 1 l 1,39,40
 196 6 196 6 150 37 c 128,-1,41
 104 68 104 68 78.5 119 c 128,-1,42
 53 170 53 170 53 234 c 0,43,44
 53 314 53 314 90 378.5 c 128,-1,45
 127 443 127 443 191 480 c 128,-1,46
 255 517 255 517 331 517 c 0,47,48
 382 517 382 517 425.5 499 c 128,-1,49
 469 481 469 481 500 448 c 1,50,-1
 486 434 l 1,51,52
 423 497 423 497 329 497 c 0,53,0
 258 497 258 497 199 463.5 c 128,-1,1
EndSplineSet
Substitution2: "<3,3> Small Caps in Latin lookup 11 subtable" ccedilla.sc
EndChar

StartChar: eth
Encoding: 240 240 179
Width: 571
Flags: W
LayerCount: 2
Fore
SplineSet
381 613 m 1,0,1
 446 536 446 536 481 448.5 c 128,-1,2
 516 361 516 361 516 274 c 0,3,4
 516 146 516 146 449.5 73.5 c 128,-1,5
 383 1 383 1 265 1 c 0,6,7
 168 1 168 1 110.5 53 c 128,-1,8
 53 105 53 105 53 193 c 0,9,10
 53 264 53 264 84 319.5 c 128,-1,11
 115 375 115 375 171 406 c 128,-1,12
 227 437 227 437 299 437 c 0,13,14
 374 437 374 437 429 402 c 128,-1,15
 484 367 484 367 501 308 c 1,16,17
 491 385 491 385 454.5 461.5 c 128,-1,18
 418 538 418 538 361 604 c 1,19,-1
 177 526 l 1,20,-1
 170 543 l 1,21,-1
 348 619 l 1,22,23
 288 684 288 684 219 727 c 1,24,-1
 233 744 l 1,25,26
 312 691 312 691 369 627 c 1,27,-1
 516 690 l 1,28,-1
 523 673 l 1,29,-1
 381 613 l 1,0,1
384 49 m 128,-1,31
 436 77 436 77 464.5 127.5 c 128,-1,32
 493 178 493 178 493 243 c 0,33,34
 493 323 493 323 440.5 370 c 128,-1,35
 388 417 388 417 298 417 c 0,36,37
 232 417 232 417 181 389.5 c 128,-1,38
 130 362 130 362 102 311.5 c 128,-1,39
 74 261 74 261 74 196 c 0,40,41
 74 116 74 116 125 68.5 c 128,-1,42
 176 21 176 21 264 21 c 0,43,30
 332 21 332 21 384 49 c 128,-1,31
EndSplineSet
Substitution2: "<3,3> Small Caps in Latin lookup 11 subtable" eth.sc
EndChar

StartChar: divide
Encoding: 247 247 186
Width: 480
Flags: W
LayerCount: 2
Fore
SplineSet
313 514.5 m 128,-1,1
 319 508 319 508 319 499 c 0,2,3
 319 487 319 487 309 478 c 128,-1,4
 299 469 299 469 287 469 c 0,5,6
 278 469 278 469 272 475.5 c 128,-1,7
 266 482 266 482 266 491 c 0,8,9
 266 503 266 503 276 512 c 128,-1,10
 286 521 286 521 298 521 c 0,11,0
 307 521 307 521 313 514.5 c 128,-1,1
454 330 m 1,12,-1
 450 310 l 1,13,-1
 50 310 l 1,14,-1
 54 330 l 1,15,-1
 454 330 l 1,12,-1
244 164.5 m 128,-1,17
 250 158 250 158 250 149 c 0,18,19
 250 137 250 137 240 128 c 128,-1,20
 230 119 230 119 218 119 c 0,21,22
 209 119 209 119 203 125.5 c 128,-1,23
 197 132 197 132 197 141 c 0,24,25
 197 153 197 153 207 162 c 128,-1,26
 217 171 217 171 229 171 c 0,27,16
 238 171 238 171 244 164.5 c 128,-1,17
EndSplineSet
EndChar

StartChar: oslash
Encoding: 248 248 187
Width: 611
Flags: W
LayerCount: 2
Fore
SplineSet
534 395.5 m 128,-1,1
 558 346 558 346 558 284 c 0,2,3
 558 204 558 204 521 139 c 128,-1,4
 484 74 484 74 420 37 c 128,-1,5
 356 0 356 0 280 0 c 0,6,7
 209 0 209 0 155 34 c 1,8,-1
 54 -110 l 1,9,-1
 33 -110 l 1,10,-1
 141 44 l 1,11,12
 99 75 99 75 76 124 c 128,-1,13
 53 173 53 173 53 234 c 0,14,15
 53 314 53 314 90 378.5 c 128,-1,16
 127 443 127 443 191 480 c 128,-1,17
 255 517 255 517 331 517 c 0,18,19
 400 517 400 517 452 485 c 1,20,-1
 552 627 l 1,21,-1
 573 627 l 1,22,-1
 467 476 l 1,23,0
 510 445 510 445 534 395.5 c 128,-1,1
94 134 m 128,-1,25
 115 89 115 89 153 60 c 1,26,-1
 440 469 l 1,27,28
 392 497 392 497 329 497 c 0,29,30
 258 497 258 497 199.5 463.5 c 128,-1,31
 141 430 141 430 107 370 c 128,-1,32
 73 310 73 310 73 235 c 0,33,24
 73 179 73 179 94 134 c 128,-1,25
411.5 53.5 m 128,-1,35
 470 87 470 87 504 147 c 128,-1,36
 538 207 538 207 538 283 c 0,37,38
 538 340 538 340 516 385.5 c 128,-1,39
 494 431 494 431 455 459 c 1,40,-1
 167 51 l 1,41,42
 217 20 217 20 282 20 c 0,43,34
 353 20 353 20 411.5 53.5 c 128,-1,35
EndSplineSet
Substitution2: "<3,3> Small Caps in Latin lookup 11 subtable" oslash.sc
EndChar

StartChar: thorn
Encoding: 254 254 193
Width: 676
Flags: W
LayerCount: 2
Fore
SplineSet
513.5 490.5 m 128,-1,1
 566 462 566 462 595.5 410.5 c 128,-1,2
 625 359 625 359 625 293 c 0,3,4
 625 212 625 212 587.5 144.5 c 128,-1,5
 550 77 550 77 486 37.5 c 128,-1,6
 422 -2 422 -2 346 -2 c 0,7,8
 258 -2 258 -2 196 47 c 128,-1,9
 134 96 134 96 119 177 c 1,10,-1
 45 -194 l 1,11,-1
 25 -194 l 1,12,-1
 213 742 l 1,13,-1
 233 742 l 1,14,-1
 161 389 l 1,15,16
 200 451 200 451 261.5 485 c 128,-1,17
 323 519 323 519 394 519 c 0,18,0
 461 519 461 519 513.5 490.5 c 128,-1,1
263 462.5 m 128,-1,20
 204 426 204 426 169.5 363.5 c 128,-1,21
 135 301 135 301 135 227 c 0,22,23
 135 166 135 166 162 118.5 c 128,-1,24
 189 71 189 71 237.5 44.5 c 128,-1,25
 286 18 286 18 348 18 c 0,26,27
 418 18 418 18 477 54.5 c 128,-1,28
 536 91 536 91 570.5 153.5 c 128,-1,29
 605 216 605 216 605 290 c 0,30,31
 605 351 605 351 578 398.5 c 128,-1,32
 551 446 551 446 502.5 472.5 c 128,-1,33
 454 499 454 499 392 499 c 0,34,19
 322 499 322 499 263 462.5 c 128,-1,20
EndSplineSet
Substitution2: "<3,3> Small Caps in Latin lookup 11 subtable" thorn.sc
EndChar

StartChar: Aogonek
Encoding: 260 260 199
Width: 686
Flags: W
LayerCount: 2
Fore
SplineSet
580 -173 m 1,1,-1
 586 -189 l 1,2,3
 547 -213 547 -213 511 -213 c 0,4,5
 483 -213 483 -213 467.5 -197.5 c 128,-1,6
 452 -182 452 -182 452 -154 c 0,7,8
 452 -109 452 -109 486.5 -74 c 128,-1,9
 521 -39 521 -39 599 6 c 1,10,-1
 538 213 l 1,11,-1
 114 213 l 1,12,-1
 -18 0 l 1,13,-1
 -42 0 l 1,14,-1
 394 699 l 1,15,-1
 416 699 l 1,16,-1
 624 0 l 1,17,18
 542 -47 542 -47 507.5 -80 c 128,-1,19
 473 -113 473 -113 473 -151 c 0,20,21
 473 -171 473 -171 485 -182 c 128,-1,22
 497 -193 497 -193 516 -193 c 0,23,0
 545 -193 545 -193 580 -173 c 1,1,-1
126 233 m 1,24,-1
 532 233 l 1,25,-1
 401 676 l 1,26,-1
 126 233 l 1,24,-1
EndSplineSet
EndChar

StartChar: aogonek
Encoding: 261 261 200
Width: 671
Flags: W
LayerCount: 2
Fore
SplineSet
392.5 -80 m 128,-1,1
 358 -113 358 -113 358 -151 c 0,2,3
 358 -171 358 -171 370 -182 c 128,-1,4
 382 -193 382 -193 401 -193 c 0,5,6
 430 -193 430 -193 465 -173 c 1,7,-1
 471 -189 l 1,8,9
 432 -213 432 -213 396 -213 c 0,10,11
 368 -213 368 -213 352.5 -197.5 c 128,-1,12
 337 -182 337 -182 337 -154 c 0,13,14
 337 -108 337 -108 373 -72.5 c 128,-1,15
 409 -37 409 -37 491 9 c 1,16,-1
 515 128 l 1,17,18
 476 66 476 66 414.5 32 c 128,-1,19
 353 -2 353 -2 282 -2 c 0,20,21
 215 -2 215 -2 162.5 26.5 c 128,-1,22
 110 55 110 55 80.5 106.5 c 128,-1,23
 51 158 51 158 51 224 c 0,24,25
 51 305 51 305 88.5 372.5 c 128,-1,26
 126 440 126 440 190 479.5 c 128,-1,27
 254 519 254 519 330 519 c 0,28,29
 418 519 418 519 480 470 c 128,-1,30
 542 421 542 421 557 340 c 1,31,-1
 592 517 l 1,32,-1
 612 517 l 1,33,-1
 509 0 l 1,34,0
 427 -47 427 -47 392.5 -80 c 128,-1,1
413 54.5 m 128,-1,36
 472 91 472 91 506.5 153.5 c 128,-1,37
 541 216 541 216 541 290 c 0,38,39
 541 351 541 351 514 398.5 c 128,-1,40
 487 446 487 446 438.5 472.5 c 128,-1,41
 390 499 390 499 328 499 c 0,42,43
 258 499 258 499 199 462.5 c 128,-1,44
 140 426 140 426 105.5 363.5 c 128,-1,45
 71 301 71 301 71 227 c 0,46,47
 71 166 71 166 98 118.5 c 128,-1,48
 125 71 125 71 173.5 44.5 c 128,-1,49
 222 18 222 18 284 18 c 0,50,35
 354 18 354 18 413 54.5 c 128,-1,36
EndSplineSet
Substitution2: "<3,3> Small Caps in Latin lookup 11 subtable" aogonek.sc
EndChar

StartChar: Dcroat
Encoding: 272 272 211
Width: 812
Flags: W
LayerCount: 2
Fore
SplineSet
632.5 660 m 128,-1,1
 703 621 703 621 743 553 c 128,-1,2
 783 485 783 485 783 401 c 0,3,4
 783 372 783 372 779 348 c 0,5,6
 765 254 765 254 704.5 174 c 128,-1,7
 644 94 644 94 555 47 c 128,-1,8
 466 0 466 0 369 0 c 2,9,-1
 77 0 l 1,10,-1
 145 340 l 1,11,-1
 67 340 l 1,12,-1
 71 360 l 1,13,-1
 149 360 l 1,14,-1
 216 699 l 1,15,-1
 474 699 l 2,16,0
 562 699 562 699 632.5 660 c 128,-1,1
764 397 m 0,18,19
 764 476 764 476 726 540.5 c 128,-1,20
 688 605 688 605 621.5 642 c 128,-1,21
 555 679 555 679 471 679 c 2,22,-1
 232 679 l 1,23,-1
 169 360 l 1,24,-1
 431 360 l 1,25,-1
 427 340 l 1,26,-1
 165 340 l 1,27,-1
 101 20 l 1,28,-1
 372 20 l 2,29,30
 463 20 463 20 547.5 64.5 c 128,-1,31
 632 109 632 109 689 184.5 c 128,-1,32
 746 260 746 260 760 350 c 0,33,17
 764 382 764 382 764 397 c 0,18,19
EndSplineSet
EndChar

StartChar: dcroat
Encoding: 273 273 212
Width: 691
Flags: W
LayerCount: 2
Fore
SplineSet
713 619 m 1,0,-1
 632 619 l 1,1,-1
 509 0 l 1,2,-1
 489 0 l 1,3,-1
 515 128 l 1,4,5
 476 66 476 66 414.5 32 c 128,-1,6
 353 -2 353 -2 282 -2 c 0,7,8
 215 -2 215 -2 162.5 26.5 c 128,-1,9
 110 55 110 55 80.5 106.5 c 128,-1,10
 51 158 51 158 51 224 c 0,11,12
 51 305 51 305 88.5 372.5 c 128,-1,13
 126 440 126 440 190 479.5 c 128,-1,14
 254 519 254 519 330 519 c 0,15,16
 418 519 418 519 480 470 c 128,-1,17
 542 421 542 421 557 340 c 1,18,-1
 613 619 l 1,19,-1
 363 619 l 1,20,-1
 367 639 l 1,21,-1
 617 639 l 1,22,-1
 637 742 l 1,23,-1
 657 742 l 1,24,-1
 636 639 l 1,25,-1
 717 639 l 1,26,-1
 713 619 l 1,0,-1
413 54.5 m 128,-1,28
 472 91 472 91 506.5 153.5 c 128,-1,29
 541 216 541 216 541 290 c 0,30,31
 541 351 541 351 514 398.5 c 128,-1,32
 487 446 487 446 438.5 472.5 c 128,-1,33
 390 499 390 499 328 499 c 0,34,35
 258 499 258 499 199 462.5 c 128,-1,36
 140 426 140 426 105.5 363.5 c 128,-1,37
 71 301 71 301 71 227 c 0,38,39
 71 166 71 166 98 118.5 c 128,-1,40
 125 71 125 71 173.5 44.5 c 128,-1,41
 222 18 222 18 284 18 c 0,42,27
 354 18 354 18 413 54.5 c 128,-1,28
EndSplineSet
Substitution2: "<3,3> Small Caps in Latin lookup 11 subtable" dcroat.sc
EndChar

StartChar: Eogonek
Encoding: 280 280 219
Width: 644
Flags: W
LayerCount: 2
Fore
SplineSet
232 679 m 1,0,-1
 170 370 l 1,1,-1
 541 370 l 1,2,-1
 537 350 l 1,3,-1
 166 350 l 1,4,-1
 100 20 l 1,5,-1
 531 20 l 1,6,-1
 527 0 l 1,7,8
 445 -47 445 -47 410.5 -80 c 128,-1,9
 376 -113 376 -113 376 -151 c 0,10,11
 376 -171 376 -171 388 -182 c 128,-1,12
 400 -193 400 -193 419 -193 c 0,13,14
 448 -193 448 -193 483 -173 c 1,15,-1
 489 -189 l 1,16,17
 450 -213 450 -213 414 -213 c 0,18,19
 386 -213 386 -213 370.5 -197.5 c 128,-1,20
 355 -182 355 -182 355 -154 c 0,21,22
 355 -110 355 -110 387.5 -76 c 128,-1,23
 420 -42 420 -42 493 0 c 1,24,-1
 76 0 l 1,25,-1
 216 699 l 1,26,-1
 653 699 l 1,27,-1
 649 679 l 1,28,-1
 232 679 l 1,0,-1
EndSplineSet
EndChar

StartChar: eogonek
Encoding: 281 281 220
Width: 592
Flags: W
LayerCount: 2
Fore
SplineSet
74 259 m 1,0,1
 73 251 73 251 73 235 c 0,2,3
 73 172 73 172 99 123 c 128,-1,4
 125 74 125 74 172 47 c 128,-1,5
 219 20 219 20 280 20 c 0,6,7
 336 20 336 20 385.5 39.5 c 128,-1,8
 435 59 435 59 470 95 c 1,9,-1
 483 81 l 1,10,11
 461 59 461 59 437 45 c 0,12,13
 352 -16 352 -16 307.5 -64.5 c 128,-1,14
 263 -113 263 -113 263 -151 c 0,15,16
 263 -172 263 -172 275 -182.5 c 128,-1,17
 287 -193 287 -193 306 -193 c 0,18,19
 335 -193 335 -193 370 -173 c 1,20,-1
 376 -189 l 1,21,22
 337 -213 337 -213 301 -213 c 0,23,24
 273 -213 273 -213 257.5 -197 c 128,-1,25
 242 -181 242 -181 242 -153 c 0,26,27
 242 -117 242 -117 273 -76.5 c 128,-1,28
 304 -36 304 -36 365 12 c 1,29,30
 323 0 323 0 278 0 c 0,31,32
 212 0 212 0 161 30 c 128,-1,33
 110 60 110 60 81.5 113 c 128,-1,34
 53 166 53 166 53 234 c 0,35,36
 53 314 53 314 90 378.5 c 128,-1,37
 127 443 127 443 190 480 c 128,-1,38
 253 517 253 517 329 517 c 0,39,40
 395 517 395 517 444 488.5 c 128,-1,41
 493 460 493 460 519 408.5 c 128,-1,42
 545 357 545 357 545 291 c 0,43,44
 545 270 545 270 544 259 c 1,45,-1
 74 259 l 1,0,1
209.5 469.5 m 128,-1,47
 156 442 156 442 120.5 392.5 c 128,-1,48
 85 343 85 343 76 279 c 1,49,-1
 526 279 l 1,50,51
 528 377 528 377 475 437 c 128,-1,52
 422 497 422 497 327 497 c 0,53,46
 263 497 263 497 209.5 469.5 c 128,-1,47
EndSplineSet
Substitution2: "<3,3> Small Caps in Latin lookup 11 subtable" eogonek.sc
EndChar

StartChar: Hbar
Encoding: 294 294 233
Width: 819
Flags: W
LayerCount: 2
Fore
SplineSet
819 547 m 1,0,-1
 815 527 l 1,1,-1
 735 527 l 1,2,-1
 629 0 l 1,3,-1
 609 0 l 1,4,-1
 678 343 l 1,5,-1
 175 343 l 1,6,-1
 106 0 l 1,7,-1
 86 0 l 1,8,-1
 192 527 l 1,9,-1
 112 527 l 1,10,-1
 116 547 l 1,11,-1
 196 547 l 1,12,-1
 226 699 l 1,13,-1
 246 699 l 1,14,-1
 216 547 l 1,15,-1
 719 547 l 1,16,-1
 749 699 l 1,17,-1
 769 699 l 1,18,-1
 739 547 l 1,19,-1
 819 547 l 1,0,-1
682 363 m 1,20,-1
 715 527 l 1,21,-1
 212 527 l 1,22,-1
 179 363 l 1,23,-1
 682 363 l 1,20,-1
EndSplineSet
EndChar

StartChar: hbar
Encoding: 295 295 234
Width: 652
Flags: W
LayerCount: 2
Fore
SplineSet
530.5 477.5 m 128,-1,1
 575 438 575 438 575 366 c 0,2,3
 575 342 575 342 569 313 c 2,4,-1
 507 0 l 1,5,-1
 487 0 l 1,6,-1
 549 313 l 2,7,8
 554 341 554 341 554 362 c 0,9,10
 554 427 554 427 515 462 c 128,-1,11
 476 497 476 497 403 497 c 0,12,13
 302 495 302 495 230.5 434 c 128,-1,14
 159 373 159 373 138 266 c 2,15,-1
 86 0 l 1,16,-1
 66 0 l 1,17,-1
 188 619 l 1,18,-1
 109 619 l 1,19,-1
 113 639 l 1,20,-1
 192 639 l 1,21,-1
 212 742 l 1,22,-1
 232 742 l 1,23,-1
 212 639 l 1,24,-1
 442 639 l 1,25,-1
 438 619 l 1,26,-1
 208 619 l 1,27,-1
 159 368 l 1,28,29
 197 438 197 438 260 476.5 c 128,-1,30
 323 515 323 515 403 517 c 0,31,0
 486 517 486 517 530.5 477.5 c 128,-1,1
EndSplineSet
Substitution2: "<3,3> Small Caps in Latin lookup 11 subtable" hbar.sc
EndChar

StartChar: Iogonek
Encoding: 302 302 241
Width: 276
Flags: W
LayerCount: 2
Fore
SplineSet
-21.5 -80 m 128,-1,1
 -56 -113 -56 -113 -56 -151 c 0,2,3
 -56 -171 -56 -171 -44 -182 c 128,-1,4
 -32 -193 -32 -193 -13 -193 c 0,5,6
 16 -193 16 -193 51 -173 c 1,7,-1
 57 -189 l 1,8,9
 18 -213 18 -213 -18 -213 c 0,10,11
 -46 -213 -46 -213 -61.5 -197.5 c 128,-1,12
 -77 -182 -77 -182 -77 -154 c 0,13,14
 -77 -108 -77 -108 -41 -72.5 c 128,-1,15
 -5 -37 -5 -37 77 9 c 1,16,-1
 215 699 l 1,17,-1
 235 699 l 1,18,-1
 95 0 l 1,19,0
 13 -47 13 -47 -21.5 -80 c 128,-1,1
EndSplineSet
EndChar

StartChar: iogonek
Encoding: 303 303 242
Width: 241
Flags: W
LayerCount: 2
Fore
SplineSet
222 685.5 m 128,-1,1
 228 679 228 679 228 670 c 0,2,3
 228 658 228 658 218 649 c 128,-1,4
 208 640 208 640 196 640 c 0,5,6
 187 640 187 640 181 646.5 c 128,-1,7
 175 653 175 653 175 662 c 0,8,9
 175 674 175 674 185 683 c 128,-1,10
 195 692 195 692 207 692 c 0,11,0
 216 692 216 692 222 685.5 c 128,-1,1
162 517 m 1,12,-1
 182 517 l 1,13,-1
 79 0 l 1,14,15
 -3 -47 -3 -47 -37.5 -80 c 128,-1,16
 -72 -113 -72 -113 -72 -151 c 0,17,18
 -72 -171 -72 -171 -60 -182 c 128,-1,19
 -48 -193 -48 -193 -29 -193 c 0,20,21
 0 -193 0 -193 35 -173 c 1,22,-1
 41 -189 l 1,23,24
 2 -213 2 -213 -34 -213 c 0,25,26
 -62 -213 -62 -213 -77.5 -197.5 c 128,-1,27
 -93 -182 -93 -182 -93 -154 c 0,28,29
 -93 -108 -93 -108 -57 -72.5 c 128,-1,30
 -21 -37 -21 -37 61 9 c 1,31,-1
 162 517 l 1,12,-1
EndSplineSet
Substitution2: "<3,3> Small Caps in Latin lookup 11 subtable" iogonek.sc
EndChar

StartChar: dotlessi
Encoding: 305 305 244
Width: 241
Flags: W
LayerCount: 2
Fore
SplineSet
182 517 m 1,0,-1
 79 0 l 1,1,-1
 59 0 l 1,2,-1
 162 517 l 1,3,-1
 182 517 l 1,0,-1
EndSplineSet
Substitution2: "<3,3> Small Caps in Latin lookup 11 subtable" dotlessi.sc
EndChar

StartChar: kgreenlandic
Encoding: 312 312 251
Width: 534
Flags: W
LayerCount: 2
Fore
SplineSet
539 517 m 1,0,-1
 302 317 l 1,1,-1
 466 0 l 1,2,-1
 442 0 l 1,3,-1
 285 302 l 1,4,-1
 110 154 l 1,5,-1
 79 0 l 1,6,-1
 59 0 l 1,7,-1
 162 517 l 1,8,-1
 182 517 l 1,9,-1
 116 185 l 1,10,-1
 511 517 l 1,11,-1
 539 517 l 1,0,-1
EndSplineSet
Substitution2: "<3,3> Small Caps in Latin lookup 11 subtable" kgreenlandic.sc
EndChar

StartChar: Lslash
Encoding: 321 321 260
Width: 507
Flags: W
LayerCount: 2
Fore
SplineSet
116 20 m 1,0,-1
 429 20 l 1,1,-1
 425 0 l 1,2,-1
 92 0 l 1,3,-1
 161 347 l 1,4,-1
 61 293 l 1,5,-1
 65 316 l 1,6,-1
 166 370 l 1,7,-1
 232 699 l 1,8,-1
 252 699 l 1,9,-1
 188 382 l 1,10,-1
 333 460 l 1,11,-1
 329 437 l 1,12,-1
 184 359 l 1,13,-1
 116 20 l 1,0,-1
EndSplineSet
EndChar

StartChar: lslash
Encoding: 322 322 261
Width: 313
Flags: W
LayerCount: 2
Fore
SplineSet
329 460 m 1,0,-1
 325 437 l 1,1,-1
 202 371 l 1,2,-1
 128 0 l 1,3,-1
 108 0 l 1,4,-1
 180 359 l 1,5,-1
 57 293 l 1,6,-1
 61 316 l 1,7,-1
 184 382 l 1,8,-1
 256 742 l 1,9,-1
 276 742 l 1,10,-1
 207 394 l 1,11,-1
 329 460 l 1,0,-1
EndSplineSet
Substitution2: "<3,3> Small Caps in Latin lookup 11 subtable" lslash.sc
EndChar

StartChar: Eng
Encoding: 330 330 269
Width: 799
Flags: W
LayerCount: 2
Fore
SplineSet
759 699 m 1,0,-1
 619 0 l 2,1,2
 600 -95 600 -95 545.5 -145.5 c 128,-1,3
 491 -196 491 -196 408 -196 c 0,4,5
 357 -196 357 -196 317 -170.5 c 128,-1,6
 277 -145 277 -145 253 -98 c 1,7,-1
 270 -84 l 1,8,9
 292 -129 292 -129 328.5 -152.5 c 128,-1,10
 365 -176 365 -176 412 -176 c 0,11,12
 485 -176 485 -176 533 -131 c 128,-1,13
 581 -86 581 -86 599 0 c 1,14,-1
 589 0 l 1,15,-1
 232 679 l 1,16,-1
 96 0 l 1,17,-1
 76 0 l 1,18,-1
 216 699 l 1,19,-1
 246 699 l 1,20,-1
 603 20 l 1,21,-1
 739 699 l 1,22,-1
 759 699 l 1,0,-1
EndSplineSet
EndChar

StartChar: eng
Encoding: 331 331 270
Width: 645
Flags: W
LayerCount: 2
Fore
SplineSet
525 478 m 128,-1,1
 569 439 569 439 569 367 c 0,2,3
 569 342 569 342 563 313 c 2,4,-1
 494 -32 l 2,5,6
 461 -193 461 -193 349 -193 c 0,7,8
 291 -193 291 -193 251 -156 c 1,9,-1
 266 -140 l 1,10,11
 301 -173 301 -173 351 -173 c 0,12,13
 398 -173 398 -173 429 -137.5 c 128,-1,14
 460 -102 460 -102 474 -32 c 2,15,-1
 543 313 l 2,16,17
 548 341 548 341 548 362 c 0,18,19
 548 427 548 427 508.5 462 c 128,-1,20
 469 497 469 497 396 497 c 0,21,22
 300 497 300 497 231.5 439.5 c 128,-1,23
 163 382 163 382 135 281 c 1,24,-1
 79 0 l 1,25,-1
 59 0 l 1,26,-1
 162 517 l 1,27,-1
 182 517 l 1,28,-1
 153 371 l 1,29,30
 192 440 192 440 256 478.5 c 128,-1,31
 320 517 320 517 400 517 c 0,32,0
 481 517 481 517 525 478 c 128,-1,1
EndSplineSet
Substitution2: "<3,3> Small Caps in Latin lookup 11 subtable" eng.sc
EndChar

StartChar: OE
Encoding: 338 338 277
Width: 1092
Flags: W
LayerCount: 2
Fore
SplineSet
680 679 m 1,0,-1
 618 370 l 1,1,-1
 989 370 l 1,2,-1
 985 350 l 1,3,-1
 614 350 l 1,4,-1
 548 20 l 1,5,-1
 979 20 l 1,6,-1
 975 0 l 1,7,-1
 396 0 l 2,8,9
 305 0 305 0 230.5 42.5 c 128,-1,10
 156 85 156 85 112.5 158 c 128,-1,11
 69 231 69 231 69 319 c 0,12,13
 69 419 69 419 123.5 506.5 c 128,-1,14
 178 594 178 594 269 646.5 c 128,-1,15
 360 699 360 699 464 699 c 2,16,-1
 1101 699 l 1,17,-1
 1097 679 l 1,18,-1
 680 679 l 1,0,-1
528 19 m 1,19,-1
 660 680 l 1,20,-1
 464 680 l 2,21,22
 365 680 365 680 278.5 629.5 c 128,-1,23
 192 579 192 579 140 495 c 128,-1,24
 88 411 88 411 88 315 c 0,25,26
 88 233 88 233 128.5 165 c 128,-1,27
 169 97 169 97 239 58 c 128,-1,28
 309 19 309 19 395 19 c 2,29,-1
 528 19 l 1,19,-1
EndSplineSet
EndChar

StartChar: oe
Encoding: 339 339 278
Width: 1077
Flags: W
LayerCount: 2
Fore
SplineSet
557 258 m 2,0,1
 556 248 556 248 556 229 c 0,2,3
 556 168 556 168 582 120.5 c 128,-1,4
 608 73 608 73 655 46.5 c 128,-1,5
 702 20 702 20 763 20 c 0,6,7
 820 20 820 20 869.5 39.5 c 128,-1,8
 919 59 919 59 955 95 c 1,9,-1
 968 81 l 1,10,11
 928 42 928 42 875 21 c 128,-1,12
 822 0 822 0 763 0 c 0,13,14
 674 0 674 0 613.5 50 c 128,-1,15
 553 100 553 100 539 184 c 1,16,17
 509 101 509 101 438.5 50.5 c 128,-1,18
 368 0 368 0 280 0 c 0,19,20
 213 0 213 0 161.5 29 c 128,-1,21
 110 58 110 58 81 110 c 128,-1,22
 52 162 52 162 52 229 c 0,23,24
 52 240 52 240 54 260 c 0,25,26
 61 333 61 333 99 392 c 128,-1,27
 137 451 137 451 197.5 484 c 128,-1,28
 258 517 258 517 329 517 c 0,29,30
 418 517 418 517 478.5 467 c 128,-1,31
 539 417 539 417 553 334 c 1,32,33
 583 416 583 416 653.5 466.5 c 128,-1,34
 724 517 724 517 812 517 c 0,35,36
 878 517 878 517 927.5 488.5 c 128,-1,37
 977 460 977 460 1003.5 408.5 c 128,-1,38
 1030 357 1030 357 1030 290 c 0,39,40
 1030 270 1030 270 1029 259 c 1,41,-1
 557 259 l 1,42,-1
 557 258 l 2,0,1
403 50.5 m 128,-1,44
 459 81 459 81 494 135.5 c 128,-1,45
 529 190 529 190 536 260 c 0,46,47
 537 269 537 269 537 287 c 0,48,49
 537 349 537 349 511 396.5 c 128,-1,50
 485 444 485 444 437.5 470.5 c 128,-1,51
 390 497 390 497 329 497 c 0,52,53
 258 497 258 497 199.5 462.5 c 128,-1,54
 141 428 141 428 107 367 c 128,-1,55
 73 306 73 306 73 229 c 0,56,57
 73 168 73 168 99 120.5 c 128,-1,58
 125 73 125 73 172 46.5 c 128,-1,59
 219 20 219 20 280 20 c 0,60,43
 347 20 347 20 403 50.5 c 128,-1,44
695 469.5 m 128,-1,62
 641 442 641 442 605.5 392.5 c 128,-1,63
 570 343 570 343 560 279 c 1,64,-1
 1011 279 l 1,65,66
 1013 377 1013 377 959.5 437 c 128,-1,67
 906 497 906 497 812 497 c 0,68,61
 749 497 749 497 695 469.5 c 128,-1,62
EndSplineSet
Substitution2: "<3,3> Small Caps in Latin lookup 11 subtable" oe.sc
EndChar

StartChar: Scedilla
Encoding: 350 350 289
Width: 591
Flags: W
LayerCount: 2
Fore
SplineSet
196.5 648.5 m 128,-1,1
 137 611 137 611 131 549 c 0,2,3
 130 542 130 542 130 529 c 0,4,5
 130 482 130 482 154 452.5 c 128,-1,6
 178 423 178 423 213.5 406.5 c 128,-1,7
 249 390 249 390 308 371 c 0,8,9
 372 349 372 349 409 331 c 128,-1,10
 446 313 446 313 472 280 c 128,-1,11
 498 247 498 247 498 193 c 0,12,13
 498 185 498 185 496 167 c 0,14,15
 489 89 489 89 420.5 42.5 c 128,-1,16
 352 -4 352 -4 245 -6 c 1,17,-1
 222 -54 l 1,18,19
 255 -55 255 -55 272.5 -73 c 128,-1,20
 290 -91 290 -91 290 -117 c 0,21,22
 290 -140 290 -140 276.5 -162.5 c 128,-1,23
 263 -185 263 -185 238.5 -199 c 128,-1,24
 214 -213 214 -213 183 -213 c 0,25,26
 164 -213 164 -213 144 -207 c 128,-1,27
 124 -201 124 -201 114 -191 c 1,28,-1
 127 -171 l 1,29,30
 137 -180 137 -180 154 -186 c 128,-1,31
 171 -192 171 -192 187 -192 c 0,32,33
 223 -192 223 -192 245.5 -170 c 128,-1,34
 268 -148 268 -148 268 -121 c 0,35,36
 268 -100 268 -100 255.5 -86.5 c 128,-1,37
 243 -73 243 -73 221 -73 c 2,38,-1
 192 -73 l 1,39,-1
 224 -6 l 1,40,41
 161 -2 161 -2 103.5 24.5 c 128,-1,42
 46 51 46 51 8 93 c 1,43,-1
 24 108 l 1,44,45
 60 65 60 65 119 39.5 c 128,-1,46
 178 14 178 14 242 14 c 0,47,48
 342 14 342 14 405.5 55.5 c 128,-1,49
 469 97 469 97 476 167 c 0,50,51
 477 175 477 175 477 189 c 0,52,53
 477 237 477 237 453 267.5 c 128,-1,54
 429 298 429 298 393.5 314.5 c 128,-1,55
 358 331 358 331 298 351 c 0,56,57
 235 372 235 372 197.5 389.5 c 128,-1,58
 160 407 160 407 134.5 440.5 c 128,-1,59
 109 474 109 474 109 527 c 0,60,61
 109 541 109 541 110 549 c 0,62,63
 117 620 117 620 182.5 663 c 128,-1,64
 248 706 248 706 351 706 c 0,65,66
 400 706 400 706 450 692 c 128,-1,67
 500 678 500 678 534 655 c 1,68,-1
 522 639 l 1,69,70
 491 661 491 661 443.5 673.5 c 128,-1,71
 396 686 396 686 349 686 c 0,72,0
 256 686 256 686 196.5 648.5 c 128,-1,1
EndSplineSet
EndChar

StartChar: scedilla
Encoding: 351 351 290
Width: 447
Flags: W
LayerCount: 2
Fore
SplineSet
148 472.5 m 128,-1,1
 108 443 108 443 108 390 c 0,2,3
 108 349 108 349 140.5 325.5 c 128,-1,4
 173 302 173 302 238 275 c 0,5,6
 286 255 286 255 314.5 239.5 c 128,-1,7
 343 224 343 224 362.5 199 c 128,-1,8
 382 174 382 174 382 139 c 0,9,10
 382 71 382 71 331 31 c 128,-1,11
 280 -9 280 -9 202 -10 c 2,12,-1
 196 -10 l 1,13,-1
 175 -54 l 1,14,15
 208 -55 208 -55 225.5 -73 c 128,-1,16
 243 -91 243 -91 243 -117 c 0,17,18
 243 -140 243 -140 229.5 -162.5 c 128,-1,19
 216 -185 216 -185 191.5 -199 c 128,-1,20
 167 -213 167 -213 136 -213 c 0,21,22
 117 -213 117 -213 97 -207 c 128,-1,23
 77 -201 77 -201 67 -191 c 1,24,-1
 80 -171 l 1,25,26
 90 -180 90 -180 107 -186 c 128,-1,27
 124 -192 124 -192 140 -192 c 0,28,29
 176 -192 176 -192 198.5 -170 c 128,-1,30
 221 -148 221 -148 221 -121 c 0,31,32
 221 -100 221 -100 208.5 -86.5 c 128,-1,33
 196 -73 196 -73 174 -73 c 2,34,-1
 145 -73 l 1,35,-1
 175 -9 l 1,36,37
 117 -4 117 -4 70 21 c 128,-1,38
 23 46 23 46 -5 85 c 1,39,-1
 11 99 l 1,40,41
 42 58 42 58 92 35.5 c 128,-1,42
 142 13 142 13 204 13 c 0,43,44
 272 13 272 13 316 46 c 128,-1,45
 360 79 360 79 360 135 c 0,46,47
 360 176 360 176 327.5 200 c 128,-1,48
 295 224 295 224 230 252 c 0,49,50
 182 273 182 273 154 288.5 c 128,-1,51
 126 304 126 304 106.5 328.5 c 128,-1,52
 87 353 87 353 87 387 c 0,53,54
 87 451 87 451 134.5 487.5 c 128,-1,55
 182 524 182 524 255 524 c 0,56,57
 346 524 346 524 419 470 c 1,58,-1
 406 454 l 1,59,60
 379 477 379 477 339.5 489.5 c 128,-1,61
 300 502 300 502 252 502 c 0,62,0
 188 502 188 502 148 472.5 c 128,-1,1
EndSplineSet
Substitution2: "<3,3> Small Caps in Latin lookup 11 subtable" scedilla.sc
EndChar

StartChar: uni0162
Encoding: 354 354 293
Width: 526
Flags: W
LayerCount: 2
Fore
SplineSet
221 0 m 1,0,-1
 195 -54 l 1,1,2
 228 -55 228 -55 245.5 -73 c 128,-1,3
 263 -91 263 -91 263 -117 c 0,4,5
 263 -140 263 -140 249.5 -162.5 c 128,-1,6
 236 -185 236 -185 211.5 -199 c 128,-1,7
 187 -213 187 -213 156 -213 c 0,8,9
 137 -213 137 -213 117 -207 c 128,-1,10
 97 -201 97 -201 87 -191 c 1,11,-1
 100 -171 l 1,12,13
 110 -180 110 -180 127 -186 c 128,-1,14
 144 -192 144 -192 160 -192 c 0,15,16
 196 -192 196 -192 218.5 -170 c 128,-1,17
 241 -148 241 -148 241 -121 c 0,18,19
 241 -100 241 -100 228.5 -86.5 c 128,-1,20
 216 -73 216 -73 194 -73 c 2,21,-1
 165 -73 l 1,22,-1
 202 5 l 1,23,-1
 337 679 l 1,24,-1
 97 679 l 1,25,-1
 101 699 l 1,26,-1
 601 699 l 1,27,-1
 597 679 l 1,28,-1
 357 679 l 1,29,-1
 221 0 l 1,0,-1
EndSplineSet
EndChar

StartChar: uni0163
Encoding: 355 355 294
Width: 363
Flags: W
LayerCount: 2
Fore
SplineSet
123 141 m 2,0,1
 118 113 118 113 118 95 c 0,2,3
 118 20 118 20 184 20 c 0,4,5
 237 20 237 20 285 53 c 1,6,-1
 295 37 l 1,7,8
 243 2 243 2 187 0 c 2,9,-1
 180 0 l 1,10,-1
 180 0 l 1,11,-1
 154 -54 l 1,12,13
 187 -55 187 -55 204.5 -73 c 128,-1,14
 222 -91 222 -91 222 -117 c 0,15,16
 222 -140 222 -140 208.5 -162.5 c 128,-1,17
 195 -185 195 -185 170.5 -199 c 128,-1,18
 146 -213 146 -213 115 -213 c 0,19,20
 96 -213 96 -213 76 -207 c 128,-1,21
 56 -201 56 -201 46 -191 c 1,22,-1
 59 -171 l 1,23,24
 69 -180 69 -180 86 -186 c 128,-1,25
 103 -192 103 -192 119 -192 c 0,26,27
 155 -192 155 -192 177.5 -170 c 128,-1,28
 200 -148 200 -148 200 -121 c 0,29,30
 200 -100 200 -100 187.5 -86.5 c 128,-1,31
 175 -73 175 -73 153 -73 c 2,32,-1
 124 -73 l 1,33,-1
 160 2 l 1,34,35
 99 14 99 14 99 92 c 0,36,37
 99 119 99 119 104 143 c 2,38,-1
 173 487 l 1,39,-1
 96 487 l 1,40,-1
 100 507 l 1,41,-1
 177 507 l 1,42,-1
 201 630 l 1,43,-1
 221 630 l 1,44,-1
 196 507 l 1,45,-1
 378 507 l 1,46,-1
 374 487 l 1,47,-1
 192 487 l 1,48,-1
 123 141 l 2,0,1
EndSplineSet
Substitution2: "<3,3> Small Caps in Latin lookup 11 subtable" uni0163.sc
EndChar

StartChar: Tbar
Encoding: 358 358 297
Width: 526
Flags: W
LayerCount: 2
Fore
SplineSet
597 679 m 1,0,-1
 357 679 l 1,1,-1
 293 360 l 1,2,-1
 461 360 l 1,3,-1
 457 340 l 1,4,-1
 289 340 l 1,5,-1
 221 0 l 1,6,-1
 201 0 l 1,7,-1
 269 340 l 1,8,-1
 101 340 l 1,9,-1
 105 360 l 1,10,-1
 273 360 l 1,11,-1
 337 679 l 1,12,-1
 97 679 l 1,13,-1
 101 699 l 1,14,-1
 601 699 l 1,15,-1
 597 679 l 1,0,-1
EndSplineSet
EndChar

StartChar: tbar
Encoding: 359 359 298
Width: 363
Flags: W
LayerCount: 2
Fore
SplineSet
192 487 m 1,0,-1
 158 317 l 1,1,-1
 340 317 l 1,2,-1
 336 297 l 1,3,-1
 154 297 l 1,4,-1
 123 141 l 2,5,6
 118 113 118 113 118 95 c 0,7,8
 118 20 118 20 184 20 c 0,9,10
 237 20 237 20 285 53 c 1,11,-1
 295 37 l 1,12,13
 239 0 239 0 185 0 c 0,14,15
 142 0 142 0 120 23.5 c 128,-1,16
 98 47 98 47 98 92 c 0,17,18
 98 115 98 115 104 143 c 2,19,-1
 135 297 l 1,20,-1
 58 297 l 1,21,-1
 62 317 l 1,22,-1
 139 317 l 1,23,-1
 173 487 l 1,24,-1
 96 487 l 1,25,-1
 100 507 l 1,26,-1
 177 507 l 1,27,-1
 201 630 l 1,28,-1
 221 630 l 1,29,-1
 196 507 l 1,30,-1
 378 507 l 1,31,-1
 374 487 l 1,32,-1
 192 487 l 1,0,-1
EndSplineSet
Substitution2: "<3,3> Small Caps in Latin lookup 11 subtable" tbar.sc
EndChar

StartChar: Uogonek
Encoding: 370 370 309
Width: 774
Flags: W
LayerCount: 2
Fore
SplineSet
752 699 m 1,0,-1
 669 284 l 2,1,2
 636 117 636 117 522 46 c 1,3,4
 436 -15 436 -15 391 -64 c 128,-1,5
 346 -113 346 -113 346 -151 c 0,6,7
 346 -172 346 -172 358 -182.5 c 128,-1,8
 370 -193 370 -193 389 -193 c 0,9,10
 418 -193 418 -193 453 -173 c 1,11,-1
 459 -189 l 1,12,13
 420 -213 420 -213 384 -213 c 0,14,15
 356 -213 356 -213 340.5 -197 c 128,-1,16
 325 -181 325 -181 325 -153 c 0,17,18
 325 -116 325 -116 356.5 -75.5 c 128,-1,19
 388 -35 388 -35 450 14 c 1,20,21
 400 0 400 0 345 0 c 0,22,23
 232 0 232 0 169.5 54.5 c 128,-1,24
 107 109 107 109 107 210 c 0,25,26
 107 242 107 242 115 284 c 2,27,-1
 198 699 l 1,28,-1
 218 699 l 1,29,-1
 135 284 l 2,30,31
 128 249 128 249 128 215 c 0,32,33
 128 122 128 122 186 71 c 128,-1,34
 244 20 244 20 349 20 c 0,35,36
 470 20 470 20 546.5 88.5 c 128,-1,37
 623 157 623 157 649 284 c 2,38,-1
 732 699 l 1,39,-1
 752 699 l 1,0,-1
EndSplineSet
EndChar

StartChar: uogonek
Encoding: 371 371 310
Width: 646
Flags: W
LayerCount: 2
Fore
SplineSet
367.5 -80 m 128,-1,1
 333 -113 333 -113 333 -151 c 0,2,3
 333 -171 333 -171 345 -182 c 128,-1,4
 357 -193 357 -193 376 -193 c 0,5,6
 405 -193 405 -193 440 -173 c 1,7,-1
 446 -189 l 1,8,9
 407 -213 407 -213 371 -213 c 0,10,11
 343 -213 343 -213 327.5 -197.5 c 128,-1,12
 312 -182 312 -182 312 -154 c 0,13,14
 312 -108 312 -108 348 -72.5 c 128,-1,15
 384 -37 384 -37 466 9 c 1,16,-1
 493 149 l 1,17,18
 455 79 455 79 392 40.5 c 128,-1,19
 329 2 329 2 249 0 c 0,20,21
 166 0 166 0 121.5 39.5 c 128,-1,22
 77 79 77 79 77 151 c 0,23,24
 77 176 77 176 83 204 c 2,25,-1
 145 517 l 1,26,-1
 165 517 l 1,27,-1
 103 204 l 2,28,29
 98 176 98 176 98 155 c 0,30,31
 98 90 98 90 137 55 c 128,-1,32
 176 20 176 20 249 20 c 0,33,34
 350 22 350 22 421.5 83 c 128,-1,35
 493 144 493 144 514 251 c 2,36,-1
 566 517 l 1,37,-1
 586 517 l 1,38,-1
 484 0 l 1,39,0
 402 -47 402 -47 367.5 -80 c 128,-1,1
EndSplineSet
Substitution2: "<3,3> Small Caps in Latin lookup 11 subtable" uogonek.sc
EndChar

StartChar: uni018F
Encoding: 399 399 322
Width: 800
Flags: W
LayerCount: 2
Fore
SplineSet
612 660.5 m 128,-1,1
 685 618 685 618 726.5 544.5 c 128,-1,2
 768 471 768 471 768 382 c 0,3,4
 768 280 768 280 715 191 c 128,-1,5
 662 102 662 102 573.5 49.5 c 128,-1,6
 485 -3 485 -3 386 -3 c 0,7,8
 297 -3 297 -3 224 40 c 128,-1,9
 151 83 151 83 109.5 156.5 c 128,-1,10
 68 230 68 230 68 319 c 0,11,12
 68 340 68 340 69 350 c 1,13,-1
 747 350 l 1,14,15
 748 360 748 360 748 381 c 0,16,17
 748 464 748 464 708.5 533 c 128,-1,18
 669 602 669 602 600.5 642.5 c 128,-1,19
 532 683 532 683 448 683 c 0,20,21
 373 683 373 683 303.5 652.5 c 128,-1,22
 234 622 234 622 181 568 c 1,23,-1
 170 583 l 1,24,25
 226 640 226 640 298.5 671.5 c 128,-1,26
 371 703 371 703 450 703 c 0,27,0
 539 703 539 703 612 660.5 c 128,-1,1
550 58.5 m 128,-1,29
 627 100 627 100 679 172 c 128,-1,30
 731 244 731 244 744 330 c 1,31,-1
 88 330 l 1,32,33
 86 245 86 245 124.5 173 c 128,-1,34
 163 101 163 101 233 59 c 128,-1,35
 303 17 303 17 388 17 c 256,36,28
 473 17 473 17 550 58.5 c 128,-1,29
EndSplineSet
EndChar

StartChar: florin
Encoding: 402 402 323
Width: 438
Flags: W
LayerCount: 2
Fore
SplineSet
305.5 696 m 128,-1,1
 270 660 270 660 258 600 c 2,2,-1
 232 462 l 1,3,-1
 400 462 l 1,4,-1
 397 442 l 1,5,-1
 228 442 l 1,6,-1
 135 -42 l 2,7,8
 105 -194 105 -194 2 -194 c 0,9,10
 -21 -194 -21 -194 -44.5 -183.5 c 128,-1,11
 -68 -173 -68 -173 -85 -157 c 1,12,-1
 -70 -141 l 1,13,14
 -56 -155 -56 -155 -35.5 -164.5 c 128,-1,15
 -15 -174 -15 -174 4 -174 c 0,16,17
 50 -174 50 -174 76 -140 c 128,-1,18
 102 -106 102 -106 115 -42 c 2,19,-1
 208 442 l 1,20,-1
 144 442 l 1,21,-1
 147 462 l 1,22,-1
 212 462 l 1,23,-1
 238 600 l 2,24,25
 251 669 251 669 293 710.5 c 128,-1,26
 335 752 335 752 391 752 c 0,27,28
 417 752 417 752 443 741.5 c 128,-1,29
 469 731 469 731 489 715 c 1,30,-1
 474 699 l 1,31,32
 457 714 457 714 433.5 723 c 128,-1,33
 410 732 410 732 389 732 c 0,34,0
 341 732 341 732 305.5 696 c 128,-1,1
EndSplineSet
EndChar

StartChar: Ohorn
Encoding: 416 416 324
Width: 905
Flags: W
LayerCount: 2
Fore
SplineSet
756 529.5 m 128,-1,1
 791 462 791 462 791 383 c 0,2,3
 791 373 791 373 789 349 c 0,4,5
 780 255 780 255 723 174 c 128,-1,6
 666 93 666 93 578.5 45 c 128,-1,7
 491 -3 491 -3 395 -3 c 0,8,9
 304 -3 304 -3 229 39.5 c 128,-1,10
 154 82 154 82 111.5 156 c 128,-1,11
 69 230 69 230 69 318 c 0,12,13
 69 328 69 328 71 352 c 0,14,15
 80 447 80 447 136.5 527.5 c 128,-1,16
 193 608 193 608 280 655.5 c 128,-1,17
 367 703 367 703 463 703 c 0,18,19
 549 703 549 703 620 666 c 1,20,21
 643 659 643 659 664 659 c 0,22,23
 691 659 691 659 714 674.5 c 128,-1,24
 737 690 737 690 750 714.5 c 128,-1,25
 763 739 763 739 763 765 c 0,26,27
 763 787 763 787 753 806 c 1,28,-1
 775 816 l 1,29,30
 786 792 786 792 786 769 c 0,31,32
 786 737 786 737 769.5 707.5 c 128,-1,33
 753 678 753 678 724.5 659.5 c 128,-1,34
 696 641 696 641 663 641 c 2,35,-1
 660 641 l 1,36,0
 721 597 721 597 756 529.5 c 128,-1,1
771 383 m 0,38,39
 771 465 771 465 730.5 534 c 128,-1,40
 690 603 690 603 619.5 643 c 128,-1,41
 549 683 549 683 463 683 c 0,42,43
 371 683 371 683 288.5 638 c 128,-1,44
 206 593 206 593 153 516.5 c 128,-1,45
 100 440 100 440 91 350 c 0,46,47
 89 328 89 328 89 318 c 0,48,49
 89 235 89 235 129 166 c 128,-1,50
 169 97 169 97 239.5 57 c 128,-1,51
 310 17 310 17 395 17 c 0,52,53
 487 17 487 17 570 62 c 128,-1,54
 653 107 653 107 706.5 184 c 128,-1,55
 760 261 760 261 769 351 c 0,56,37
 771 373 771 373 771 383 c 0,38,39
EndSplineSet
EndChar

StartChar: ohorn
Encoding: 417 417 325
Width: 611
Flags: W
LayerCount: 2
Fore
SplineSet
619 587 m 0,1,2
 619 555 619 555 602.5 525.5 c 128,-1,3
 586 496 586 496 557.5 477.5 c 128,-1,4
 529 459 529 459 496 459 c 2,5,-1
 487 459 l 1,6,7
 521 428 521 428 539.5 383 c 128,-1,8
 558 338 558 338 558 284 c 0,9,10
 558 204 558 204 521 139 c 128,-1,11
 484 74 484 74 420 37 c 128,-1,12
 356 0 356 0 280 0 c 0,13,14
 214 0 214 0 162.5 30 c 128,-1,15
 111 60 111 60 82 113 c 128,-1,16
 53 166 53 166 53 234 c 0,17,18
 53 314 53 314 90 378.5 c 128,-1,19
 127 443 127 443 191 480 c 128,-1,20
 255 517 255 517 331 517 c 0,21,22
 402 517 402 517 456 483 c 1,23,24
 474 477 474 477 497 477 c 0,25,26
 524 477 524 477 547 492.5 c 128,-1,27
 570 508 570 508 583 532.5 c 128,-1,28
 596 557 596 557 596 583 c 0,29,30
 596 605 596 605 586 624 c 1,31,-1
 608 634 l 1,32,0
 619 610 619 610 619 587 c 0,1,2
512 394 m 128,-1,34
 486 443 486 443 438.5 470 c 128,-1,35
 391 497 391 497 329 497 c 0,36,37
 258 497 258 497 199.5 463.5 c 128,-1,38
 141 430 141 430 107 370 c 128,-1,39
 73 310 73 310 73 235 c 0,40,41
 73 172 73 172 99 123 c 128,-1,42
 125 74 125 74 172.5 47 c 128,-1,43
 220 20 220 20 282 20 c 0,44,45
 353 20 353 20 411.5 53.5 c 128,-1,46
 470 87 470 87 504 147 c 128,-1,47
 538 207 538 207 538 283 c 0,48,33
 538 345 538 345 512 394 c 128,-1,34
EndSplineSet
Substitution2: "<3,3> Small Caps in Latin lookup 11 subtable" ohorn.sc
EndChar

StartChar: Uhorn
Encoding: 431 431 326
Width: 842
Flags: W
LayerCount: 2
Fore
SplineSet
836 782 m 0,1,2
 836 744 836 744 812.5 715.5 c 128,-1,3
 789 687 789 687 749 683 c 1,4,-1
 669 284 l 2,5,6
 642 147 642 147 559 73.5 c 128,-1,7
 476 0 476 0 345 0 c 0,8,9
 232 0 232 0 169.5 54.5 c 128,-1,10
 107 109 107 109 107 210 c 0,11,12
 107 242 107 242 115 284 c 2,13,-1
 198 699 l 1,14,-1
 218 699 l 1,15,-1
 135 284 l 2,16,17
 128 249 128 249 128 215 c 0,18,19
 128 122 128 122 186 71 c 128,-1,20
 244 20 244 20 349 20 c 0,21,22
 470 20 470 20 546.5 88.5 c 128,-1,23
 623 157 623 157 649 284 c 2,24,-1
 732 699 l 1,25,-1
 739 699 l 2,26,27
 775 699 775 699 795 721.5 c 128,-1,28
 815 744 815 744 815 776 c 0,29,30
 815 796 815 796 810 808 c 1,31,-1
 831 816 l 1,32,0
 836 798 836 798 836 782 c 0,1,2
EndSplineSet
EndChar

StartChar: uhorn
Encoding: 432 432 327
Width: 646
Flags: W
LayerCount: 2
Fore
SplineSet
670 600 m 0,1,2
 670 562 670 562 646.5 533.5 c 128,-1,3
 623 505 623 505 583 501 c 1,4,-1
 484 0 l 1,5,-1
 464 0 l 1,6,-1
 493 149 l 1,7,8
 455 79 455 79 392 40.5 c 128,-1,9
 329 2 329 2 249 0 c 0,10,11
 166 0 166 0 121.5 39.5 c 128,-1,12
 77 79 77 79 77 151 c 0,13,14
 77 176 77 176 83 204 c 2,15,-1
 145 517 l 1,16,-1
 165 517 l 1,17,-1
 103 204 l 2,18,19
 98 176 98 176 98 155 c 0,20,21
 98 90 98 90 137 55 c 128,-1,22
 176 20 176 20 249 20 c 0,23,24
 350 22 350 22 421.5 83 c 128,-1,25
 493 144 493 144 514 251 c 2,26,-1
 566 517 l 1,27,-1
 573 517 l 2,28,29
 609 517 609 517 629 539.5 c 128,-1,30
 649 562 649 562 649 594 c 0,31,32
 649 614 649 614 644 626 c 1,33,-1
 665 634 l 1,34,0
 670 616 670 616 670 600 c 0,1,2
EndSplineSet
Substitution2: "<3,3> Small Caps in Latin lookup 11 subtable" uhorn.sc
EndChar

StartChar: uni01EA
Encoding: 490 490 339
Width: 822
Flags: W
LayerCount: 2
Fore
SplineSet
629.5 660.5 m 128,-1,1
 705 618 705 618 748 544.5 c 128,-1,2
 791 471 791 471 791 383 c 0,3,4
 791 371 791 371 789 349 c 0,5,6
 780 257 780 257 725 177 c 128,-1,7
 670 97 670 97 587 49 c 1,8,9
 499 -13 499 -13 453 -62.5 c 128,-1,10
 407 -112 407 -112 407 -151 c 0,11,12
 407 -172 407 -172 419 -182.5 c 128,-1,13
 431 -193 431 -193 450 -193 c 0,14,15
 479 -193 479 -193 514 -173 c 1,16,-1
 520 -189 l 1,17,18
 481 -213 481 -213 445 -213 c 0,19,20
 417 -213 417 -213 401.5 -197 c 128,-1,21
 386 -181 386 -181 386 -153 c 0,22,23
 386 -116 386 -116 418.5 -74.5 c 128,-1,24
 451 -33 451 -33 515 17 c 1,25,26
 455 -3 455 -3 395 -3 c 0,27,28
 304 -3 304 -3 229 39.5 c 128,-1,29
 154 82 154 82 111.5 156 c 128,-1,30
 69 230 69 230 69 318 c 0,31,32
 69 328 69 328 71 352 c 0,33,34
 80 447 80 447 136.5 527.5 c 128,-1,35
 193 608 193 608 280 655.5 c 128,-1,36
 367 703 367 703 463 703 c 0,37,0
 554 703 554 703 629.5 660.5 c 128,-1,1
771 383 m 0,39,40
 771 465 771 465 730.5 534 c 128,-1,41
 690 603 690 603 619.5 643 c 128,-1,42
 549 683 549 683 463 683 c 0,43,44
 371 683 371 683 288.5 638 c 128,-1,45
 206 593 206 593 153 516.5 c 128,-1,46
 100 440 100 440 91 350 c 0,47,48
 89 328 89 328 89 318 c 0,49,50
 89 235 89 235 129 166 c 128,-1,51
 169 97 169 97 239.5 57 c 128,-1,52
 310 17 310 17 395 17 c 0,53,54
 487 17 487 17 570 62 c 128,-1,55
 653 107 653 107 706.5 184 c 128,-1,56
 760 261 760 261 769 351 c 0,57,38
 771 373 771 373 771 383 c 0,39,40
EndSplineSet
EndChar

StartChar: uni01EB
Encoding: 491 491 340
Width: 611
Flags: W
LayerCount: 2
Fore
SplineSet
526.5 148.5 m 128,-1,1
 495 87 495 87 440 49 c 0,2,3
 352 -13 352 -13 306 -62.5 c 128,-1,4
 260 -112 260 -112 260 -151 c 0,5,6
 260 -172 260 -172 272 -182.5 c 128,-1,7
 284 -193 284 -193 303 -193 c 0,8,9
 332 -193 332 -193 367 -173 c 1,10,-1
 373 -189 l 1,11,12
 334 -213 334 -213 298 -213 c 0,13,14
 270 -213 270 -213 254.5 -197 c 128,-1,15
 239 -181 239 -181 239 -153 c 0,16,17
 239 -117 239 -117 269.5 -77 c 128,-1,18
 300 -37 300 -37 361 12 c 1,19,20
 322 0 322 0 280 0 c 0,21,22
 214 0 214 0 162.5 30 c 128,-1,23
 111 60 111 60 82 113 c 128,-1,24
 53 166 53 166 53 234 c 0,25,26
 53 314 53 314 90 378.5 c 128,-1,27
 127 443 127 443 191 480 c 128,-1,28
 255 517 255 517 331 517 c 0,29,30
 397 517 397 517 448.5 487 c 128,-1,31
 500 457 500 457 529 404 c 128,-1,32
 558 351 558 351 558 284 c 0,33,0
 558 210 558 210 526.5 148.5 c 128,-1,1
411.5 53.5 m 128,-1,35
 470 87 470 87 504 147 c 128,-1,36
 538 207 538 207 538 283 c 0,37,38
 538 345 538 345 512 394 c 128,-1,39
 486 443 486 443 438.5 470 c 128,-1,40
 391 497 391 497 329 497 c 0,41,42
 258 497 258 497 199.5 463.5 c 128,-1,43
 141 430 141 430 107 370 c 128,-1,44
 73 310 73 310 73 235 c 0,45,46
 73 172 73 172 99 123 c 128,-1,47
 125 74 125 74 172.5 47 c 128,-1,48
 220 20 220 20 282 20 c 0,49,34
 353 20 353 20 411.5 53.5 c 128,-1,35
EndSplineSet
Substitution2: "<3,3> Small Caps in Latin lookup 11 subtable" uni01EB.sc
EndChar

StartChar: uni0237
Encoding: 567 567 383
Width: 230
Flags: W
LayerCount: 2
Fore
SplineSet
-80 -173 m 0,1,2
 -32 -174 -32 -174 0.5 -137.5 c 128,-1,3
 33 -101 33 -101 47 -30 c 2,4,-1
 156 517 l 1,5,-1
 176 517 l 1,6,-1
 67 -32 l 2,7,8
 51 -112 51 -112 14.5 -152.5 c 128,-1,9
 -22 -193 -22 -193 -78 -193 c 0,10,11
 -110 -193 -110 -193 -140 -179 c 1,12,-1
 -130 -162 l 1,13,0
 -109 -171 -109 -171 -80 -173 c 0,1,2
EndSplineSet
EndChar

StartChar: uni0259
Encoding: 601 601 384
Width: 596
Flags: W
LayerCount: 2
Fore
SplineSet
435 487 m 128,-1,1
 486 457 486 457 514.5 404 c 128,-1,2
 543 351 543 351 543 283 c 0,3,4
 543 203 543 203 506 138.5 c 128,-1,5
 469 74 469 74 406 37 c 128,-1,6
 343 0 343 0 267 0 c 0,7,8
 201 0 201 0 152 28.5 c 128,-1,9
 103 57 103 57 77 108.5 c 128,-1,10
 51 160 51 160 51 226 c 0,11,12
 51 247 51 247 52 258 c 1,13,-1
 522 258 l 1,14,15
 523 266 523 266 523 282 c 0,16,17
 523 345 523 345 497 394 c 128,-1,18
 471 443 471 443 424 470 c 128,-1,19
 377 497 377 497 316 497 c 0,20,21
 260 497 260 497 210.5 477.5 c 128,-1,22
 161 458 161 458 126 422 c 1,23,-1
 113 436 l 1,24,25
 152 475 152 475 205.5 496 c 128,-1,26
 259 517 259 517 318 517 c 0,27,0
 384 517 384 517 435 487 c 128,-1,1
386.5 47.5 m 128,-1,29
 440 75 440 75 475.5 124.5 c 128,-1,30
 511 174 511 174 520 238 c 1,31,-1
 70 238 l 1,32,33
 68 140 68 140 121 80 c 128,-1,34
 174 20 174 20 269 20 c 0,35,28
 333 20 333 20 386.5 47.5 c 128,-1,29
EndSplineSet
Substitution2: "<3,3> Small Caps in Latin lookup 11 subtable" uni0259.sc
EndChar

StartChar: uni02BB
Encoding: 699 699 385
Width: 363
Flags: W
LayerCount: 2
Fore
SplineSet
243 520 m 1,0,-1
 221 525 l 1,1,-1
 263 700 l 1,2,-1
 278 700 l 1,3,-1
 243 520 l 1,0,-1
EndSplineSet
EndChar

StartChar: uni02BC
Encoding: 700 700 386
Width: 63
Flags: W
LayerCount: 2
Fore
SplineSet
111 699 m 1,0,-1
 131 699 l 1,1,-1
 74 440 l 1,2,-1
 56 440 l 1,3,-1
 111 699 l 1,0,-1
EndSplineSet
EndChar

StartChar: uni02BE
Encoding: 702 702 387
Width: 365
Flags: W
LayerCount: 2
Fore
SplineSet
189 579 m 1,0,1
 215 579 215 579 239.5 592.5 c 128,-1,2
 264 606 264 606 279 629 c 128,-1,3
 294 652 294 652 294 677 c 0,4,5
 294 710 294 710 270 733 c 128,-1,6
 246 756 246 756 211 756 c 1,7,-1
 213 776 l 1,8,9
 255 776 255 776 284.5 747.5 c 128,-1,10
 314 719 314 719 314 679 c 0,11,12
 314 648 314 648 296 620.5 c 128,-1,13
 278 593 278 593 248.5 576 c 128,-1,14
 219 559 219 559 187 559 c 1,15,-1
 189 579 l 1,0,1
EndSplineSet
EndChar

StartChar: uni02BF
Encoding: 703 703 388
Width: 388
Flags: W
LayerCount: 2
Fore
SplineSet
312 579 m 1,0,1
 279 579 279 579 257 601 c 128,-1,2
 235 623 235 623 235 654 c 0,3,4
 235 680 235 680 251 703.5 c 128,-1,5
 267 727 267 727 293 741.5 c 128,-1,6
 319 756 319 756 346 756 c 1,7,-1
 350 776 l 1,8,9
 317 776 317 776 285.5 758.5 c 128,-1,10
 254 741 254 741 234.5 712 c 128,-1,11
 215 683 215 683 215 651 c 0,12,13
 215 613 215 613 241.5 586 c 128,-1,14
 268 559 268 559 308 559 c 1,15,-1
 312 579 l 1,0,1
EndSplineSet
EndChar

StartChar: caron
Encoding: 711 711 390
Width: 445
Flags: W
LayerCount: 2
Fore
SplineSet
392 734 m 1,0,-1
 418 734 l 1,1,-1
 299 624 l 1,2,-1
 267 624 l 1,3,-1
 190 734 l 1,4,-1
 216 734 l 1,5,-1
 286 642 l 1,6,-1
 392 734 l 1,0,-1
EndSplineSet
EndChar

StartChar: uni02C8
Encoding: 712 712 391
Width: 365
Flags: W
LayerCount: 2
Fore
SplineSet
225 519 m 1,0,-1
 260 699 l 1,1,-1
 280 699 l 1,2,-1
 245 519 l 1,3,-1
 225 519 l 1,0,-1
EndSplineSet
EndChar

StartChar: uni02C9
Encoding: 713 713 392
Width: 531
Flags: W
LayerCount: 2
Fore
SplineSet
241 677 m 1,0,-1
 458 677 l 1,1,-1
 454 657 l 1,2,-1
 237 657 l 1,3,-1
 241 677 l 1,0,-1
EndSplineSet
EndChar

StartChar: uni02CA
Encoding: 714 714 393
Width: 364
Flags: W
LayerCount: 2
Fore
SplineSet
334 739 m 1,0,-1
 351 729 l 1,1,-1
 202 624 l 1,2,-1
 177 629 l 1,3,-1
 334 739 l 1,0,-1
EndSplineSet
EndChar

StartChar: uni02CB
Encoding: 715 715 394
Width: 345
Flags: W
LayerCount: 2
Fore
SplineSet
201 739 m 1,0,-1
 316 629 l 1,1,-1
 289 624 l 1,2,-1
 180 729 l 1,3,-1
 201 739 l 1,0,-1
EndSplineSet
EndChar

StartChar: uni02CC
Encoding: 716 716 395
Width: 365
Flags: W
LayerCount: 2
Fore
SplineSet
79 -210 m 1,0,-1
 114 -30 l 1,1,-1
 134 -30 l 1,2,-1
 99 -210 l 1,3,-1
 79 -210 l 1,0,-1
EndSplineSet
EndChar

StartChar: gravecomb
Encoding: 768 768 402
Width: 0
Flags: W
LayerCount: 2
Fore
SplineSet
-146 739 m 1,0,-1
 -10 629 l 1,1,-1
 -36 624 l 1,2,-1
 -165 729 l 1,3,-1
 -146 739 l 1,0,-1
EndSplineSet
Substitution2: "<3,3> Small Caps in Latin lookup 11 subtable" gravecomb.sc
EndChar

StartChar: acutecomb
Encoding: 769 769 403
Width: 0
Flags: W
LayerCount: 2
Fore
SplineSet
-51 739 m 1,0,-1
 -32 729 l 1,1,-1
 -161 624 l 1,2,-1
 -187 629 l 1,3,-1
 -51 739 l 1,0,-1
EndSplineSet
Substitution2: "<3,3> Small Caps in Latin lookup 11 subtable" acutecomb.sc
EndChar

StartChar: uni0302
Encoding: 770 770 404
Width: 0
Flags: W
LayerCount: 2
Fore
SplineSet
-27 624 m 1,0,-1
 -53 624 l 1,1,-1
 -123 716 l 1,2,-1
 -229 624 l 1,3,-1
 -255 624 l 1,4,-1
 -136 734 l 1,5,-1
 -104 734 l 1,6,-1
 -27 624 l 1,0,-1
EndSplineSet
Substitution2: "<3,3> Small Caps in Latin lookup 11 subtable" uni0302.sc
EndChar

StartChar: tildecomb
Encoding: 771 771 405
Width: 0
Flags: W
LayerCount: 2
Fore
SplineSet
-91 651 m 128,-1,1
 -114 629 -114 629 -147 629 c 0,2,3
 -166 629 -166 629 -178 637 c 128,-1,4
 -190 645 -190 645 -208 663 c 0,5,6
 -221 678 -221 678 -232.5 686 c 128,-1,7
 -244 694 -244 694 -259 694 c 0,8,9
 -283 694 -283 694 -299.5 678 c 128,-1,10
 -316 662 -316 662 -321 633 c 1,11,-1
 -340 633 l 1,12,13
 -332 671 -332 671 -311 692.5 c 128,-1,14
 -290 714 -290 714 -258 714 c 0,15,16
 -239 714 -239 714 -227 706 c 128,-1,17
 -215 698 -215 698 -197 680 c 0,18,19
 -184 665 -184 665 -172.5 657 c 128,-1,20
 -161 649 -161 649 -146 649 c 0,21,22
 -122 649 -122 649 -103 665.5 c 128,-1,23
 -84 682 -84 682 -79 710 c 1,24,-1
 -60 710 l 1,25,0
 -68 673 -68 673 -91 651 c 128,-1,1
EndSplineSet
Substitution2: "<3,3> Small Caps in Latin lookup 11 subtable" tildecomb.sc
EndChar

StartChar: uni0304
Encoding: 772 772 406
Width: 0
Flags: W
LayerCount: 2
Fore
SplineSet
-310 677 m 1,0,-1
 -53 677 l 1,1,-1
 -57 657 l 1,2,-1
 -314 657 l 1,3,-1
 -310 677 l 1,0,-1
EndSplineSet
Substitution2: "<3,3> Small Caps in Latin lookup 11 subtable" uni0304.sc
EndChar

StartChar: uni0306
Encoding: 774 774 407
Width: 0
Flags: W
LayerCount: 2
Fore
SplineSet
-242 712 m 0,1,2
 -242 681 -242 681 -223 661 c 128,-1,3
 -204 641 -204 641 -173 641 c 0,4,5
 -138 641 -138 641 -108.5 665.5 c 128,-1,6
 -79 690 -79 690 -71 726 c 1,7,-1
 -51 726 l 1,8,9
 -61 681 -61 681 -97 651 c 128,-1,10
 -133 621 -133 621 -176 621 c 0,11,12
 -214 621 -214 621 -238.5 645 c 128,-1,13
 -263 669 -263 669 -263 707 c 0,14,15
 -263 714 -263 714 -261 726 c 1,16,-1
 -241 726 l 1,17,0
 -242 721 -242 721 -242 712 c 0,1,2
EndSplineSet
Substitution2: "<3,3> Small Caps in Latin lookup 11 subtable" uni0306.sc
EndChar

StartChar: uni0307
Encoding: 775 775 408
Width: 0
Flags: W
LayerCount: 2
Fore
SplineSet
-75 685.5 m 128,-1,1
 -69 679 -69 679 -69 670 c 0,2,3
 -69 658 -69 658 -79 649 c 128,-1,4
 -89 640 -89 640 -101 640 c 0,5,6
 -110 640 -110 640 -116 646.5 c 128,-1,7
 -122 653 -122 653 -122 662 c 0,8,9
 -122 674 -122 674 -112 683 c 128,-1,10
 -102 692 -102 692 -90 692 c 0,11,0
 -81 692 -81 692 -75 685.5 c 128,-1,1
EndSplineSet
Substitution2: "<3,3> Small Caps in Latin lookup 11 subtable" uni0307.sc
EndChar

StartChar: uni0308
Encoding: 776 776 409
Width: 0
Flags: W
LayerCount: 2
Fore
SplineSet
-225 685.5 m 128,-1,1
 -219 679 -219 679 -219 670 c 0,2,3
 -219 658 -219 658 -229 649 c 128,-1,4
 -239 640 -239 640 -251 640 c 0,5,6
 -260 640 -260 640 -266 646.5 c 128,-1,7
 -272 653 -272 653 -272 662 c 0,8,9
 -272 674 -272 674 -262 683 c 128,-1,10
 -252 692 -252 692 -240 692 c 0,11,0
 -231 692 -231 692 -225 685.5 c 128,-1,1
-75 685.5 m 128,-1,13
 -69 679 -69 679 -69 670 c 0,14,15
 -69 658 -69 658 -79 649 c 128,-1,16
 -89 640 -89 640 -101 640 c 0,17,18
 -110 640 -110 640 -116 646.5 c 128,-1,19
 -122 653 -122 653 -122 662 c 0,20,21
 -122 674 -122 674 -112 683 c 128,-1,22
 -102 692 -102 692 -90 692 c 0,23,12
 -81 692 -81 692 -75 685.5 c 128,-1,13
EndSplineSet
Substitution2: "<3,3> Small Caps in Latin lookup 11 subtable" uni0308.sc
EndChar

StartChar: hookabovecomb
Encoding: 777 777 410
Width: 0
Flags: W
LayerCount: 2
Fore
SplineSet
-74 734.5 m 128,-1,1
 -58 718 -58 718 -58 693 c 0,2,3
 -58 666 -58 666 -77.5 638 c 128,-1,4
 -97 610 -97 610 -131 588 c 1,5,-1
 -150 596 l 1,6,7
 -117 617 -117 617 -97.5 642 c 128,-1,8
 -78 667 -78 667 -78 689 c 0,9,10
 -78 707 -78 707 -90 719 c 128,-1,11
 -102 731 -102 731 -124 731 c 0,12,13
 -149 731 -149 731 -180 713 c 1,14,-1
 -188 729 l 1,15,16
 -149 751 -149 751 -120 751 c 0,17,0
 -90 751 -90 751 -74 734.5 c 128,-1,1
EndSplineSet
Substitution2: "<3,3> Small Caps in Latin lookup 11 subtable" hookabovecomb.sc
EndChar

StartChar: uni030A
Encoding: 778 778 411
Width: 0
Flags: W
LayerCount: 2
Fore
SplineSet
-78 732 m 128,-1,1
 -55 709 -55 709 -55 676 c 0,2,3
 -55 639 -55 639 -86.5 609.5 c 128,-1,4
 -118 580 -118 580 -157 580 c 0,5,6
 -191 580 -191 580 -214 602.5 c 128,-1,7
 -237 625 -237 625 -237 657 c 0,8,9
 -237 695 -237 695 -206 725 c 128,-1,10
 -175 755 -175 755 -135 755 c 0,11,0
 -101 755 -101 755 -78 732 c 128,-1,1
-192.5 713 m 128,-1,13
 -217 690 -217 690 -217 660 c 0,14,15
 -217 634 -217 634 -199 616.5 c 128,-1,16
 -181 599 -181 599 -154 599 c 0,17,18
 -124 599 -124 599 -99 621.5 c 128,-1,19
 -74 644 -74 644 -74 674 c 0,20,21
 -74 700 -74 700 -92.5 718 c 128,-1,22
 -111 736 -111 736 -138 736 c 0,23,12
 -168 736 -168 736 -192.5 713 c 128,-1,13
EndSplineSet
EndChar

StartChar: uni030B
Encoding: 779 779 412
Width: 0
Flags: W
LayerCount: 2
Fore
SplineSet
-184 739 m 1,0,-1
 -167 728 l 1,1,-1
 -262 624 l 1,2,-1
 -283 629 l 1,3,-1
 -184 739 l 1,0,-1
-65 739 m 1,4,-1
 -48 728 l 1,5,-1
 -143 624 l 1,6,-1
 -164 629 l 1,7,-1
 -65 739 l 1,4,-1
EndSplineSet
Substitution2: "<3,3> Small Caps in Latin lookup 11 subtable" uni030B.sc
EndChar

StartChar: uni030C
Encoding: 780 780 413
Width: 0
Flags: W
LayerCount: 2
Fore
SplineSet
-48 734 m 1,0,-1
 -22 734 l 1,1,-1
 -141 624 l 1,2,-1
 -173 624 l 1,3,-1
 -250 734 l 1,4,-1
 -224 734 l 1,5,-1
 -154 642 l 1,6,-1
 -48 734 l 1,0,-1
EndSplineSet
Substitution2: "<3,3> Small Caps in Latin lookup 11 subtable" uni030C.sc
EndChar

StartChar: uni030F
Encoding: 783 783 414
Width: 0
Flags: W
LayerCount: 2
Fore
SplineSet
-227 739 m 1,0,-1
 -148 629 l 1,1,-1
 -172 624 l 1,2,-1
 -246 728 l 1,3,-1
 -227 739 l 1,0,-1
-108 739 m 1,4,-1
 -29 629 l 1,5,-1
 -53 624 l 1,6,-1
 -127 728 l 1,7,-1
 -108 739 l 1,4,-1
EndSplineSet
Substitution2: "<3,3> Small Caps in Latin lookup 11 subtable" uni030F.sc
EndChar

StartChar: uni0311
Encoding: 785 785 415
Width: 0
Flags: W
LayerCount: 2
Fore
SplineSet
-73 635 m 0,1,2
 -73 666 -73 666 -92 686 c 128,-1,3
 -111 706 -111 706 -142 706 c 0,4,5
 -177 706 -177 706 -206.5 681.5 c 128,-1,6
 -236 657 -236 657 -244 621 c 1,7,-1
 -264 621 l 1,8,9
 -254 666 -254 666 -218 696 c 128,-1,10
 -182 726 -182 726 -139 726 c 0,11,12
 -101 726 -101 726 -76.5 702 c 128,-1,13
 -52 678 -52 678 -52 640 c 0,14,15
 -52 633 -52 633 -54 621 c 1,16,-1
 -74 621 l 1,17,0
 -73 626 -73 626 -73 635 c 0,1,2
EndSplineSet
Substitution2: "<3,3> Small Caps in Latin lookup 11 subtable" uni0311.sc
EndChar

StartChar: uni0312
Encoding: 786 786 416
Width: 0
Flags: W
LayerCount: 2
Fore
SplineSet
-116 615 m 1,0,-1
 -142 615 l 1,1,-1
 -70 764 l 1,2,-1
 -52 764 l 1,3,-1
 -116 615 l 1,0,-1
EndSplineSet
EndChar

StartChar: uni031B
Encoding: 795 795 417
Width: 0
Flags: W
LayerCount: 2
Fore
SplineSet
-131 601 m 0,1,2
 -131 559 -131 559 -158.5 529.5 c 128,-1,3
 -186 500 -186 500 -232 500 c 1,4,-1
 -228 517 l 1,5,6
 -192 517 -192 517 -172 539.5 c 128,-1,7
 -152 562 -152 562 -152 594 c 0,8,9
 -152 614 -152 614 -157 626 c 1,10,-1
 -136 634 l 1,11,0
 -131 616 -131 616 -131 601 c 0,1,2
EndSplineSet
EndChar

StartChar: dotbelowcomb
Encoding: 803 803 418
Width: 0
Flags: W
LayerCount: 2
Fore
SplineSet
-229 -86.5 m 128,-1,1
 -223 -93 -223 -93 -223 -102 c 0,2,3
 -223 -114 -223 -114 -233 -123 c 128,-1,4
 -243 -132 -243 -132 -255 -132 c 0,5,6
 -264 -132 -264 -132 -270 -125.5 c 128,-1,7
 -276 -119 -276 -119 -276 -110 c 0,8,9
 -276 -98 -276 -98 -266 -89 c 128,-1,10
 -256 -80 -256 -80 -244 -80 c 0,11,0
 -235 -80 -235 -80 -229 -86.5 c 128,-1,1
EndSplineSet
Substitution2: "<3,3> Small Caps in Latin lookup 11 subtable" dotbelowcomb.sc
EndChar

StartChar: uni0324
Encoding: 804 804 419
Width: 0
Flags: W
LayerCount: 2
Fore
SplineSet
-379 -85.5 m 128,-1,1
 -373 -92 -373 -92 -373 -101 c 0,2,3
 -373 -113 -373 -113 -383 -122 c 128,-1,4
 -393 -131 -393 -131 -405 -131 c 0,5,6
 -414 -131 -414 -131 -420 -124.5 c 128,-1,7
 -426 -118 -426 -118 -426 -109 c 0,8,9
 -426 -97 -426 -97 -416 -88 c 128,-1,10
 -406 -79 -406 -79 -394 -79 c 0,11,0
 -385 -79 -385 -79 -379 -85.5 c 128,-1,1
-229 -85.5 m 128,-1,13
 -223 -92 -223 -92 -223 -101 c 0,14,15
 -223 -113 -223 -113 -233 -122 c 128,-1,16
 -243 -131 -243 -131 -255 -131 c 0,17,18
 -264 -131 -264 -131 -270 -124.5 c 128,-1,19
 -276 -118 -276 -118 -276 -109 c 0,20,21
 -276 -97 -276 -97 -266 -88 c 128,-1,22
 -256 -79 -256 -79 -244 -79 c 0,23,12
 -235 -79 -235 -79 -229 -85.5 c 128,-1,13
EndSplineSet
Substitution2: "<3,3> Small Caps in Latin lookup 11 subtable" uni0324.sc
EndChar

StartChar: uni0326
Encoding: 806 806 420
Width: 0
Flags: W
LayerCount: 2
Fore
SplineSet
-236 -65 m 1,0,-1
 -210 -65 l 1,1,-1
 -282 -214 l 1,2,-1
 -300 -214 l 1,3,-1
 -236 -65 l 1,0,-1
EndSplineSet
EndChar

StartChar: uni0327
Encoding: 807 807 421
Width: 0
Flags: W
LayerCount: 2
Fore
SplineSet
-264 0 m 1,0,-1
 -290 -54 l 1,1,2
 -257 -55 -257 -55 -239.5 -73 c 128,-1,3
 -222 -91 -222 -91 -222 -117 c 0,4,5
 -222 -140 -222 -140 -235.5 -162.5 c 128,-1,6
 -249 -185 -249 -185 -273.5 -199 c 128,-1,7
 -298 -213 -298 -213 -329 -213 c 0,8,9
 -348 -213 -348 -213 -368 -207 c 128,-1,10
 -388 -201 -388 -201 -398 -191 c 1,11,-1
 -385 -171 l 1,12,13
 -375 -180 -375 -180 -358 -186 c 128,-1,14
 -341 -192 -341 -192 -325 -192 c 0,15,16
 -289 -192 -289 -192 -266.5 -170 c 128,-1,17
 -244 -148 -244 -148 -244 -121 c 0,18,19
 -244 -100 -244 -100 -256.5 -86.5 c 128,-1,20
 -269 -73 -269 -73 -291 -73 c 2,21,-1
 -320 -73 l 1,22,-1
 -283 5 l 1,23,-1
 -264 0 l 1,0,-1
EndSplineSet
Substitution2: "<3,3> Small Caps in Latin lookup 11 subtable" uni0327.sc
EndChar

StartChar: uni0328
Encoding: 808 808 422
Width: 0
Flags: W
LayerCount: 2
Fore
SplineSet
-192 0 m 1,0,1
 -274 -47 -274 -47 -308.5 -80 c 128,-1,2
 -343 -113 -343 -113 -343 -151 c 0,3,4
 -343 -171 -343 -171 -331 -182 c 128,-1,5
 -319 -193 -319 -193 -300 -193 c 0,6,7
 -271 -193 -271 -193 -236 -173 c 1,8,-1
 -230 -189 l 1,9,10
 -269 -213 -269 -213 -305 -213 c 0,11,12
 -333 -213 -333 -213 -348.5 -197.5 c 128,-1,13
 -364 -182 -364 -182 -364 -154 c 0,14,15
 -364 -107 -364 -107 -326 -70.5 c 128,-1,16
 -288 -34 -288 -34 -198 16 c 1,17,-1
 -192 0 l 1,0,1
EndSplineSet
EndChar

StartChar: uni032E
Encoding: 814 814 423
Width: 0
Flags: W
LayerCount: 2
Fore
SplineSet
-397 -64 m 0,1,2
 -397 -95 -397 -95 -378 -115 c 128,-1,3
 -359 -135 -359 -135 -328 -135 c 0,4,5
 -293 -135 -293 -135 -263.5 -110.5 c 128,-1,6
 -234 -86 -234 -86 -226 -50 c 1,7,-1
 -206 -50 l 1,8,9
 -216 -95 -216 -95 -252 -125 c 128,-1,10
 -288 -155 -288 -155 -331 -155 c 0,11,12
 -369 -155 -369 -155 -393.5 -131 c 128,-1,13
 -418 -107 -418 -107 -418 -69 c 0,14,15
 -418 -62 -418 -62 -416 -50 c 1,16,-1
 -396 -50 l 1,17,0
 -397 -55 -397 -55 -397 -64 c 0,1,2
EndSplineSet
EndChar

StartChar: uni0331
Encoding: 817 817 424
Width: 0
Flags: W
LayerCount: 2
Fore
SplineSet
-444 -90 m 1,0,-1
 -227 -90 l 1,1,-1
 -231 -110 l 1,2,-1
 -448 -110 l 1,3,-1
 -444 -90 l 1,0,-1
EndSplineSet
EndChar

StartChar: uni0335
Encoding: 821 821 425
Width: 0
Flags: W
LayerCount: 2
Fore
SplineSet
-397 451 m 1,0,-1
 -119 451 l 1,1,-1
 -123 431 l 1,2,-1
 -401 431 l 1,3,-1
 -397 451 l 1,0,-1
EndSplineSet
EndChar

StartChar: uni0336
Encoding: 822 822 426
Width: 0
Flags: W
LayerCount: 2
Fore
SplineSet
-475 451 m 1,0,-1
 -119 451 l 1,1,-1
 -123 431 l 1,2,-1
 -479 431 l 1,3,-1
 -475 451 l 1,0,-1
EndSplineSet
EndChar

StartChar: uni0337
Encoding: 823 823 427
Width: 0
Flags: W
LayerCount: 2
Fore
SplineSet
-66 560 m 1,0,-1
 -313 80 l 1,1,-1
 -334 80 l 1,2,-1
 -87 560 l 1,3,-1
 -66 560 l 1,0,-1
EndSplineSet
EndChar

StartChar: uni0338
Encoding: 824 824 428
Width: 0
Flags: W
LayerCount: 2
Fore
SplineSet
-416 0 m 1,0,-1
 -35 742 l 1,1,-1
 -14 742 l 1,2,-1
 -395 0 l 1,3,-1
 -416 0 l 1,0,-1
EndSplineSet
EndChar

StartChar: uni0394
Encoding: 916 916 429
Width: 686
Flags: W
LayerCount: 2
Fore
SplineSet
416 699 m 1,0,-1
 624 0 l 1,1,-1
 -42 0 l 1,2,-1
 394 699 l 1,3,-1
 416 699 l 1,0,-1
-6 20 m 1,4,-1
 595 20 l 1,5,-1
 401 676 l 1,6,-1
 -6 20 l 1,4,-1
EndSplineSet
EndChar

StartChar: uni03A9
Encoding: 937 937 430
Width: 926
Flags: W
LayerCount: 2
Fore
SplineSet
649.5 659.5 m 128,-1,1
 724 620 724 620 766 549.5 c 128,-1,2
 808 479 808 479 808 390 c 0,3,4
 808 321 808 321 781 250 c 128,-1,5
 754 179 754 179 706.5 118.5 c 128,-1,6
 659 58 659 58 598 20 c 1,7,-1
 865 20 l 1,8,-1
 861 0 l 1,9,-1
 558 0 l 1,10,-1
 560 21 l 1,11,12
 624 53 624 53 676 112 c 128,-1,13
 728 171 728 171 758 244.5 c 128,-1,14
 788 318 788 318 788 390 c 0,15,16
 788 474 788 474 749 539.5 c 128,-1,17
 710 605 710 605 639.5 642 c 128,-1,18
 569 679 569 679 480 679 c 0,19,20
 378 679 378 679 292 631 c 128,-1,21
 206 583 206 583 156 500 c 128,-1,22
 106 417 106 417 106 319 c 0,23,24
 106 225 106 225 151 142 c 128,-1,25
 196 59 196 59 269 20 c 1,26,-1
 267 0 l 1,27,-1
 -39 0 l 1,28,-1
 -35 20 l 1,29,-1
 230 20 l 1,30,31
 165 67 165 67 125.5 148.5 c 128,-1,32
 86 230 86 230 86 319 c 0,33,34
 86 422 86 422 139 509.5 c 128,-1,35
 192 597 192 597 282.5 648 c 128,-1,36
 373 699 373 699 480 699 c 0,37,0
 575 699 575 699 649.5 659.5 c 128,-1,1
EndSplineSet
EndChar

StartChar: uni03BC
Encoding: 956 956 431
Width: 646
Flags: W
LayerCount: 2
Fore
SplineSet
586 517 m 1,0,-1
 484 0 l 1,1,-1
 464 0 l 1,2,-1
 493 149 l 1,3,4
 455 79 455 79 392 40.5 c 128,-1,5
 329 2 329 2 249 0 c 0,6,7
 181 0 181 0 138.5 27 c 128,-1,8
 96 54 96 54 83 104 c 1,9,-1
 24 -194 l 1,10,-1
 4 -194 l 1,11,-1
 145 517 l 1,12,-1
 165 517 l 1,13,-1
 103 204 l 2,14,15
 98 176 98 176 98 155 c 0,16,17
 98 90 98 90 137 55 c 128,-1,18
 176 20 176 20 249 20 c 0,19,20
 350 22 350 22 421.5 83 c 128,-1,21
 493 144 493 144 514 251 c 2,22,-1
 566 517 l 1,23,-1
 586 517 l 1,0,-1
EndSplineSet
EndChar

StartChar: pi
Encoding: 960 960 432
Width: 718
Flags: W
LayerCount: 2
Fore
SplineSet
759 497 m 1,0,-1
 577 497 l 1,1,-1
 478 0 l 1,2,-1
 458 0 l 1,3,-1
 557 497 l 1,4,-1
 315 497 l 1,5,-1
 158 0 l 1,6,-1
 138 0 l 1,7,-1
 295 497 l 1,8,-1
 211 497 l 2,9,10
 164 497 164 497 125.5 475 c 128,-1,11
 87 453 87 453 64.5 417 c 128,-1,12
 42 381 42 381 42 341 c 0,13,14
 42 308 42 308 58 279 c 1,15,-1
 40 270 l 1,16,17
 20 305 20 305 20 342 c 0,18,19
 20 387 20 387 45.5 427.5 c 128,-1,20
 71 468 71 468 115.5 492.5 c 128,-1,21
 160 517 160 517 213 517 c 2,22,-1
 764 517 l 1,23,-1
 759 497 l 1,0,-1
EndSplineSet
EndChar

StartChar: uni1E08
Encoding: 7688 7688 433
Width: 732
Flags: W
LayerCount: 2
Fore
SplineSet
615 881 m 1,0,-1
 486 776 l 1,1,-1
 460 781 l 1,2,-1
 596 891 l 1,3,-1
 615 881 l 1,0,-1
287.5 639 m 128,-1,5
 205 594 205 594 152 517.5 c 128,-1,6
 99 441 99 441 90 350 c 0,7,8
 88 328 88 328 88 318 c 0,9,10
 88 235 88 235 128.5 165.5 c 128,-1,11
 169 96 169 96 239 56 c 128,-1,12
 309 16 309 16 395 16 c 0,13,14
 460 16 460 16 521 38.5 c 128,-1,15
 582 61 582 61 631 102 c 1,16,-1
 644 89 l 1,17,18
 590 45 590 45 526 21 c 128,-1,19
 462 -3 462 -3 395 -3 c 0,20,21
 382 -3 382 -3 376 -2 c 1,22,-1
 351 -54 l 1,23,24
 384 -55 384 -55 401.5 -73 c 128,-1,25
 419 -91 419 -91 419 -117 c 0,26,27
 419 -140 419 -140 405.5 -162.5 c 128,-1,28
 392 -185 392 -185 367.5 -199 c 128,-1,29
 343 -213 343 -213 312 -213 c 0,30,31
 293 -213 293 -213 273 -207 c 128,-1,32
 253 -201 253 -201 243 -191 c 1,33,-1
 256 -171 l 1,34,35
 266 -180 266 -180 283 -186 c 128,-1,36
 300 -192 300 -192 316 -192 c 0,37,38
 352 -192 352 -192 374.5 -170 c 128,-1,39
 397 -148 397 -148 397 -121 c 0,40,41
 397 -100 397 -100 384.5 -86.5 c 128,-1,42
 372 -73 372 -73 350 -73 c 2,43,-1
 321 -73 l 1,44,-1
 355 -1 l 1,45,46
 273 8 273 8 208 52.5 c 128,-1,47
 143 97 143 97 106 166 c 128,-1,48
 69 235 69 235 69 317 c 0,49,50
 69 328 69 328 71 352 c 0,51,52
 80 447 80 447 136.5 527.5 c 128,-1,53
 193 608 193 608 280 655.5 c 128,-1,54
 367 703 367 703 463 703 c 0,55,56
 532 703 532 703 591.5 679 c 128,-1,57
 651 655 651 655 695 612 c 1,58,-1
 681 599 l 1,59,60
 639 640 639 640 583 662 c 128,-1,61
 527 684 527 684 463 684 c 0,62,4
 370 684 370 684 287.5 639 c 128,-1,5
EndSplineSet
EndChar

StartChar: uni1E09
Encoding: 7689 7689 434
Width: 577
Flags: W
LayerCount: 2
Fore
SplineSet
496 729 m 1,0,-1
 367 624 l 1,1,-1
 341 629 l 1,2,-1
 477 739 l 1,3,-1
 496 729 l 1,0,-1
199 463.5 m 128,-1,5
 140 430 140 430 106 370 c 128,-1,6
 72 310 72 310 72 235 c 0,7,8
 72 172 72 172 98.5 123 c 128,-1,9
 125 74 125 74 172.5 47 c 128,-1,10
 220 20 220 20 282 20 c 0,11,12
 335 20 335 20 381.5 39.5 c 128,-1,13
 428 59 428 59 463 95 c 1,14,-1
 475 81 l 1,15,16
 437 42 437 42 386.5 21 c 128,-1,17
 336 0 336 0 280 0 c 2,18,-1
 277 0 l 1,19,-1
 277 0 l 1,20,-1
 251 -54 l 1,21,22
 284 -55 284 -55 301.5 -73 c 128,-1,23
 319 -91 319 -91 319 -117 c 0,24,25
 319 -140 319 -140 305.5 -162.5 c 128,-1,26
 292 -185 292 -185 267.5 -199 c 128,-1,27
 243 -213 243 -213 212 -213 c 0,28,29
 193 -213 193 -213 173 -207 c 128,-1,30
 153 -201 153 -201 143 -191 c 1,31,-1
 156 -171 l 1,32,33
 166 -180 166 -180 183 -186 c 128,-1,34
 200 -192 200 -192 216 -192 c 0,35,36
 252 -192 252 -192 274.5 -170 c 128,-1,37
 297 -148 297 -148 297 -121 c 0,38,39
 297 -100 297 -100 284.5 -86.5 c 128,-1,40
 272 -73 272 -73 250 -73 c 2,41,-1
 221 -73 l 1,42,-1
 256 1 l 1,43,44
 196 6 196 6 150 37 c 128,-1,45
 104 68 104 68 78.5 119 c 128,-1,46
 53 170 53 170 53 234 c 0,47,48
 53 314 53 314 90 378.5 c 128,-1,49
 127 443 127 443 191 480 c 128,-1,50
 255 517 255 517 331 517 c 0,51,52
 382 517 382 517 425.5 499 c 128,-1,53
 469 481 469 481 500 448 c 1,54,-1
 486 434 l 1,55,56
 423 497 423 497 329 497 c 0,57,4
 258 497 258 497 199 463.5 c 128,-1,5
EndSplineSet
Substitution2: "<3,3> Small Caps in Latin lookup 11 subtable" uni1E09.sc
EndChar

StartChar: uni1E1C
Encoding: 7708 7708 443
Width: 644
Flags: W
LayerCount: 2
Fore
SplineSet
388.5 795 m 128,-1,1
 364 819 364 819 364 857 c 0,2,3
 364 864 364 864 366 876 c 1,4,-1
 386 876 l 1,5,6
 385 871 385 871 385 862 c 0,7,8
 385 831 385 831 404 811 c 128,-1,9
 423 791 423 791 454 791 c 0,10,11
 489 791 489 791 518.5 815.5 c 128,-1,12
 548 840 548 840 556 876 c 1,13,-1
 576 876 l 1,14,15
 566 831 566 831 530 801 c 128,-1,16
 494 771 494 771 451 771 c 0,17,0
 413 771 413 771 388.5 795 c 128,-1,1
232 679 m 1,18,-1
 170 370 l 1,19,-1
 541 370 l 1,20,-1
 537 350 l 1,21,-1
 166 350 l 1,22,-1
 100 20 l 1,23,-1
 531 20 l 1,24,-1
 527 0 l 1,25,-1
 341 0 l 1,26,-1
 315 -54 l 1,27,28
 348 -55 348 -55 365.5 -73 c 128,-1,29
 383 -91 383 -91 383 -117 c 0,30,31
 383 -140 383 -140 369.5 -162.5 c 128,-1,32
 356 -185 356 -185 331.5 -199 c 128,-1,33
 307 -213 307 -213 276 -213 c 0,34,35
 257 -213 257 -213 237 -207 c 128,-1,36
 217 -201 217 -201 207 -191 c 1,37,-1
 220 -171 l 1,38,39
 230 -180 230 -180 247 -186 c 128,-1,40
 264 -192 264 -192 280 -192 c 0,41,42
 316 -192 316 -192 338.5 -170 c 128,-1,43
 361 -148 361 -148 361 -121 c 0,44,45
 361 -100 361 -100 348.5 -86.5 c 128,-1,46
 336 -73 336 -73 314 -73 c 2,47,-1
 285 -73 l 1,48,-1
 320 0 l 1,49,-1
 76 0 l 1,50,-1
 216 699 l 1,51,-1
 653 699 l 1,52,-1
 649 679 l 1,53,-1
 232 679 l 1,18,-1
EndSplineSet
EndChar

StartChar: uni1E1D
Encoding: 7709 7709 444
Width: 592
Flags: W
LayerCount: 2
Fore
SplineSet
316.5 645 m 128,-1,1
 292 669 292 669 292 707 c 0,2,3
 292 714 292 714 294 726 c 1,4,-1
 314 726 l 1,5,6
 313 721 313 721 313 712 c 0,7,8
 313 681 313 681 332 661 c 128,-1,9
 351 641 351 641 382 641 c 0,10,11
 417 641 417 641 446.5 665.5 c 128,-1,12
 476 690 476 690 484 726 c 1,13,-1
 504 726 l 1,14,15
 494 681 494 681 458 651 c 128,-1,16
 422 621 422 621 379 621 c 0,17,0
 341 621 341 621 316.5 645 c 128,-1,1
74 259 m 1,18,19
 73 251 73 251 73 235 c 0,20,21
 73 172 73 172 99 123 c 128,-1,22
 125 74 125 74 172 47 c 128,-1,23
 219 20 219 20 280 20 c 0,24,25
 336 20 336 20 385.5 39.5 c 128,-1,26
 435 59 435 59 470 95 c 1,27,-1
 483 81 l 1,28,29
 445 44 445 44 394.5 22.5 c 128,-1,30
 344 1 344 1 287 0 c 1,31,-1
 288 0 l 1,32,-1
 262 -54 l 1,33,34
 295 -55 295 -55 312.5 -73 c 128,-1,35
 330 -91 330 -91 330 -117 c 0,36,37
 330 -140 330 -140 316.5 -162.5 c 128,-1,38
 303 -185 303 -185 278.5 -199 c 128,-1,39
 254 -213 254 -213 223 -213 c 0,40,41
 204 -213 204 -213 184 -207 c 128,-1,42
 164 -201 164 -201 154 -191 c 1,43,-1
 167 -171 l 1,44,45
 177 -180 177 -180 194 -186 c 128,-1,46
 211 -192 211 -192 227 -192 c 0,47,48
 263 -192 263 -192 285.5 -170 c 128,-1,49
 308 -148 308 -148 308 -121 c 0,50,51
 308 -100 308 -100 295.5 -86.5 c 128,-1,52
 283 -73 283 -73 261 -73 c 2,53,-1
 232 -73 l 1,54,-1
 267 0 l 1,55,56
 204 3 204 3 155.5 33.5 c 128,-1,57
 107 64 107 64 80 116 c 128,-1,58
 53 168 53 168 53 234 c 0,59,60
 53 314 53 314 90 378.5 c 128,-1,61
 127 443 127 443 190 480 c 128,-1,62
 253 517 253 517 329 517 c 0,63,64
 395 517 395 517 444 488.5 c 128,-1,65
 493 460 493 460 519 408.5 c 128,-1,66
 545 357 545 357 545 291 c 0,67,68
 545 270 545 270 544 259 c 1,69,-1
 74 259 l 1,18,19
209.5 469.5 m 128,-1,71
 156 442 156 442 120.5 392.5 c 128,-1,72
 85 343 85 343 76 279 c 1,73,-1
 526 279 l 1,74,75
 528 377 528 377 475 437 c 128,-1,76
 422 497 422 497 327 497 c 0,77,70
 263 497 263 497 209.5 469.5 c 128,-1,71
EndSplineSet
Substitution2: "<3,3> Small Caps in Latin lookup 11 subtable" uni1E1D.sc
EndChar

StartChar: uni1E9E
Encoding: 7838 7838 506
Width: 691
Flags: W
LayerCount: 2
Fore
SplineSet
651 623 m 1,0,-1
 414 385 l 1,1,2
 512 381 512 381 561 340 c 128,-1,3
 610 299 610 299 610 233 c 0,4,5
 610 165 610 165 572 112 c 128,-1,6
 534 59 534 59 470 29.5 c 128,-1,7
 406 0 406 0 330 0 c 2,8,-1
 245 0 l 1,9,-1
 249 20 l 1,10,-1
 334 20 l 2,11,12
 404 20 404 20 462.5 46.5 c 128,-1,13
 521 73 521 73 555 120.5 c 128,-1,14
 589 168 589 168 589 230 c 0,15,16
 589 293 589 293 538 329 c 128,-1,17
 487 365 487 365 392 365 c 2,18,-1
 387 365 l 1,19,-1
 391 385 l 1,20,-1
 637 632 l 1,21,22
 566 682 566 682 454 682 c 0,23,24
 343 682 343 682 267 624 c 128,-1,25
 191 566 191 566 170 459 c 2,26,-1
 80 0 l 1,27,-1
 60 0 l 1,28,-1
 150 459 l 2,29,30
 173 575 173 575 255.5 638.5 c 128,-1,31
 338 702 338 702 458 702 c 0,32,33
 577 702 577 702 654 643 c 1,34,-1
 651 623 l 1,0,-1
EndSplineSet
EndChar

StartChar: figuredash
Encoding: 8210 8210 603
Width: 617
Flags: W
LayerCount: 2
Fore
SplineSet
10 310 m 1,0,-1
 627 310 l 1,1,-1
 623 290 l 1,2,-1
 6 290 l 1,3,-1
 10 310 l 1,0,-1
EndSplineSet
EndChar

StartChar: endash
Encoding: 8211 8211 604
Width: 400
Flags: W
LayerCount: 2
Fore
SplineSet
410 310 m 1,0,-1
 406 290 l 1,1,-1
 6 290 l 1,2,-1
 10 310 l 1,3,-1
 410 310 l 1,0,-1
EndSplineSet
EndChar

StartChar: emdash
Encoding: 8212 8212 605
Width: 760
Flags: W
LayerCount: 2
Fore
SplineSet
770 310 m 1,0,-1
 766 290 l 1,1,-1
 6 290 l 1,2,-1
 10 310 l 1,3,-1
 770 310 l 1,0,-1
EndSplineSet
EndChar

StartChar: quoteleft
Encoding: 8216 8216 607
Width: 163
Flags: W
LayerCount: 2
Fore
SplineSet
163 630 m 128,-1,1
 168 623 168 623 168 615 c 0,2,3
 168 604 168 604 159.5 595.5 c 128,-1,4
 151 587 151 587 140 587 c 0,5,6
 130 587 130 587 123 593.5 c 128,-1,7
 116 600 116 600 116 610 c 0,8,9
 116 621 116 621 126 639 c 2,10,-1
 178 742 l 1,11,-1
 198 742 l 1,12,-1
 151 638 l 1,13,0
 158 637 158 637 163 630 c 128,-1,1
EndSplineSet
Substitution2: "<3,3> Small Caps in Latin lookup 11 subtable" quoteleft.sc
EndChar

StartChar: quoteright
Encoding: 8217 8217 608
Width: 164
Flags: W
LayerCount: 2
Fore
SplineSet
194 735.5 m 128,-1,1
 201 729 201 729 201 719 c 0,2,3
 201 708 201 708 191 690 c 2,4,-1
 139 587 l 1,5,-1
 119 587 l 1,6,-1
 166 691 l 1,7,8
 159 692 159 692 154 699 c 128,-1,9
 149 706 149 706 149 714 c 0,10,11
 149 725 149 725 157.5 733.5 c 128,-1,12
 166 742 166 742 177 742 c 0,13,0
 187 742 187 742 194 735.5 c 128,-1,1
EndSplineSet
Substitution2: "<3,3> Small Caps in Latin lookup 11 subtable" quoteright.sc
EndChar

StartChar: quotesinglbase
Encoding: 8218 8218 609
Width: 163
Flags: W
LayerCount: 2
Fore
SplineSet
54 38.5 m 128,-1,1
 61 32 61 32 61 22 c 0,2,3
 61 11 61 11 51 -7 c 2,4,-1
 -1 -110 l 1,5,-1
 -21 -110 l 1,6,-1
 26 -6 l 1,7,8
 19 -5 19 -5 14 2 c 128,-1,9
 9 9 9 9 9 17 c 0,10,11
 9 28 9 28 17.5 36.5 c 128,-1,12
 26 45 26 45 37 45 c 0,13,0
 47 45 47 45 54 38.5 c 128,-1,1
EndSplineSet
EndChar

StartChar: dagger
Encoding: 8224 8224 613
Width: 480
Flags: W
LayerCount: 2
Fore
SplineSet
338 699 m 1,0,-1
 290 461 l 1,1,-1
 510 461 l 1,2,-1
 506 441 l 1,3,-1
 286 441 l 1,4,-1
 159 -194 l 1,5,-1
 139 -194 l 1,6,-1
 266 441 l 1,7,-1
 46 441 l 1,8,-1
 50 461 l 1,9,-1
 270 461 l 1,10,-1
 318 699 l 1,11,-1
 338 699 l 1,0,-1
EndSplineSet
EndChar

StartChar: daggerdbl
Encoding: 8225 8225 614
Width: 481
Flags: W
LayerCount: 2
Fore
SplineSet
507 441 m 1,0,-1
 287 441 l 1,1,-1
 219 101 l 1,2,-1
 439 101 l 1,3,-1
 435 81 l 1,4,-1
 215 81 l 1,5,-1
 160 -194 l 1,6,-1
 140 -194 l 1,7,-1
 195 81 l 1,8,-1
 -25 81 l 1,9,-1
 -21 101 l 1,10,-1
 199 101 l 1,11,-1
 267 441 l 1,12,-1
 47 441 l 1,13,-1
 51 461 l 1,14,-1
 271 461 l 1,15,-1
 319 699 l 1,16,-1
 339 699 l 1,17,-1
 291 461 l 1,18,-1
 511 461 l 1,19,-1
 507 441 l 1,0,-1
EndSplineSet
EndChar

StartChar: bullet
Encoding: 8226 8226 615
Width: 198
Flags: W
LayerCount: 2
Fore
SplineSet
129.5 297.5 m 128,-1,1
 141 286 141 286 141 270 c 256,2,3
 141 254 141 254 129.5 242.5 c 128,-1,4
 118 231 118 231 102 231 c 256,5,6
 86 231 86 231 74.5 242.5 c 128,-1,7
 63 254 63 254 63 270 c 256,8,9
 63 286 63 286 74.5 297.5 c 128,-1,10
 86 309 86 309 102 309 c 256,11,0
 118 309 118 309 129.5 297.5 c 128,-1,1
EndSplineSet
EndChar

StartChar: minute
Encoding: 8242 8242 618
Width: 136
Flags: W
LayerCount: 2
Fore
SplineSet
154 699 m 1,0,-1
 174 699 l 1,1,-1
 106 459 l 1,2,-1
 90 459 l 1,3,-1
 154 699 l 1,0,-1
EndSplineSet
EndChar

StartChar: guilsinglleft
Encoding: 8249 8249 620
Width: 268
Flags: W
LayerCount: 2
Fore
SplineSet
220 403 m 1,0,-1
 81 245 l 1,1,-1
 158 94 l 1,2,-1
 134 94 l 1,3,-1
 56 247 l 1,4,-1
 196 403 l 1,5,-1
 220 403 l 1,0,-1
EndSplineSet
Substitution2: "<3,3> Small Caps in Latin lookup 11 subtable" guilsinglleft.sc
Substitution2: "'rtla' Right to Left Alternates lookup 0 subtable" guilsinglright
EndChar

StartChar: guilsinglright
Encoding: 8250 8250 621
Width: 268
Flags: W
LayerCount: 2
Fore
SplineSet
44 94 m 1,0,-1
 183 252 l 1,1,-1
 106 403 l 1,2,-1
 130 403 l 1,3,-1
 208 250 l 1,4,-1
 68 94 l 1,5,-1
 44 94 l 1,0,-1
EndSplineSet
Substitution2: "<3,3> Small Caps in Latin lookup 11 subtable" guilsinglright.sc
Substitution2: "'rtla' Right to Left Alternates lookup 0 subtable" guilsinglleft
EndChar

StartChar: fraction
Encoding: 8260 8260 622
Width: 110
Flags: W
LayerCount: 2
Fore
SplineSet
-198 0 m 1,0,-1
 -220 0 l 1,1,-1
 318 699 l 1,2,-1
 340 699 l 1,3,-1
 -198 0 l 1,0,-1
EndSplineSet
EndChar

StartChar: colonmonetary
Encoding: 8353 8353 640
Width: 732
Flags: W
LayerCount: 2
Fore
SplineSet
287 635.5 m 128,-1,1
 204 591 204 591 151 515 c 128,-1,2
 98 439 98 439 89 349 c 0,3,4
 87 327 87 327 87 317 c 0,5,6
 87 235 87 235 127.5 166.5 c 128,-1,7
 168 98 168 98 238.5 58.5 c 128,-1,8
 309 19 309 19 395 19 c 0,9,10
 460 19 460 19 520.5 41.5 c 128,-1,11
 581 64 581 64 631 104 c 1,12,-1
 644 91 l 1,13,14
 594 51 594 51 535.5 27.5 c 128,-1,15
 477 4 477 4 416 1 c 1,16,-1
 376 -119 l 1,17,-1
 356 -119 l 1,18,-1
 395 0 l 1,19,20
 351 0 351 0 309 11 c 1,21,-1
 266 -119 l 1,22,-1
 246 -119 l 1,23,-1
 290 16 l 1,24,25
 190 47 190 47 129 129.5 c 128,-1,26
 68 212 68 212 68 318 c 0,27,28
 68 329 68 329 70 351 c 0,29,30
 78 436 78 436 126 510.5 c 128,-1,31
 174 585 174 585 249 634 c 128,-1,32
 324 683 324 683 411 695 c 1,33,-1
 448 804 l 1,34,-1
 468 804 l 1,35,-1
 432 698 l 1,36,37
 442 699 442 699 462 699 c 0,38,39
 489 699 489 699 521 694 c 1,40,-1
 558 804 l 1,41,-1
 578 804 l 1,42,-1
 539 691 l 1,43,44
 630 672 630 672 694 609 c 1,45,-1
 680 596 l 1,46,47
 638 636 638 636 582 658 c 128,-1,48
 526 680 526 680 462 680 c 0,49,0
 370 680 370 680 287 635.5 c 128,-1,1
EndSplineSet
EndChar

StartChar: franc
Encoding: 8355 8355 641
Width: 554
Flags: W
LayerCount: 2
Fore
SplineSet
628 679 m 1,0,-1
 241 679 l 1,1,-1
 174 343 l 1,2,-1
 515 343 l 1,3,-1
 511 323 l 1,4,-1
 170 323 l 1,5,-1
 141 176 l 1,6,-1
 410 176 l 1,7,-1
 406 156 l 1,8,-1
 136 156 l 1,9,-1
 105 0 l 1,10,-1
 85 0 l 1,11,-1
 116 156 l 1,12,-1
 31 156 l 1,13,-1
 35 176 l 1,14,-1
 120 176 l 1,15,-1
 225 699 l 1,16,-1
 632 699 l 1,17,-1
 628 679 l 1,0,-1
EndSplineSet
EndChar

StartChar: lira
Encoding: 8356 8356 642
Width: 532
Flags: W
LayerCount: 2
Fore
SplineSet
495.5 673.5 m 128,-1,1
 536 648 536 648 560 600 c 1,2,-1
 543 588 l 1,3,4
 521 633 521 633 486 656 c 128,-1,5
 451 679 451 679 404 679 c 0,6,7
 330 679 330 679 280.5 633 c 128,-1,8
 231 587 231 587 214 501 c 2,9,-1
 195 408 l 1,10,-1
 386 408 l 1,11,-1
 382 388 l 1,12,-1
 191 388 l 1,13,-1
 173 298 l 1,14,-1
 364 298 l 1,15,-1
 360 278 l 1,16,-1
 169 278 l 1,17,-1
 118 20 l 1,18,-1
 434 20 l 1,19,-1
 430 0 l 1,20,-1
 0 0 l 1,21,-1
 4 20 l 1,22,-1
 98 20 l 1,23,-1
 150 278 l 1,24,-1
 55 278 l 1,25,-1
 59 298 l 1,26,-1
 154 298 l 1,27,-1
 172 388 l 1,28,-1
 77 388 l 1,29,-1
 81 408 l 1,30,-1
 176 408 l 1,31,-1
 195 503 l 2,32,33
 214 598 214 598 267.5 648.5 c 128,-1,34
 321 699 321 699 404 699 c 0,35,0
 455 699 455 699 495.5 673.5 c 128,-1,1
EndSplineSet
EndChar

StartChar: uni20A6
Encoding: 8358 8358 643
Width: 841
Flags: W
LayerCount: 2
Fore
SplineSet
804 388 m 1,0,-1
 714 388 l 1,1,-1
 696 298 l 1,2,-1
 786 298 l 1,3,-1
 782 278 l 1,4,-1
 692 278 l 1,5,-1
 636 0 l 1,6,-1
 606 0 l 1,7,-1
 460 278 l 1,8,-1
 169 278 l 1,9,-1
 113 0 l 1,10,-1
 93 0 l 1,11,-1
 149 278 l 1,12,-1
 59 278 l 1,13,-1
 63 298 l 1,14,-1
 153 298 l 1,15,-1
 171 388 l 1,16,-1
 81 388 l 1,17,-1
 85 408 l 1,18,-1
 175 408 l 1,19,-1
 233 699 l 1,20,-1
 263 699 l 1,21,-1
 416 408 l 1,22,-1
 698 408 l 1,23,-1
 756 699 l 1,24,-1
 776 699 l 1,25,-1
 718 408 l 1,26,-1
 808 408 l 1,27,-1
 804 388 l 1,0,-1
249 679 m 1,28,-1
 195 408 l 1,29,-1
 392 408 l 1,30,-1
 249 679 l 1,28,-1
173 298 m 1,31,-1
 449 298 l 1,32,-1
 402 388 l 1,33,-1
 191 388 l 1,34,-1
 173 298 l 1,31,-1
676 298 m 1,35,-1
 694 388 l 1,36,-1
 426 388 l 1,37,-1
 474 298 l 1,38,-1
 676 298 l 1,35,-1
620 20 m 1,39,-1
 672 278 l 1,40,-1
 484 278 l 1,41,-1
 620 20 l 1,39,-1
EndSplineSet
EndChar

StartChar: uni20A9
Encoding: 8361 8361 645
Width: 874
Flags: W
LayerCount: 2
Fore
SplineSet
937 699 m 1,0,-1
 810 408 l 1,1,-1
 901 408 l 1,2,-1
 897 388 l 1,3,-1
 801 388 l 1,4,-1
 762 298 l 1,5,-1
 853 298 l 1,6,-1
 849 278 l 1,7,-1
 753 278 l 1,8,-1
 632 0 l 1,9,-1
 613 0 l 1,10,-1
 571 278 l 1,11,-1
 343 278 l 1,12,-1
 222 0 l 1,13,-1
 203 0 l 1,14,-1
 161 278 l 1,15,-1
 64 278 l 1,16,-1
 68 298 l 1,17,-1
 158 298 l 1,18,-1
 145 388 l 1,19,-1
 48 388 l 1,20,-1
 52 408 l 1,21,-1
 142 408 l 1,22,-1
 98 699 l 1,23,-1
 121 699 l 1,24,-1
 163 408 l 1,25,-1
 380 408 l 1,26,-1
 507 699 l 1,27,-1
 531 699 l 1,28,-1
 573 408 l 1,29,-1
 790 408 l 1,30,-1
 917 699 l 1,31,-1
 937 699 l 1,0,-1
513 667 m 1,32,-1
 400 408 l 1,33,-1
 552 408 l 1,34,-1
 513 667 l 1,32,-1
166 388 m 1,35,-1
 180 298 l 1,36,-1
 332 298 l 1,37,-1
 372 388 l 1,38,-1
 166 388 l 1,35,-1
352 298 m 1,39,-1
 568 298 l 1,40,-1
 555 388 l 1,41,-1
 391 388 l 1,42,-1
 352 298 l 1,39,-1
742 298 m 1,43,-1
 782 388 l 1,44,-1
 576 388 l 1,45,-1
 590 298 l 1,46,-1
 742 298 l 1,43,-1
218 35 m 1,47,-1
 324 278 l 1,48,-1
 182 278 l 1,49,-1
 218 35 l 1,47,-1
628 35 m 1,50,-1
 734 278 l 1,51,-1
 592 278 l 1,52,-1
 628 35 l 1,50,-1
EndSplineSet
EndChar

StartChar: dong
Encoding: 8363 8363 646
Width: 676
Flags: W
LayerCount: 2
Fore
SplineSet
715 599 m 1,0,-1
 628 599 l 1,1,-1
 509 0 l 1,2,-1
 489 0 l 1,3,-1
 515 128 l 1,4,5
 476 66 476 66 414.5 32 c 128,-1,6
 353 -2 353 -2 282 -2 c 0,7,8
 215 -2 215 -2 162.5 26.5 c 128,-1,9
 110 55 110 55 80.5 106.5 c 128,-1,10
 51 158 51 158 51 224 c 0,11,12
 51 305 51 305 88.5 372.5 c 128,-1,13
 126 440 126 440 190 479.5 c 128,-1,14
 254 519 254 519 330 519 c 0,15,16
 418 519 418 519 480 470 c 128,-1,17
 542 421 542 421 557 340 c 1,18,-1
 609 599 l 1,19,-1
 429 599 l 1,20,-1
 433 619 l 1,21,-1
 613 619 l 1,22,-1
 637 742 l 1,23,-1
 657 742 l 1,24,-1
 632 619 l 1,25,-1
 719 619 l 1,26,-1
 715 599 l 1,0,-1
413 54.5 m 128,-1,28
 472 91 472 91 506.5 153.5 c 128,-1,29
 541 216 541 216 541 290 c 0,30,31
 541 351 541 351 514 398.5 c 128,-1,32
 487 446 487 446 438.5 472.5 c 128,-1,33
 390 499 390 499 328 499 c 0,34,35
 258 499 258 499 199 462.5 c 128,-1,36
 140 426 140 426 105.5 363.5 c 128,-1,37
 71 301 71 301 71 227 c 0,38,39
 71 166 71 166 98 118.5 c 128,-1,40
 125 71 125 71 173.5 44.5 c 128,-1,41
 222 18 222 18 284 18 c 0,42,27
 354 18 354 18 413 54.5 c 128,-1,28
77 -89 m 1,43,-1
 81 -69 l 1,44,-1
 486 -69 l 1,45,-1
 482 -89 l 1,46,-1
 77 -89 l 1,43,-1
EndSplineSet
EndChar

StartChar: Euro
Encoding: 8364 8364 647
Width: 809
Flags: W
LayerCount: 2
Fore
SplineSet
382 644.5 m 128,-1,1
 307 609 307 609 253 547 c 128,-1,2
 199 485 199 485 177 408 c 1,3,-1
 523 408 l 1,4,-1
 519 388 l 1,5,-1
 172 388 l 1,6,7
 168 369 168 369 166 349 c 256,8,9
 164 329 164 329 164 319 c 2,10,-1
 165 298 l 1,11,-1
 496 298 l 1,12,-1
 492 278 l 1,13,-1
 167 278 l 1,14,15
 176 205 176 205 218.5 146 c 128,-1,16
 261 87 261 87 327 53 c 128,-1,17
 393 19 393 19 472 19 c 0,18,19
 537 19 537 19 597.5 41.5 c 128,-1,20
 658 64 658 64 708 104 c 1,21,-1
 721 91 l 1,22,23
 667 48 667 48 603 24 c 128,-1,24
 539 0 539 0 472 0 c 0,25,26
 388 0 388 0 317 36.5 c 128,-1,27
 246 73 246 73 201.5 136.5 c 128,-1,28
 157 200 157 200 148 278 c 1,29,-1
 41 278 l 1,30,-1
 45 298 l 1,31,-1
 146 298 l 1,32,-1
 145 320 l 2,33,34
 145 329 145 329 147 351 c 0,35,36
 149 371 149 371 153 388 c 1,37,-1
 63 388 l 1,38,-1
 67 408 l 1,39,-1
 158 408 l 1,40,41
 180 489 180 489 237 555.5 c 128,-1,42
 294 622 294 622 373.5 660.5 c 128,-1,43
 453 699 453 699 539 699 c 0,44,45
 608 699 608 699 667.5 675.5 c 128,-1,46
 727 652 727 652 771 609 c 1,47,-1
 757 596 l 1,48,49
 715 636 715 636 659 658 c 128,-1,50
 603 680 603 680 539 680 c 0,51,0
 457 680 457 680 382 644.5 c 128,-1,1
EndSplineSet
EndChar

StartChar: uni20AD
Encoding: 8365 8365 648
Width: 655
Flags: W
LayerCount: 2
Fore
SplineSet
514 340 m 1,0,-1
 176 340 l 1,1,-1
 573 0 l 1,2,-1
 540 0 l 1,3,-1
 147 340 l 1,4,-1
 81 0 l 1,5,-1
 61 0 l 1,6,-1
 127 340 l 1,7,-1
 37 340 l 1,8,-1
 41 360 l 1,9,-1
 131 360 l 1,10,-1
 197 699 l 1,11,-1
 217 699 l 1,12,-1
 151 361 l 1,13,-1
 625 699 l 1,14,-1
 657 699 l 1,15,-1
 178 360 l 1,16,-1
 518 360 l 1,17,-1
 514 340 l 1,0,-1
EndSplineSet
EndChar

StartChar: uni20B1
Encoding: 8369 8369 649
Width: 742
Flags: W
LayerCount: 2
Fore
SplineSet
694 517 m 1,0,1
 694 467 694 467 681 427 c 1,2,-1
 763 427 l 1,3,-1
 759 407 l 1,4,-1
 674 407 l 1,5,6
 642 328 642 328 564.5 284 c 128,-1,7
 487 240 487 240 375 240 c 2,8,-1
 158 240 l 1,9,-1
 110 0 l 1,10,-1
 90 0 l 1,11,-1
 172 407 l 1,12,-1
 81 407 l 1,13,-1
 85 427 l 1,14,-1
 176 427 l 1,15,-1
 194 517 l 1,16,-1
 102 517 l 1,17,-1
 106 537 l 1,18,-1
 198 537 l 1,19,-1
 230 699 l 1,20,-1
 467 699 l 2,21,22
 570 699 570 699 628 657 c 128,-1,23
 686 615 686 615 693 537 c 1,24,-1
 784 537 l 1,25,-1
 780 517 l 1,26,-1
 694 517 l 1,0,1
218 537 m 1,27,-1
 673 537 l 1,28,29
 664 606 664 606 610 642.5 c 128,-1,30
 556 679 556 679 463 679 c 2,31,-1
 246 679 l 1,32,-1
 218 537 l 1,27,-1
674 517 m 1,33,-1
 214 517 l 1,34,-1
 196 427 l 1,35,-1
 661 427 l 1,36,37
 674 465 674 465 674 512 c 2,38,-1
 674 517 l 1,33,-1
552 298.5 m 128,-1,40
 623 337 623 337 653 407 c 1,41,-1
 192 407 l 1,42,-1
 162 260 l 1,43,-1
 379 260 l 2,44,39
 481 260 481 260 552 298.5 c 128,-1,40
EndSplineSet
EndChar

StartChar: uni20B2
Encoding: 8370 8370 650
Width: 775
Flags: W
LayerCount: 2
Fore
SplineSet
661 343 m 1,0,-1
 681 343 l 1,1,-1
 632 91 l 1,2,3
 577 47 577 47 519 23.5 c 128,-1,4
 461 0 461 0 395 0 c 0,5,6
 383 0 383 0 361 2 c 1,7,-1
 340 -119 l 1,8,-1
 320 -119 l 1,9,-1
 342 4 l 1,10,11
 263 15 263 15 201 59.5 c 128,-1,12
 139 104 139 104 103.5 171.5 c 128,-1,13
 68 239 68 239 68 318 c 0,14,15
 68 329 68 329 70 351 c 0,16,17
 79 445 79 445 135.5 525 c 128,-1,18
 192 605 192 605 279 652 c 128,-1,19
 366 699 366 699 462 699 c 2,20,-1
 464 699 l 1,21,-1
 482 804 l 1,22,-1
 502 804 l 1,23,-1
 484 698 l 1,24,25
 546 694 546 694 600 671 c 128,-1,26
 654 648 654 648 694 609 c 1,27,-1
 680 596 l 1,28,29
 638 636 638 636 582 658 c 128,-1,30
 526 680 526 680 462 680 c 0,31,32
 370 680 370 680 287 635.5 c 128,-1,33
 204 591 204 591 151 515 c 128,-1,34
 98 439 98 439 89 349 c 0,35,36
 87 327 87 327 87 317 c 0,37,38
 87 235 87 235 127.5 166.5 c 128,-1,39
 168 98 168 98 238.5 58.5 c 128,-1,40
 309 19 309 19 395 19 c 0,41,42
 512 19 512 19 614 99 c 1,43,-1
 661 343 l 1,0,-1
EndSplineSet
EndChar

StartChar: uni20B5
Encoding: 8373 8373 651
Width: 732
Flags: W
LayerCount: 2
Fore
SplineSet
287 635.5 m 128,-1,1
 204 591 204 591 151 515 c 128,-1,2
 98 439 98 439 89 349 c 0,3,4
 87 327 87 327 87 317 c 0,5,6
 87 235 87 235 127.5 166.5 c 128,-1,7
 168 98 168 98 238.5 58.5 c 128,-1,8
 309 19 309 19 395 19 c 0,9,10
 460 19 460 19 520.5 41.5 c 128,-1,11
 581 64 581 64 631 104 c 1,12,-1
 644 91 l 1,13,14
 590 48 590 48 526 24 c 128,-1,15
 462 0 462 0 395 0 c 0,16,17
 383 0 383 0 361 2 c 1,18,-1
 340 -119 l 1,19,-1
 320 -119 l 1,20,-1
 342 4 l 1,21,22
 263 15 263 15 201 59.5 c 128,-1,23
 139 104 139 104 103.5 171.5 c 128,-1,24
 68 239 68 239 68 318 c 0,25,26
 68 329 68 329 70 351 c 0,27,28
 79 445 79 445 135.5 525 c 128,-1,29
 192 605 192 605 279 652 c 128,-1,30
 366 699 366 699 462 699 c 2,31,-1
 464 699 l 1,32,-1
 482 804 l 1,33,-1
 502 804 l 1,34,-1
 484 698 l 1,35,36
 546 694 546 694 600 671 c 128,-1,37
 654 648 654 648 694 609 c 1,38,-1
 680 596 l 1,39,40
 638 636 638 636 582 658 c 128,-1,41
 526 680 526 680 462 680 c 0,42,0
 370 680 370 680 287 635.5 c 128,-1,1
EndSplineSet
EndChar

StartChar: uni20B9
Encoding: 8377 8377 652
Width: 700
Flags: W
LayerCount: 2
Fore
SplineSet
714 679 m 1,0,-1
 498 679 l 1,1,2
 551 658 551 658 578 616.5 c 128,-1,3
 605 575 605 575 605 517 c 0,4,5
 605 504 605 504 603 480 c 1,6,-1
 677 480 l 1,7,-1
 673 460 l 1,8,-1
 600 460 l 1,9,10
 587 390 587 390 543.5 339.5 c 128,-1,11
 500 289 500 289 429 263 c 1,12,-1
 583 0 l 1,13,-1
 558 0 l 1,14,-1
 408 256 l 1,15,16
 350 240 350 240 286 240 c 2,17,-1
 51 240 l 1,18,-1
 55 260 l 1,19,-1
 290 260 l 2,20,21
 410 260 410 260 486.5 313.5 c 128,-1,22
 563 367 563 367 580 460 c 1,23,-1
 93 460 l 1,24,-1
 97 480 l 1,25,-1
 583 480 l 1,26,27
 585 500 585 500 585 512 c 0,28,29
 585 592 585 592 530.5 635.5 c 128,-1,30
 476 679 476 679 374 679 c 2,31,-1
 136 679 l 1,32,-1
 140 699 l 1,33,-1
 718 699 l 1,34,-1
 714 679 l 1,0,-1
EndSplineSet
EndChar

StartChar: uni20BA
Encoding: 8378 8378 653
Width: 692
Flags: W
LayerCount: 2
Fore
SplineSet
638 349 m 1,0,1
 605 181 605 181 494.5 90.5 c 128,-1,2
 384 0 384 0 212 0 c 2,3,-1
 107 0 l 1,4,-1
 184 385 l 1,5,-1
 71 355 l 1,6,-1
 75 376 l 1,7,-1
 188 406 l 1,8,-1
 206 495 l 1,9,-1
 94 466 l 1,10,-1
 98 487 l 1,11,-1
 210 517 l 1,12,-1
 247 699 l 1,13,-1
 267 699 l 1,14,-1
 232 522 l 1,15,-1
 620 624 l 1,16,-1
 616 603 l 1,17,-1
 227 501 l 1,18,-1
 209 411 l 1,19,-1
 598 513 l 1,20,-1
 594 492 l 1,21,-1
 205 390 l 1,22,-1
 131 20 l 1,23,-1
 216 20 l 2,24,25
 379 20 379 20 483 105.5 c 128,-1,26
 587 191 587 191 618 349 c 1,27,-1
 638 349 l 1,0,1
EndSplineSet
EndChar

StartChar: uni20BC
Encoding: 8380 8380 654
Width: 854
Flags: W
LayerCount: 2
Fore
SplineSet
699 553 m 128,-1,1
 765 499 765 499 765 399 c 0,2,3
 765 367 765 367 757 325 c 2,4,-1
 692 0 l 1,5,-1
 672 0 l 1,6,-1
 737 325 l 2,7,8
 744 359 744 359 744 393 c 0,9,10
 744 486 744 486 682.5 536.5 c 128,-1,11
 621 587 621 587 501 589 c 1,12,-1
 382 0 l 1,13,-1
 362 0 l 1,14,-1
 481 589 l 1,15,16
 347 586 347 586 257 516 c 128,-1,17
 167 446 167 446 143 325 c 2,18,-1
 78 0 l 1,19,-1
 58 0 l 1,20,-1
 123 325 l 2,21,22
 149 456 149 456 245.5 531 c 128,-1,23
 342 606 342 606 485 609 c 1,24,-1
 503 699 l 1,25,-1
 523 699 l 1,26,-1
 505 609 l 1,27,0
 633 607 633 607 699 553 c 128,-1,1
EndSplineSet
EndChar

StartChar: uni20BD
Encoding: 8381 8381 655
Width: 653
Flags: W
LayerCount: 2
Fore
SplineSet
125 250 m 1,0,-1
 108 166 l 1,1,-1
 378 166 l 1,2,-1
 374 146 l 1,3,-1
 104 146 l 1,4,-1
 75 0 l 1,5,-1
 55 0 l 1,6,-1
 84 146 l 1,7,-1
 -1 146 l 1,8,-1
 3 166 l 1,9,-1
 88 166 l 1,10,-1
 195 699 l 1,11,-1
 432 699 l 2,12,13
 541 699 541 699 600 652 c 128,-1,14
 659 605 659 605 659 522 c 256,15,16
 659 439 659 439 621 377.5 c 128,-1,17
 583 316 583 316 511.5 283 c 128,-1,18
 440 250 440 250 342 250 c 2,19,-1
 125 250 l 1,0,-1
129 270 m 1,20,-1
 346 270 l 2,21,22
 483 270 483 270 561 336 c 128,-1,23
 639 402 639 402 639 517 c 0,24,25
 639 593 639 593 584 636 c 128,-1,26
 529 679 529 679 428 679 c 2,27,-1
 211 679 l 1,28,-1
 129 270 l 1,20,-1
EndSplineSet
EndChar

StartChar: uni2113
Encoding: 8467 8467 656
Width: 469
Flags: W
LayerCount: 2
Fore
SplineSet
404 676.5 m 128,-1,1
 428 654 428 654 428 609 c 0,2,3
 428 531 428 531 354 428 c 128,-1,4
 280 325 280 325 136 217 c 1,5,6
 119 144 119 144 119 108 c 0,7,8
 119 63 119 63 139 40.5 c 128,-1,9
 159 18 159 18 203 18 c 0,10,11
 251 18 251 18 294.5 43 c 128,-1,12
 338 68 338 68 385 118 c 1,13,-1
 398 107 l 1,14,15
 350 54 350 54 302 27 c 128,-1,16
 254 0 254 0 202 0 c 0,17,18
 149 0 149 0 125 27.5 c 128,-1,19
 101 55 101 55 101 108 c 0,20,21
 101 142 101 142 113 200 c 1,22,-1
 45 149 l 1,23,-1
 35 164 l 1,24,-1
 119 227 l 1,25,-1
 197 550 l 2,26,27
 217 623 217 623 256.5 661 c 128,-1,28
 296 699 296 699 344 699 c 0,29,0
 380 699 380 699 404 676.5 c 128,-1,1
267.5 647 m 128,-1,31
 233 613 233 613 216 546 c 2,32,-1
 143 244 l 1,33,34
 272 340 272 340 341 439 c 128,-1,35
 410 538 410 538 410 610 c 0,36,37
 410 646 410 646 391 663.5 c 128,-1,38
 372 681 372 681 343 681 c 0,39,30
 302 681 302 681 267.5 647 c 128,-1,31
EndSplineSet
EndChar

StartChar: uni2116
Encoding: 8470 8470 657
Width: 1333
Flags: W
LayerCount: 2
Fore
SplineSet
1191 667.5 m 128,-1,1
 1230 630 1230 630 1230 571 c 0,2,3
 1230 523 1230 523 1207.5 485 c 128,-1,4
 1185 447 1185 447 1146.5 425 c 128,-1,5
 1108 403 1108 403 1062 403 c 0,6,7
 999 403 999 403 960.5 440 c 128,-1,8
 922 477 922 477 922 537 c 0,9,10
 922 584 922 584 944.5 622.5 c 128,-1,11
 967 661 967 661 1005.5 683 c 128,-1,12
 1044 705 1044 705 1090 705 c 0,13,0
 1152 705 1152 705 1191 667.5 c 128,-1,1
705 20 m 1,14,-1
 841 699 l 1,15,-1
 861 699 l 1,16,-1
 721 0 l 1,17,-1
 691 0 l 1,18,-1
 334 679 l 1,19,-1
 198 0 l 1,20,-1
 178 0 l 1,21,-1
 318 699 l 1,22,-1
 348 699 l 1,23,-1
 705 20 l 1,14,-1
1176 654 m 128,-1,25
 1143 686 1143 686 1090 686 c 0,26,27
 1049 686 1049 686 1015 667 c 128,-1,28
 981 648 981 648 961.5 614 c 128,-1,29
 942 580 942 580 942 537 c 0,30,31
 942 485 942 485 975.5 453 c 128,-1,32
 1009 421 1009 421 1062 421 c 0,33,34
 1125 421 1125 421 1167 463 c 128,-1,35
 1209 505 1209 505 1209 571 c 0,36,24
 1209 622 1209 622 1176 654 c 128,-1,25
935 283 m 1,37,-1
 939 303 l 1,38,-1
 1156 303 l 1,39,-1
 1152 283 l 1,40,-1
 935 283 l 1,37,-1
EndSplineSet
EndChar

StartChar: trademark
Encoding: 8482 8482 658
Width: 882
Flags: W
LayerCount: 2
Fore
SplineSet
408 699 m 1,0,-1
 404 679 l 1,1,-1
 263 679 l 1,2,-1
 172 280 l 1,3,-1
 152 280 l 1,4,-1
 243 679 l 1,5,-1
 102 679 l 1,6,-1
 106 699 l 1,7,-1
 408 699 l 1,0,-1
893 699 m 1,8,-1
 798 280 l 1,9,-1
 778 280 l 1,10,-1
 869 680 l 1,11,-1
 611 326 l 1,12,-1
 601 326 l 1,13,-1
 505 680 l 1,14,-1
 413 280 l 1,15,-1
 393 280 l 1,16,-1
 488 699 l 1,17,-1
 520 699 l 1,18,-1
 613 358 l 1,19,-1
 860 699 l 1,20,-1
 893 699 l 1,8,-1
EndSplineSet
EndChar

StartChar: estimated
Encoding: 8494 8494 660
Width: 816
Flags: W
LayerCount: 2
Fore
SplineSet
210 308 m 2,1,-1
 210 144 l 2,2,3
 210 135 210 135 218 125 c 0,4,5
 257 83 257 83 310.5 59.5 c 128,-1,6
 364 36 364 36 424 36 c 0,7,8
 487 36 487 36 543.5 62.5 c 128,-1,9
 600 89 600 89 639 135 c 1,10,-1
 688 135 l 1,11,12
 642 81 642 81 572 49.5 c 128,-1,13
 502 18 502 18 423 18 c 0,14,15
 332 18 332 18 255 58.5 c 128,-1,16
 178 99 178 99 133 168 c 128,-1,17
 88 237 88 237 88 319 c 256,18,19
 88 401 88 401 133 470.5 c 128,-1,20
 178 540 178 540 255 580.5 c 128,-1,21
 332 621 332 621 423 621 c 256,22,23
 514 621 514 621 591 580.5 c 128,-1,24
 668 540 668 540 713 470.5 c 128,-1,25
 758 401 758 401 758 319 c 2,26,-1
 758 312 l 1,27,-1
 215 312 l 2,28,0
 210 312 210 312 210 308 c 2,1,-1
627 518 m 0,30,31
 587 558 587 558 534.5 580.5 c 128,-1,32
 482 603 482 603 424 603 c 0,33,34
 365 603 365 603 312 579.5 c 128,-1,35
 259 556 259 556 219 515 c 0,36,37
 210 506 210 506 210 495 c 2,38,-1
 210 333 l 2,39,40
 210 328 210 328 215 328 c 2,41,-1
 631 328 l 2,42,43
 636 328 636 328 636 333 c 2,44,-1
 636 498 l 2,45,29
 636 509 636 509 627 518 c 0,30,31
EndSplineSet
EndChar

StartChar: arrowleft
Encoding: 8592 8592 667
Width: 600
Flags: W
LayerCount: 2
Fore
SplineSet
514 280 m 1,0,-1
 510 260 l 1,1,-1
 158 260 l 1,2,-1
 243 93 l 1,3,-1
 216 93 l 1,4,-1
 125 269 l 1,5,-1
 286 448 l 1,6,-1
 313 448 l 1,7,-1
 163 280 l 1,8,-1
 514 280 l 1,0,-1
EndSplineSet
EndChar

StartChar: arrowup
Encoding: 8593 8593 668
Width: 600
Flags: W
LayerCount: 2
Fore
SplineSet
494 341 m 1,0,-1
 489 314 l 1,1,-1
 344 430 l 1,2,-1
 275 79 l 1,3,-1
 253 79 l 1,4,-1
 322 432 l 1,5,-1
 133 314 l 1,6,-1
 138 341 l 1,7,-1
 339 467 l 1,8,-1
 494 341 l 1,0,-1
EndSplineSet
EndChar

StartChar: arrowright
Encoding: 8594 8594 669
Width: 600
Flags: W
LayerCount: 2
Fore
SplineSet
393 448 m 1,0,-1
 484 272 l 1,1,-1
 323 93 l 1,2,-1
 296 93 l 1,3,-1
 446 261 l 1,4,-1
 95 261 l 1,5,-1
 99 281 l 1,6,-1
 451 281 l 1,7,-1
 366 448 l 1,8,-1
 393 448 l 1,0,-1
EndSplineSet
EndChar

StartChar: arrowdown
Encoding: 8595 8595 670
Width: 600
Flags: W
LayerCount: 2
Fore
SplineSet
282 109 m 1,0,-1
 471 227 l 1,1,-1
 466 200 l 1,2,-1
 265 74 l 1,3,-1
 110 200 l 1,4,-1
 115 227 l 1,5,-1
 260 111 l 1,6,-1
 329 462 l 1,7,-1
 351 462 l 1,8,-1
 282 109 l 1,0,-1
EndSplineSet
EndChar

StartChar: arrowboth
Encoding: 8596 8596 671
Width: 600
Flags: W
LayerCount: 2
Fore
SplineSet
459 448 m 1,0,-1
 550 269 l 1,1,-1
 390 93 l 1,2,-1
 363 93 l 1,3,-1
 514 260 l 1,4,-1
 83 260 l 1,5,-1
 169 93 l 1,6,-1
 142 93 l 1,7,-1
 50 269 l 1,8,-1
 211 448 l 1,9,-1
 238 448 l 1,10,-1
 88 280 l 1,11,-1
 516 280 l 1,12,-1
 432 448 l 1,13,-1
 459 448 l 1,0,-1
EndSplineSet
EndChar

StartChar: arrowupdn
Encoding: 8597 8597 672
Width: 653
Flags: W
LayerCount: 2
Fore
SplineSet
526 447 m 1,0,-1
 381 563 l 1,1,-1
 292 109 l 1,2,-1
 481 227 l 1,3,-1
 476 200 l 1,4,-1
 276 74 l 1,5,-1
 120 200 l 1,6,-1
 125 227 l 1,7,-1
 271 110 l 1,8,-1
 359 565 l 1,9,-1
 170 447 l 1,10,-1
 175 474 l 1,11,-1
 376 600 l 1,12,-1
 531 474 l 1,13,-1
 526 447 l 1,0,-1
EndSplineSet
EndChar

StartChar: uni2196
Encoding: 8598 8598 673
Width: 598
Flags: W
LayerCount: 2
Fore
SplineSet
456 434 m 1,0,-1
 248 398 l 1,1,-1
 448 149 l 1,2,-1
 430 134 l 1,3,-1
 229 383 l 1,4,-1
 156 182 l 1,5,-1
 140 201 l 1,6,-1
 217 415 l 1,7,-1
 441 453 l 1,8,-1
 456 434 l 1,0,-1
EndSplineSet
EndChar

StartChar: uni2197
Encoding: 8599 8599 674
Width: 614
Flags: W
LayerCount: 2
Fore
SplineSet
281 447 m 1,0,-1
 488 412 l 1,1,-1
 484 195 l 1,2,-1
 461 176 l 1,3,-1
 464 377 l 1,4,-1
 167 129 l 1,5,-1
 155 144 l 1,6,-1
 453 394 l 1,7,-1
 258 428 l 1,8,-1
 281 447 l 1,0,-1
EndSplineSet
EndChar

StartChar: uni2198
Encoding: 8600 8600 675
Width: 598
Flags: W
LayerCount: 2
Fore
SplineSet
456 382 m 1,0,-1
 472 363 l 1,1,-1
 395 149 l 1,2,-1
 171 111 l 1,3,-1
 156 130 l 1,4,-1
 364 166 l 1,5,-1
 164 415 l 1,6,-1
 182 430 l 1,7,-1
 383 181 l 1,8,-1
 456 382 l 1,0,-1
EndSplineSet
EndChar

StartChar: uni2199
Encoding: 8601 8601 676
Width: 614
Flags: W
LayerCount: 2
Fore
SplineSet
473 420 m 1,0,-1
 174 170 l 1,1,-1
 369 136 l 1,2,-1
 347 117 l 1,3,-1
 140 153 l 1,4,-1
 144 369 l 1,5,-1
 167 388 l 1,6,-1
 164 187 l 1,7,-1
 461 435 l 1,8,-1
 473 420 l 1,0,-1
EndSplineSet
EndChar

StartChar: partialdiff
Encoding: 8706 8706 677
Width: 591
Flags: W
LayerCount: 2
Fore
SplineSet
104 50.5 m 128,-1,1
 51 101 51 101 51 189 c 0,2,3
 51 264 51 264 81 320.5 c 128,-1,4
 111 377 111 377 165.5 407.5 c 128,-1,5
 220 438 220 438 292 438 c 0,6,7
 386 438 386 438 443.5 388 c 128,-1,8
 501 338 501 338 508 249 c 1,9,10
 524 323 524 323 524 401 c 0,11,12
 524 534 524 534 468 606.5 c 128,-1,13
 412 679 412 679 310 679 c 0,14,15
 270 679 270 679 223.5 665 c 128,-1,16
 177 651 177 651 135 627 c 1,17,-1
 127 645 l 1,18,19
 174 671 174 671 223.5 685 c 128,-1,20
 273 699 273 699 314 699 c 0,21,22
 422 699 422 699 483.5 619.5 c 128,-1,23
 545 540 545 540 545 400 c 0,24,25
 545 278 545 278 509 188 c 128,-1,26
 473 98 473 98 406.5 49 c 128,-1,27
 340 0 340 0 250 0 c 0,28,0
 157 0 157 0 104 50.5 c 128,-1,1
372.5 49.5 m 128,-1,30
 426 79 426 79 457.5 129 c 128,-1,31
 489 179 489 179 489 237 c 0,32,33
 489 289 489 289 463.5 330.5 c 128,-1,34
 438 372 438 372 393 395 c 128,-1,35
 348 418 348 418 290 418 c 0,36,37
 225 418 225 418 175.5 390.5 c 128,-1,38
 126 363 126 363 99 313 c 128,-1,39
 72 263 72 263 72 197 c 0,40,41
 72 115 72 115 122 67.5 c 128,-1,42
 172 20 172 20 257 20 c 0,43,29
 319 20 319 20 372.5 49.5 c 128,-1,30
EndSplineSet
EndChar

StartChar: emptyset
Encoding: 8709 8709 678
Width: 521
Flags: W
LayerCount: 2
Fore
SplineSet
433 443 m 1,0,1
 467 396 467 396 467 338 c 0,2,3
 467 283 467 283 438 234 c 128,-1,4
 409 185 409 185 360 156 c 128,-1,5
 311 127 311 127 256 127 c 0,6,7
 218 127 218 127 184.5 141 c 128,-1,8
 151 155 151 155 127 181 c 1,9,-1
 37 103 l 1,10,-1
 24 117 l 1,11,-1
 115 195 l 1,12,13
 79 242 79 242 79 303 c 0,14,15
 79 358 79 358 108 406.5 c 128,-1,16
 137 455 137 455 185.5 484 c 128,-1,17
 234 513 234 513 290 513 c 0,18,19
 328 513 328 513 362 498.5 c 128,-1,20
 396 484 396 484 420 458 c 1,21,-1
 508 533 l 1,22,-1
 521 519 l 1,23,-1
 433 443 l 1,0,1
131 209 m 1,25,-1
 404 444 l 1,26,27
 383 467 383 467 353 480 c 128,-1,28
 323 493 323 493 288 493 c 0,29,30
 237 493 237 493 193.5 466.5 c 128,-1,31
 150 440 150 440 124.5 396.5 c 128,-1,32
 99 353 99 353 99 305 c 0,33,24
 99 251 99 251 131 209 c 1,25,-1
417 429 m 1,35,-1
 143 194 l 1,36,37
 165 172 165 172 194.5 159.5 c 128,-1,38
 224 147 224 147 258 147 c 0,39,40
 309 147 309 147 352.5 173.5 c 128,-1,41
 396 200 396 200 421.5 243.5 c 128,-1,42
 447 287 447 287 447 335 c 0,43,34
 447 388 447 388 417 429 c 1,35,-1
EndSplineSet
EndChar

StartChar: uni2206
Encoding: 8710 8710 679
Width: 678
Flags: W
LayerCount: 2
Fore
SplineSet
419 699 m 1,0,-1
 619 16 l 1,1,-1
 616 0 l 1,2,-1
 -41 0 l 1,3,-1
 -38 16 l 1,4,-1
 397 699 l 1,5,-1
 419 699 l 1,0,-1
405 675 m 1,6,-1
 -14 20 l 1,7,-1
 596 20 l 1,8,-1
 405 675 l 1,6,-1
EndSplineSet
EndChar

StartChar: product
Encoding: 8719 8719 680
Width: 764
Flags: W
LayerCount: 2
Fore
SplineSet
733 742 m 1,0,-1
 545 -194 l 1,1,-1
 525 -194 l 1,2,-1
 709 722 l 1,3,-1
 242 722 l 1,4,-1
 58 -194 l 1,5,-1
 38 -194 l 1,6,-1
 226 742 l 1,7,-1
 733 742 l 1,0,-1
EndSplineSet
EndChar

StartChar: summation
Encoding: 8721 8721 681
Width: 603
Flags: W
LayerCount: 2
Fore
SplineSet
690 742 m 1,0,-1
 686 722 l 1,1,-1
 159 722 l 1,2,-1
 422 313 l 1,3,-1
 -12 -118 l 1,4,-1
 528 -118 l 1,5,-1
 524 -138 l 1,6,-1
 -39 -138 l 1,7,-1
 -34 -114 l 1,8,-1
 396 313 l 1,9,-1
 135 718 l 1,10,-1
 140 742 l 1,11,-1
 690 742 l 1,0,-1
EndSplineSet
EndChar

StartChar: minus
Encoding: 8722 8722 682
Width: 480
Flags: W
LayerCount: 2
Fore
SplineSet
454 330 m 1,0,-1
 450 310 l 1,1,-1
 50 310 l 1,2,-1
 54 330 l 1,3,-1
 454 330 l 1,0,-1
EndSplineSet
EndChar

StartChar: uni2219
Encoding: 8729 8729 684
Width: 197
Flags: W
LayerCount: 2
Fore
SplineSet
132 300 m 128,-1,1
 141 291 141 291 141 277 c 0,2,3
 141 260 141 260 126 245.5 c 128,-1,4
 111 231 111 231 93 231 c 0,5,6
 79 231 79 231 70 240 c 128,-1,7
 61 249 61 249 61 263 c 0,8,9
 61 280 61 280 76 294.5 c 128,-1,10
 91 309 91 309 109 309 c 0,11,0
 123 309 123 309 132 300 c 128,-1,1
EndSplineSet
EndChar

StartChar: radical
Encoding: 8730 8730 685
Width: 657
Flags: W
LayerCount: 2
Fore
SplineSet
49 380 m 1,0,-1
 182 380 l 1,1,-1
 253 -120 l 1,2,-1
 709 757 l 1,3,-1
 731 757 l 1,4,-1
 259 -146 l 1,5,-1
 237 -146 l 1,6,-1
 164 361 l 1,7,-1
 45 361 l 1,8,-1
 49 380 l 1,0,-1
EndSplineSet
EndChar

StartChar: infinity
Encoding: 8734 8734 686
Width: 912
Flags: W
LayerCount: 2
Fore
SplineSet
825.5 439 m 128,-1,1
 870 395 870 395 870 327 c 0,2,3
 870 274 870 274 844 229 c 128,-1,4
 818 184 818 184 773.5 157.5 c 128,-1,5
 729 131 729 131 676 131 c 0,6,7
 616 131 616 131 576.5 152 c 128,-1,8
 537 173 537 173 513 205 c 128,-1,9
 489 237 489 237 465 286 c 1,10,11
 430 237 430 237 399.5 204.5 c 128,-1,12
 369 172 369 172 325 151 c 128,-1,13
 281 130 281 130 222 130 c 0,14,15
 152 130 152 130 107 174.5 c 128,-1,16
 62 219 62 219 62 288 c 0,17,18
 62 340 62 340 89 384.5 c 128,-1,19
 116 429 116 429 161 455.5 c 128,-1,20
 206 482 206 482 258 482 c 0,21,22
 318 482 318 482 357 461 c 128,-1,23
 396 440 396 440 420 408 c 128,-1,24
 444 376 444 376 468 327 c 1,25,26
 503 376 503 376 533.5 408.5 c 128,-1,27
 564 441 564 441 608 462 c 128,-1,28
 652 483 652 483 711 483 c 0,29,0
 781 483 781 483 825.5 439 c 128,-1,1
764 174.5 m 128,-1,31
 804 198 804 198 827 238 c 128,-1,32
 850 278 850 278 850 327 c 0,33,34
 850 386 850 386 811 424.5 c 128,-1,35
 772 463 772 463 711 463 c 0,36,37
 655 463 655 463 613.5 442 c 128,-1,38
 572 421 572 421 543.5 389.5 c 128,-1,39
 515 358 515 358 479 306 c 1,40,41
 504 255 504 255 526 224 c 128,-1,42
 548 193 548 193 584.5 172 c 128,-1,43
 621 151 621 151 676 151 c 0,44,30
 724 151 724 151 764 174.5 c 128,-1,31
319.5 171 m 128,-1,46
 361 192 361 192 389.5 223.5 c 128,-1,47
 418 255 418 255 454 307 c 1,48,49
 429 358 429 358 407 389 c 128,-1,50
 385 420 385 420 348.5 441 c 128,-1,51
 312 462 312 462 256 462 c 0,52,53
 208 462 208 462 168 438.5 c 128,-1,54
 128 415 128 415 105 375 c 128,-1,55
 82 335 82 335 82 287 c 0,56,57
 82 227 82 227 121 188.5 c 128,-1,58
 160 150 160 150 222 150 c 0,59,45
 278 150 278 150 319.5 171 c 128,-1,46
EndSplineSet
EndChar

StartChar: integral
Encoding: 8747 8747 687
Width: 179
Flags: W
LayerCount: 2
Fore
SplineSet
229 804 m 0,1,2
 191 804 191 804 171 770.5 c 128,-1,3
 151 737 151 737 143 658 c 0,4,5
 131 536 131 536 120 364 c 0,6,7
 108 171 108 171 96 55 c 0,8,9
 86 -34 86 -34 62 -71.5 c 128,-1,10
 38 -109 38 -109 -9 -109 c 0,11,12
 -34 -109 -34 -109 -61 -96 c 1,13,-1
 -50 -78 l 1,14,15
 -33 -89 -33 -89 -9 -89 c 0,16,17
 29 -89 29 -89 48.5 -56 c 128,-1,18
 68 -23 68 -23 76 57 c 0,19,20
 88 174 88 174 100 369 c 0,21,22
 119 619 119 619 123 660 c 0,23,24
 133 748 133 748 157.5 786 c 128,-1,25
 182 824 182 824 229 824 c 0,26,27
 252 824 252 824 279 811 c 1,28,-1
 268 793 l 1,29,0
 251 804 251 804 229 804 c 0,1,2
EndSplineSet
EndChar

StartChar: approxequal
Encoding: 8776 8776 688
Width: 481
Flags: W
LayerCount: 2
Fore
SplineSet
232.5 468 m 128,-1,1
 252 459 252 459 278 441 c 0,2,3
 303 424 303 424 320 415.5 c 128,-1,4
 337 407 337 407 354 407 c 0,5,6
 379 407 379 407 397 423 c 128,-1,7
 415 439 415 439 420 467 c 1,8,-1
 440 467 l 1,9,10
 432 429 432 429 409.5 408 c 128,-1,11
 387 387 387 387 354 387 c 0,12,13
 331 387 331 387 310.5 397 c 128,-1,14
 290 407 290 407 265 425 c 0,15,16
 239 442 239 442 224.5 449.5 c 128,-1,17
 210 457 210 457 193 457 c 0,18,19
 169 457 169 457 153 441.5 c 128,-1,20
 137 426 137 426 131 397 c 1,21,-1
 111 397 l 1,22,23
 119 435 119 435 140 456 c 128,-1,24
 161 477 161 477 193 477 c 0,25,0
 213 477 213 477 232.5 468 c 128,-1,1
192.5 267 m 128,-1,27
 212 258 212 258 238 240 c 0,28,29
 263 223 263 223 280 214.5 c 128,-1,30
 297 206 297 206 314 206 c 0,31,32
 338 206 338 206 356 222 c 128,-1,33
 374 238 374 238 380 266 c 1,34,-1
 400 266 l 1,35,36
 392 228 392 228 369.5 207 c 128,-1,37
 347 186 347 186 314 186 c 0,38,39
 290 186 290 186 270 196 c 128,-1,40
 250 206 250 206 225 224 c 0,41,42
 199 241 199 241 184.5 248.5 c 128,-1,43
 170 256 170 256 153 256 c 0,44,45
 129 256 129 256 113 240.5 c 128,-1,46
 97 225 97 225 91 196 c 1,47,-1
 71 196 l 1,48,49
 79 234 79 234 100 255 c 128,-1,50
 121 276 121 276 153 276 c 0,51,26
 173 276 173 276 192.5 267 c 128,-1,27
EndSplineSet
EndChar

StartChar: notequal
Encoding: 8800 8800 689
Width: 480
Flags: W
LayerCount: 2
Fore
SplineSet
470 410 m 1,0,-1
 293 410 l 1,1,-1
 217 230 l 1,2,-1
 434 230 l 1,3,-1
 430 210 l 1,4,-1
 209 210 l 1,5,-1
 141 49 l 1,6,-1
 122 49 l 1,7,-1
 190 210 l 1,8,-1
 30 210 l 1,9,-1
 34 230 l 1,10,-1
 198 230 l 1,11,-1
 274 410 l 1,12,-1
 70 410 l 1,13,-1
 74 430 l 1,14,-1
 282 430 l 1,15,-1
 348 586 l 1,16,-1
 367 586 l 1,17,-1
 301 430 l 1,18,-1
 474 430 l 1,19,-1
 470 410 l 1,0,-1
EndSplineSet
EndChar

StartChar: filledbox
Encoding: 9632 9632 692
Width: 600
Flags: W
LayerCount: 2
Fore
SplineSet
106 459 m 1,0,-1
 494 459 l 1,1,-1
 494 71 l 1,2,-1
 106 71 l 1,3,-1
 106 459 l 1,0,-1
EndSplineSet
EndChar

StartChar: uni25A1
Encoding: 9633 9633 693
Width: 600
Flags: W
LayerCount: 2
Fore
SplineSet
144 459 m 1,0,-1
 532 459 l 1,1,-1
 456 71 l 1,2,-1
 68 71 l 1,3,-1
 144 459 l 1,0,-1
160 439 m 1,4,-1
 92 91 l 1,5,-1
 440 91 l 1,6,-1
 508 439 l 1,7,-1
 160 439 l 1,4,-1
EndSplineSet
EndChar

StartChar: triagup
Encoding: 9650 9650 694
Width: 600
Flags: W
LayerCount: 2
Fore
SplineSet
341 478 m 1,0,-1
 472 52 l 1,1,-1
 46 52 l 1,2,-1
 341 478 l 1,0,-1
EndSplineSet
EndChar

StartChar: uni25B3
Encoding: 9651 9651 695
Width: 600
Flags: W
LayerCount: 2
Fore
SplineSet
341 478 m 1,0,-1
 472 52 l 1,1,-1
 46 52 l 1,2,-1
 341 478 l 1,0,-1
333 433 m 1,3,-1
 81 72 l 1,4,-1
 443 72 l 1,5,-1
 333 433 l 1,3,-1
EndSplineSet
EndChar

StartChar: uni25B6
Encoding: 9654 9654 696
Width: 600
Flags: W
LayerCount: 2
Fore
SplineSet
541 266 m 1,0,-1
 74 53 l 1,1,-1
 156 479 l 1,2,-1
 541 266 l 1,0,-1
EndSplineSet
EndChar

StartChar: uni25B7
Encoding: 9655 9655 697
Width: 600
Flags: W
LayerCount: 2
Fore
SplineSet
541 266 m 1,0,-1
 74 53 l 1,1,-1
 156 479 l 1,2,-1
 541 266 l 1,0,-1
496 266 m 1,3,-1
 170 447 l 1,4,-1
 100 85 l 1,5,-1
 496 266 l 1,3,-1
EndSplineSet
EndChar

StartChar: triagdn
Encoding: 9660 9660 698
Width: 600
Flags: W
LayerCount: 2
Fore
SplineSet
259 52 m 1,0,-1
 128 478 l 1,1,-1
 554 478 l 1,2,-1
 259 52 l 1,0,-1
EndSplineSet
EndChar

StartChar: uni25BD
Encoding: 9661 9661 699
Width: 600
Flags: W
LayerCount: 2
Fore
SplineSet
259 52 m 1,0,-1
 128 478 l 1,1,-1
 554 478 l 1,2,-1
 259 52 l 1,0,-1
267 97 m 1,3,-1
 519 458 l 1,4,-1
 157 458 l 1,5,-1
 267 97 l 1,3,-1
EndSplineSet
EndChar

StartChar: uni25C0
Encoding: 9664 9664 700
Width: 602
Flags: W
LayerCount: 2
Fore
SplineSet
58 265 m 1,0,-1
 525 478 l 1,1,-1
 443 52 l 1,2,-1
 58 265 l 1,0,-1
EndSplineSet
EndChar

StartChar: uni25C1
Encoding: 9665 9665 701
Width: 600
Flags: W
LayerCount: 2
Fore
SplineSet
58 265 m 1,0,-1
 525 478 l 1,1,-1
 443 52 l 1,2,-1
 58 265 l 1,0,-1
103 265 m 1,3,-1
 429 84 l 1,4,-1
 499 446 l 1,5,-1
 103 265 l 1,3,-1
EndSplineSet
EndChar

StartChar: uni25C6
Encoding: 9670 9670 702
Width: 600
Flags: W
LayerCount: 2
Fore
SplineSet
353 540 m 1,0,-1
 574 265 l 1,1,-1
 246 -9 l 1,2,-1
 25 265 l 1,3,-1
 353 540 l 1,0,-1
EndSplineSet
EndChar

StartChar: uni25C7
Encoding: 9671 9671 703
Width: 600
Flags: W
LayerCount: 2
Fore
SplineSet
353 540 m 1,0,-1
 574 265 l 1,1,-1
 246 -9 l 1,2,-1
 25 265 l 1,3,-1
 353 540 l 1,0,-1
347 511 m 1,4,-1
 53 265 l 1,5,-1
 252 19 l 1,6,-1
 546 265 l 1,7,-1
 347 511 l 1,4,-1
EndSplineSet
EndChar

StartChar: lozenge
Encoding: 9674 9674 704
Width: 499
Flags: W
LayerCount: 2
Fore
SplineSet
321 623 m 1,0,-1
 461 330 l 1,1,-1
 205 34 l 1,2,-1
 66 330 l 1,3,-1
 321 623 l 1,0,-1
317 589 m 1,4,-1
 90 330 l 1,5,-1
 210 70 l 1,6,-1
 437 330 l 1,7,-1
 317 589 l 1,4,-1
EndSplineSet
EndChar

StartChar: uniA78B
Encoding: 42891 42891 705
Width: 211
Flags: W
LayerCount: 2
Fore
SplineSet
173 699 m 1,0,-1
 193 699 l 1,1,-1
 114 298 l 1,2,-1
 94 298 l 1,3,-1
 173 699 l 1,0,-1
EndSplineSet
EndChar

StartChar: uniA78C
Encoding: 42892 42892 706
Width: 211
Flags: W
LayerCount: 2
Fore
SplineSet
160 633 m 1,0,-1
 180 633 l 1,1,-1
 114 298 l 1,2,-1
 94 298 l 1,3,-1
 160 633 l 1,0,-1
EndSplineSet
Substitution2: "<3,3> Small Caps in Latin lookup 11 subtable" uniA78C.sc
EndChar

StartChar: fl
Encoding: 64258 64258 708
Width: 547
Flags: W
LayerCount: 2
Fore
SplineSet
434 695 m 1,0,1
 413 709 413 709 394.5 715.5 c 128,-1,2
 376 722 376 722 356 722 c 0,3,4
 303 722 303 722 258.5 681 c 128,-1,5
 214 640 214 640 202 579 c 2,6,-1
 188 507 l 1,7,-1
 355 507 l 1,8,-1
 351 487 l 1,9,-1
 184 487 l 1,10,-1
 86 0 l 1,11,-1
 66 0 l 1,12,-1
 163 487 l 1,13,-1
 98 487 l 1,14,-1
 102 507 l 1,15,-1
 167 507 l 1,16,-1
 182 581 l 2,17,18
 191 626 191 626 217 662.5 c 128,-1,19
 243 699 243 699 280 720.5 c 128,-1,20
 317 742 317 742 356 742 c 0,21,22
 380 742 380 742 403.5 734 c 128,-1,23
 427 726 427 726 440 716 c 1,24,-1
 434 695 l 1,0,1
508 742 m 1,25,-1
 528 742 l 1,26,-1
 380 0 l 1,27,-1
 360 0 l 1,28,-1
 508 742 l 1,25,-1
EndSplineSet
Ligature2: "<1,2> Common Ligatures in Latin lookup 13 subtable" f l
EndChar

StartChar: Adieresis.alt
Encoding: 65540 -1 711
Width: 686
Flags: W
LayerCount: 2
Fore
SplineSet
243 655.5 m 128,-1,1
 237 662 237 662 237 671 c 0,2,3
 237 683 237 683 247 692 c 128,-1,4
 257 701 257 701 269 701 c 0,5,6
 278 701 278 701 284 694.5 c 128,-1,7
 290 688 290 688 290 679 c 0,8,9
 290 667 290 667 280 658 c 128,-1,10
 270 649 270 649 258 649 c 0,11,0
 249 649 249 649 243 655.5 c 128,-1,1
516 655.5 m 128,-1,13
 510 662 510 662 510 671 c 0,14,15
 510 683 510 683 520 692 c 128,-1,16
 530 701 530 701 542 701 c 0,17,18
 551 701 551 701 557 694.5 c 128,-1,19
 563 688 563 688 563 679 c 0,20,21
 563 667 563 667 553 658 c 128,-1,22
 543 649 543 649 531 649 c 0,23,12
 522 649 522 649 516 655.5 c 128,-1,13
601 0 m 1,24,-1
 538 213 l 1,25,-1
 114 213 l 1,26,-1
 -18 0 l 1,27,-1
 -42 0 l 1,28,-1
 394 699 l 1,29,-1
 416 699 l 1,30,-1
 624 0 l 1,31,-1
 601 0 l 1,24,-1
126 233 m 1,32,-1
 532 233 l 1,33,-1
 401 676 l 1,34,-1
 126 233 l 1,32,-1
EndSplineSet
EndChar

StartChar: Udieresis.alt
Encoding: 65541 -1 712
Width: 774
Flags: W
LayerCount: 2
Fore
SplineSet
395 694.5 m 128,-1,1
 401 688 401 688 401 679 c 0,2,3
 401 667 401 667 391 658 c 128,-1,4
 381 649 381 649 369 649 c 0,5,6
 360 649 360 649 354 655.5 c 128,-1,7
 348 662 348 662 348 671 c 0,8,9
 348 683 348 683 358 692 c 128,-1,10
 368 701 368 701 380 701 c 0,11,0
 389 701 389 701 395 694.5 c 128,-1,1
585 694.5 m 128,-1,13
 591 688 591 688 591 679 c 0,14,15
 591 667 591 667 581 658 c 128,-1,16
 571 649 571 649 559 649 c 0,17,18
 550 649 550 649 544 655.5 c 128,-1,19
 538 662 538 662 538 671 c 0,20,21
 538 683 538 683 548 692 c 128,-1,22
 558 701 558 701 570 701 c 0,23,12
 579 701 579 701 585 694.5 c 128,-1,13
669 284 m 2,24,25
 642 147 642 147 559 73.5 c 128,-1,26
 476 0 476 0 345 0 c 0,27,28
 232 0 232 0 169.5 54.5 c 128,-1,29
 107 109 107 109 107 210 c 0,30,31
 107 242 107 242 115 284 c 2,32,-1
 198 699 l 1,33,-1
 218 699 l 1,34,-1
 135 284 l 2,35,36
 128 249 128 249 128 215 c 0,37,38
 128 122 128 122 186 71 c 128,-1,39
 244 20 244 20 349 20 c 0,40,41
 470 20 470 20 546.5 88.5 c 128,-1,42
 623 157 623 157 649 284 c 2,43,-1
 732 699 l 1,44,-1
 752 699 l 1,45,-1
 669 284 l 2,24,25
EndSplineSet
EndChar

StartChar: Udieresis.ss01.alt
Encoding: 65542 -1 713
Width: 792
Flags: W
LayerCount: 2
Fore
SplineSet
395 694.5 m 128,-1,1
 401 688 401 688 401 679 c 0,2,3
 401 667 401 667 391 658 c 128,-1,4
 381 649 381 649 369 649 c 0,5,6
 360 649 360 649 354 655.5 c 128,-1,7
 348 662 348 662 348 671 c 0,8,9
 348 683 348 683 358 692 c 128,-1,10
 368 701 368 701 380 701 c 0,11,0
 389 701 389 701 395 694.5 c 128,-1,1
585 694.5 m 128,-1,13
 591 688 591 688 591 679 c 0,14,15
 591 667 591 667 581 658 c 128,-1,16
 571 649 571 649 559 649 c 0,17,18
 550 649 550 649 544 655.5 c 128,-1,19
 538 662 538 662 538 671 c 0,20,21
 538 683 538 683 548 692 c 128,-1,22
 558 701 558 701 570 701 c 0,23,12
 579 701 579 701 585 694.5 c 128,-1,13
158.5 54.5 m 128,-1,25
 103 109 103 109 103 197 c 0,26,27
 103 224 103 224 109 254 c 2,28,-1
 198 699 l 1,29,-1
 218 699 l 1,30,-1
 129 254 l 2,31,32
 124 232 124 232 124 202 c 0,33,34
 124 120 124 120 175 70 c 128,-1,35
 226 20 226 20 312 20 c 0,36,37
 389 20 389 20 457.5 50.5 c 128,-1,38
 526 81 526 81 575 133.5 c 128,-1,39
 624 186 624 186 643 252 c 1,40,-1
 732 699 l 1,41,-1
 752 699 l 1,42,-1
 612 0 l 1,43,-1
 592 0 l 1,44,-1
 627 175 l 1,45,46
 580 96 580 96 494 48 c 128,-1,47
 408 0 408 0 308 0 c 0,48,24
 214 0 214 0 158.5 54.5 c 128,-1,25
EndSplineSet
EndChar

StartChar: A.ss01
Encoding: 65543 -1 714
Width: 776
Flags: W
LayerCount: 2
Fore
SplineSet
643.5 644.5 m 128,-1,1
 703 590 703 590 703 491 c 0,2,3
 703 458 703 458 695 415 c 2,4,-1
 614 0 l 1,5,-1
 594 0 l 1,6,-1
 638 225 l 1,7,-1
 124 225 l 1,8,-1
 80 0 l 1,9,-1
 60 0 l 1,10,-1
 141 415 l 2,11,12
 167 549 167 549 254.5 624 c 128,-1,13
 342 699 342 699 473 699 c 0,14,0
 584 699 584 699 643.5 644.5 c 128,-1,1
682 485 m 0,16,17
 682 578 682 578 627 628.5 c 128,-1,18
 572 679 572 679 469 679 c 0,19,20
 348 679 348 679 266.5 609.5 c 128,-1,21
 185 540 185 540 161 415 c 2,22,-1
 128 245 l 1,23,-1
 642 245 l 1,24,-1
 675 415 l 2,25,15
 682 450 682 450 682 485 c 0,16,17
EndSplineSet
EndChar

StartChar: Aogonek.ss01
Encoding: 65564 -1 735
Width: 776
Flags: W
LayerCount: 2
Fore
SplineSet
643.5 644.5 m 128,-1,1
 703 590 703 590 703 491 c 0,2,3
 703 458 703 458 695 415 c 2,4,-1
 614 0 l 1,5,6
 532 -47 532 -47 497.5 -80 c 128,-1,7
 463 -113 463 -113 463 -151 c 0,8,9
 463 -171 463 -171 475 -182 c 128,-1,10
 487 -193 487 -193 506 -193 c 0,11,12
 535 -193 535 -193 570 -173 c 1,13,-1
 576 -189 l 1,14,15
 537 -213 537 -213 501 -213 c 0,16,17
 473 -213 473 -213 457.5 -197.5 c 128,-1,18
 442 -182 442 -182 442 -154 c 0,19,20
 442 -108 442 -108 478 -72.5 c 128,-1,21
 514 -37 514 -37 596 9 c 1,22,-1
 638 225 l 1,23,-1
 124 225 l 1,24,-1
 80 0 l 1,25,-1
 60 0 l 1,26,-1
 141 415 l 2,27,28
 167 549 167 549 254.5 624 c 128,-1,29
 342 699 342 699 473 699 c 0,30,0
 584 699 584 699 643.5 644.5 c 128,-1,1
682 485 m 0,32,33
 682 578 682 578 627 628.5 c 128,-1,34
 572 679 572 679 469 679 c 0,35,36
 348 679 348 679 266.5 609.5 c 128,-1,37
 185 540 185 540 161 415 c 2,38,-1
 128 245 l 1,39,-1
 642 245 l 1,40,-1
 675 415 l 2,41,31
 682 450 682 450 682 485 c 0,32,33
EndSplineSet
EndChar

StartChar: E.ss01
Encoding: 65570 -1 741
Width: 539
Flags: W
LayerCount: 2
Fore
SplineSet
492 693 m 128,-1,1
 537 683 537 683 564 668 c 1,2,-1
 551 650 l 1,3,4
 526 664 526 664 483.5 673.5 c 128,-1,5
 441 683 441 683 401 683 c 0,6,7
 336 683 336 683 281.5 660 c 128,-1,8
 227 637 227 637 195 597.5 c 128,-1,9
 163 558 163 558 163 510 c 0,10,11
 163 453 163 453 212.5 417 c 128,-1,12
 262 381 262 381 342 381 c 2,13,-1
 451 381 l 1,14,-1
 447 361 l 1,15,-1
 338 361 l 2,16,17
 264 361 264 361 201 335 c 128,-1,18
 138 309 138 309 101 264 c 128,-1,19
 64 219 64 219 64 164 c 0,20,21
 64 122 64 122 89.5 88.5 c 128,-1,22
 115 55 115 55 160.5 36 c 128,-1,23
 206 17 206 17 266 17 c 0,24,25
 311 17 311 17 367.5 31.5 c 128,-1,26
 424 46 424 46 466 68 c 1,27,-1
 472 49 l 1,28,29
 432 27 432 27 372 12 c 128,-1,30
 312 -3 312 -3 262 -3 c 0,31,32
 198 -3 198 -3 148.5 18.5 c 128,-1,33
 99 40 99 40 71.5 77 c 128,-1,34
 44 114 44 114 44 161 c 0,35,36
 44 213 44 213 75 259 c 128,-1,37
 106 305 106 305 158 335 c 128,-1,38
 210 365 210 365 272 371 c 1,39,40
 214 379 214 379 178.5 417.5 c 128,-1,41
 143 456 143 456 143 508 c 0,42,43
 143 562 143 562 178.5 606.5 c 128,-1,44
 214 651 214 651 274 677 c 128,-1,45
 334 703 334 703 405 703 c 0,46,0
 447 703 447 703 492 693 c 128,-1,1
EndSplineSet
EndChar

StartChar: uni1E1C.ss01
Encoding: 65574 -1 745
Width: 539
Flags: W
LayerCount: 2
Fore
SplineSet
306.5 795 m 128,-1,1
 282 819 282 819 282 857 c 0,2,3
 282 864 282 864 284 876 c 1,4,-1
 304 876 l 1,5,6
 303 871 303 871 303 862 c 0,7,8
 303 831 303 831 322 811 c 128,-1,9
 341 791 341 791 372 791 c 0,10,11
 407 791 407 791 436.5 815.5 c 128,-1,12
 466 840 466 840 474 876 c 1,13,-1
 494 876 l 1,14,15
 484 831 484 831 448 801 c 128,-1,16
 412 771 412 771 369 771 c 0,17,0
 331 771 331 771 306.5 795 c 128,-1,1
281.5 660 m 128,-1,19
 227 637 227 637 195 597.5 c 128,-1,20
 163 558 163 558 163 510 c 0,21,22
 163 453 163 453 212.5 417 c 128,-1,23
 262 381 262 381 342 381 c 2,24,-1
 451 381 l 1,25,-1
 447 361 l 1,26,-1
 338 361 l 2,27,28
 264 361 264 361 201 335 c 128,-1,29
 138 309 138 309 101 264 c 128,-1,30
 64 219 64 219 64 164 c 0,31,32
 64 122 64 122 89.5 88.5 c 128,-1,33
 115 55 115 55 160.5 36 c 128,-1,34
 206 17 206 17 266 17 c 0,35,36
 311 17 311 17 367.5 31.5 c 128,-1,37
 424 46 424 46 466 68 c 1,38,-1
 472 49 l 1,39,40
 432 27 432 27 372 12 c 128,-1,41
 312 -3 312 -3 262 -3 c 2,42,-1
 258 -3 l 1,43,-1
 233 -54 l 1,44,45
 266 -55 266 -55 283.5 -73 c 128,-1,46
 301 -91 301 -91 301 -117 c 0,47,48
 301 -140 301 -140 287.5 -162.5 c 128,-1,49
 274 -185 274 -185 249.5 -199 c 128,-1,50
 225 -213 225 -213 194 -213 c 0,51,52
 175 -213 175 -213 155 -207 c 128,-1,53
 135 -201 135 -201 125 -191 c 1,54,-1
 138 -171 l 1,55,56
 148 -180 148 -180 165 -186 c 128,-1,57
 182 -192 182 -192 198 -192 c 0,58,59
 234 -192 234 -192 256.5 -170 c 128,-1,60
 279 -148 279 -148 279 -121 c 0,61,62
 279 -100 279 -100 266.5 -86.5 c 128,-1,63
 254 -73 254 -73 232 -73 c 2,64,-1
 203 -73 l 1,65,-1
 237 -2 l 1,66,67
 150 4 150 4 97 49 c 128,-1,68
 44 94 44 94 44 161 c 0,69,70
 44 213 44 213 75 259 c 128,-1,71
 106 305 106 305 158 335 c 128,-1,72
 210 365 210 365 272 371 c 1,73,74
 214 379 214 379 178.5 417.5 c 128,-1,75
 143 456 143 456 143 508 c 0,76,77
 143 562 143 562 178.5 606.5 c 128,-1,78
 214 651 214 651 274 677 c 128,-1,79
 334 703 334 703 405 703 c 0,80,81
 447 703 447 703 492 693 c 128,-1,82
 537 683 537 683 564 668 c 1,83,-1
 551 650 l 1,84,85
 526 664 526 664 483.5 673.5 c 128,-1,86
 441 683 441 683 401 683 c 0,87,18
 336 683 336 683 281.5 660 c 128,-1,19
EndSplineSet
EndChar

